<?xml version="1.0" encoding="UTF-8"?>
<svg width="19px" height="19px" viewBox="0 0 19 19" version="1.1" xmlns="http://www.w3.org/2000/svg" xmlns:xlink="http://www.w3.org/1999/xlink">
    <!-- Generator: Sketch 49 (51002) - http://www.bohemiancoding.com/sketch -->
    <title>Instagram-icon-black</title>
    <desc>Created with Sketch.</desc>
    <defs>
        <polygon id="path-1" points="4.15754921e-05 0.0300175055 18.9699825 0.0300175055 18.9699825 18.9975055 4.15754921e-05 18.9975055 4.15754921e-05 0.0300175055"></polygon>
    </defs>
    <g id="Symbols" stroke="none" stroke-width="1" fill="none" fill-rule="evenodd">
        <g id="Navigation" transform="translate(-1192.000000, -45.000000)">
            <g id="Social" transform="translate(1042.000000, 44.000000)">
                <g id="Instagram-icon-black" transform="translate(150.000000, 1.000000)">
                    <g id="Group-3">
                        <mask id="mask-2" fill="white">
                            <use xlink:href="#path-1"></use>
                        </mask>
                        <g id="Clip-2"></g>
                        <path d="M9.48503282,0.0299343545 C6.90905689,0.0299343545 6.58605689,0.040785558 5.57440044,0.0870175055 C4.56478118,0.133124726 3.87529322,0.293439825 3.27203282,0.527884026 C2.64827571,0.770269147 2.11931072,1.09459956 1.59200875,1.62190153 C1.06470678,2.1492035 0.740376368,2.67821007 0.498032823,3.3019256 C0.263463895,3.90526915 0.103148796,4.59475711 0.0571247265,5.60433479 C0.0109343545,6.61599125 4.15754921e-05,6.93894967 4.15754921e-05,9.5149256 C4.15754921e-05,12.0909847 0.0109343545,12.4139431 0.0571247265,13.4255996 C0.103148796,14.4351772 0.263463895,15.1246652 0.498032823,15.7280088 C0.740376368,16.3517243 1.06470678,16.8807309 1.59200875,17.4080328 C2.11931072,17.9353348 2.64827571,18.2596652 3.27203282,18.5020503 C3.87529322,18.7364945 4.56478118,18.8968096 5.57440044,18.9429168 C6.58605689,18.9890656 6.90905689,19 9.48503282,19 C12.0610088,19 12.3840503,18.9890656 13.3957068,18.9429168 C14.4052845,18.8968096 15.0947724,18.7364945 15.6980744,18.5020503 C16.3218315,18.2596652 16.8507549,17.9353348 17.3780569,17.4080328 C17.9053589,16.8807309 18.2296893,16.3517243 18.4720744,15.7280088 C18.7066018,15.1246652 18.8669168,14.4351772 18.9129825,13.4255996 C18.9591729,12.4139431 18.9700241,12.0909847 18.9700241,9.5149256 C18.9700241,6.93894967 18.9591729,6.61599125 18.9129825,5.60433479 C18.8669168,4.59475711 18.7066018,3.90526915 18.4720744,3.3019256 C18.2296893,2.67821007 17.9053589,2.1492035 17.3780569,1.62190153 C16.8507549,1.09459956 16.3218315,0.770269147 15.6980744,0.527884026 C15.0947724,0.293439825 14.4052845,0.133124726 13.3957068,0.0870175055 C12.3840503,0.040785558 12.0610088,0.0299343545 9.48503282,0.0299343545 M9.48503282,1.73893654 C12.0176455,1.73893654 12.3175711,1.74858206 13.3177943,1.79419037 C14.242558,1.8363895 14.7447899,1.99096718 15.0790153,2.12080744 C15.5217943,2.2928884 15.8377681,2.49843764 16.1696236,2.83033479 C16.5016039,3.16227352 16.7071532,3.47820569 16.879151,3.92094311 C17.0089912,4.25516849 17.1635689,4.75744201 17.2057681,5.68216411 C17.2513764,6.68238731 17.2610635,6.98231291 17.2610635,9.5149256 C17.2610635,12.0476214 17.2513764,12.347547 17.2057681,13.3476871 C17.1635689,14.2724923 17.0089912,14.7747659 16.879151,15.1089912 C16.7071532,15.5516871 16.5016039,15.8676608 16.1696236,16.1995996 C15.8377681,16.5314967 15.5217943,16.737046 15.0790153,16.9090853 C14.7447899,17.0389672 14.242558,17.1935449 13.3177943,17.2356608 C12.3177374,17.2813523 12.0178534,17.2909562 9.48503282,17.2909562 C6.95221225,17.2909562 6.65232823,17.2813523 5.65227133,17.2356608 C4.72754923,17.1935449 4.22527571,17.0389672 3.89105033,16.9090853 C3.44831291,16.737046 3.13233917,16.5314967 2.80044201,16.1995996 C2.46858643,15.8676608 2.2630372,15.5516871 2.09095624,15.1089912 C1.9610744,14.7747659 1.80653829,14.2724923 1.76429759,13.3476871 C1.71873085,12.347547 1.70904376,12.0476214 1.70904376,9.5149256 C1.70904376,6.98231291 1.71873085,6.68238731 1.76429759,5.68216411 C1.80653829,4.75744201 1.9610744,4.25516849 2.09095624,3.92094311 C2.2630372,3.47820569 2.46858643,3.16227352 2.80044201,2.83033479 C3.13233917,2.49843764 3.44831291,2.2928884 3.89105033,2.12080744 C4.22527571,1.99096718 4.72754923,1.8363895 5.65227133,1.79419037 C6.65249453,1.74858206 6.95242013,1.73893654 9.48503282,1.73893654" id="Fill-1" fill="#FFFFFF" mask="url(#mask-2)"></path>
                    </g>
                    <path d="M9.48503282,12.6766171 C7.73890372,12.6766171 6.32334136,11.2610963 6.32334136,9.5149256 C6.32334136,7.7687965 7.73890372,6.35327571 9.48503282,6.35327571 C11.2312035,6.35327571 12.6467243,7.7687965 12.6467243,9.5149256 C12.6467243,11.2610963 11.2312035,12.6766171 9.48503282,12.6766171 M9.48503282,4.64427352 C6.79505689,4.64427352 4.61438074,6.82499125 4.61438074,9.5149256 C4.61438074,12.2049847 6.79505689,14.3856193 9.48503282,14.3856193 C12.1750088,14.3856193 14.3556849,12.2049847 14.3556849,9.5149256 C14.3556849,6.82499125 12.1750088,4.64427352 9.48503282,4.64427352" id="Fill-4" fill="#FFFFFF"></path>
                    <path d="M15.6863917,4.45182057 C15.6863917,5.08040044 15.1768009,5.59003282 14.5481794,5.59003282 C13.9195996,5.59003282 13.4099672,5.08040044 13.4099672,4.45182057 C13.4099672,3.82319912 13.9195996,3.31360832 14.5481794,3.31360832 C15.1768009,3.31360832 15.6863917,3.82319912 15.6863917,4.45182057" id="Fill-5" fill="#FFFFFF"></path>
                </g>
            </g>
        </g>
    </g>
</svg>