<?xml version="1.0" encoding="UTF-8"?>
<svg width="18px" height="20px" viewBox="0 0 18 20" version="1.1" xmlns="http://www.w3.org/2000/svg" xmlns:xlink="http://www.w3.org/1999/xlink">
    <!-- Generator: Sketch 48.2 (47327) - http://www.bohemiancoding.com/sketch -->
    <title>Shape</title>
    <desc>Created with Sketch.</desc>
    <defs></defs>
    <g id="RevelBus-Events-Detail-2-Upcoming" stroke="none" stroke-width="1" fill="none" fill-rule="evenodd" transform="translate(-840.000000, -741.000000)">
        <path d="M854,750 L844,750 L844,752 L854,752 L854,750 L854,750 Z M856,743 L855,743 L855,741 L853,741 L853,743 L845,743 L845,741 L843,741 L843,743 L842,743 C840.89,743 840.01,743.9 840.01,745 L840,759 C840,760.1 840.89,761 842,761 L856,761 C857.1,761 858,760.1 858,759 L858,745 C858,743.9 857.1,743 856,743 L856,743 Z M856,759 L842,759 L842,748 L856,748 L856,759 L856,759 Z M851,754 L844,754 L844,756 L851,756 L851,754 L851,754 Z" id="Shape" fill="#129EB0"></path>
    </g>
</svg>