<?xml version="1.0" encoding="UTF-8"?>
<svg width="14px" height="20px" viewBox="0 0 14 20" version="1.1" xmlns="http://www.w3.org/2000/svg" xmlns:xlink="http://www.w3.org/1999/xlink">
    <!-- Generator: Sketch 48.2 (47327) - http://www.bohemiancoding.com/sketch -->
    <title>Shape</title>
    <desc>Created with Sketch.</desc>
    <defs></defs>
    <g id="RevelBus-Events-Detail-2-Upcoming" stroke="none" stroke-width="1" fill="none" fill-rule="evenodd" transform="translate(-842.000000, -902.000000)">
        <path d="M849,902 C845.13,902 842,905.13 842,909 C842,914.25 849,922 849,922 C849,922 856,914.25 856,909 C856,905.13 852.87,902 849,902 L849,902 Z M849,911.5 C847.62,911.5 846.5,910.38 846.5,909 C846.5,907.62 847.62,906.5 849,906.5 C850.38,906.5 851.5,907.62 851.5,909 C851.5,910.38 850.38,911.5 849,911.5 L849,911.5 Z" id="Shape" fill="#129EB0"></path>
    </g>
</svg>