<?xml version="1.0" encoding="UTF-8"?>
<svg width="49px" height="49px" viewBox="0 0 49 49" version="1.1" xmlns="http://www.w3.org/2000/svg" xmlns:xlink="http://www.w3.org/1999/xlink">
    <!-- Generator: Sketch 48.2 (47327) - http://www.bohemiancoding.com/sketch -->
    <title>Arrow/Left</title>
    <desc>Created with Sketch.</desc>
    <defs></defs>
    <g id="Event/Golf" stroke="none" stroke-width="1" fill="none" fill-rule="evenodd" transform="translate(-30.000000, -253.000000)">
        <g id="Arrow-" transform="translate(30.000000, 253.000000)">
            <g id="Arrow/Left">
                <circle id="Oval-Copy" fill="#FFFFFF" transform="translate(24.500000, 24.500000) rotate(-180.000000) translate(-24.500000, -24.500000) " cx="24.5" cy="24.5" r="24.5"></circle>
                <g id="Arrow-Copy" stroke-width="1" transform="translate(24.500000, 25.000000) rotate(-180.000000) translate(-24.500000, -25.000000) translate(15.000000, 15.000000)" fill="#4D4D4D">
                    <path d="M18.911,10.405 C18.861,10.534 18.787,10.657 18.683,10.761 L10.731,18.714 C10.331,19.113 9.684,19.113 9.285,18.714 C8.886,18.314 8.886,17.668 9.285,17.268 L15.553,11 L1,11 C0.448,11 0,10.552 0,10 C0,9.448 0.448,9 1,9 L15.555,9 L9.285,2.73 C8.886,2.33 8.886,1.683 9.285,1.283 C9.684,0.884 10.331,0.884 10.731,1.283 L18.683,9.236 C18.788,9.342 18.862,9.465 18.912,9.596 C18.967,9.72 19,9.856 19,10 C19,10.145 18.966,10.28 18.911,10.405 L18.911,10.405 Z" id="Shape"></path>
                </g>
            </g>
        </g>
    </g>
</svg>