<?xml version="1.0" encoding="UTF-8"?>
<svg width="923px" height="389px" viewBox="0 0 923 389" version="1.1" xmlns="http://www.w3.org/2000/svg" xmlns:xlink="http://www.w3.org/1999/xlink">
    <!-- Generator: Sketch 48.2 (47327) - http://www.bohemiancoding.com/sketch -->
    <title>RevelBus Bus </title>
    <desc>Created with Sketch.</desc>
    <defs>
        <polygon id="path-1" points="0 48.571592 0 0.315430474 48.1735911 0.315430474 48.1735911 48.571592 2.09398872e-15 48.571592"></polygon>
        <polygon id="path-3" points="0.505684836 0.183097218 64.7954394 0.183097218 64.7954394 108.039246 0.505684836 108.039246 0.505684836 0.183097218"></polygon>
    </defs>
    <g id="RevelBus-Home-Sports" stroke="none" stroke-width="1" fill="none" fill-rule="evenodd" transform="translate(-357.000000, -253.000000)">
        <g id="Landing" transform="translate(0.000000, -9.000000)">
            <g id="RevelBus-Bus-" transform="translate(354.000000, 261.000000)">
                <g id="Page-1" transform="translate(3.000000, 1.000000)">
                    <path d="M701.829492,375.78661 C701.829492,382.983909 574.3567,388.816903 417.111868,388.816903 C259.867036,388.816903 132.394244,382.983909 132.394244,375.78661 C132.394244,368.591004 259.867036,362.75801 417.111868,362.75801 C574.3567,362.75801 701.829492,368.591004 701.829492,375.78661" id="Fill-1" fill="#44B3A7"></path>
                    <path d="M789.811369,126.27259 C789.811369,114.736938 780.477085,105.384851 768.95962,105.384851 L270.645059,105.384851 C251.478009,105.384851 235.477587,118.88571 231.548874,136.904347 L231.525217,136.924659 L188.721679,329.30513 L188.721679,329.30513 C188.5696,330.054989 188.486801,330.830239 188.486801,331.624109 C188.486801,337.95306 193.608491,343.083589 199.926537,343.083589 L741.757719,343.083589 L789.098286,131.611319 C789.547765,129.905093 789.811369,128.122695 789.811369,126.27259" id="Fill-3" fill="#99C1E6"></path>
                    <path d="M628.22231,116.54625 L748.76705,116.54625 C760.281135,116.54625 769.618799,125.898337 769.618799,137.435681 C769.618799,139.284093 769.353505,141.064798 768.904026,142.772718 L747.695736,241.994553 L604.925465,240.767356 L628.22231,116.54625 Z" id="Fill-5" fill="#5588C6"></path>
                    <path d="M748.766881,116.54625 L743.79896,116.54625 C755.314735,116.54625 764.649019,125.898337 764.649019,137.435681 C764.649019,139.284093 764.387105,141.064798 763.937626,142.772718 L742.737785,241.952236 L747.695567,241.994553 L768.903857,142.772718 C769.355026,141.064798 769.61863,139.284093 769.61863,137.435681 C769.61863,125.898337 760.280966,116.54625 748.766881,116.54625" id="Fill-7" fill="#5588C6"></path>
                    <polygon id="Fill-9" fill="#5588C6" points="615.492943 116.949617 464.479979 116.836207 439.005022 241.881651 590.017985 241.995061"></polygon>
                    <path d="M218.885745,343.595796 C213.103356,367.000557 193.794366,382.348136 175.759461,377.876061 C157.722867,373.403986 147.790405,350.806636 153.574484,327.401874 C159.356874,303.997113 178.665864,288.649534 196.700768,293.121609 C214.735673,297.591991 224.668135,320.191034 218.885745,343.595796" id="Fill-11" fill="#101D36"></path>
                    <path d="M516.798268,343.595796 C511.015879,367.000557 491.706888,382.348136 473.671984,377.876061 C455.63708,373.403986 445.704618,350.806636 451.487007,327.401874 C457.269397,303.997113 476.578387,288.649534 494.614981,293.121609 C512.649885,297.591991 522.582347,320.191034 516.798268,343.595796" id="Fill-13" fill="#101D36"></path>
                    <path d="M242.775192,331.624786 C242.775192,330.829224 242.856301,330.053974 243.01007,329.305807 L243.01007,329.305807 L285.813608,136.925336 L285.837265,136.905024 C289.765978,118.884695 305.7664,105.385528 324.93345,105.385528 L173.357793,105.385528 C154.190743,105.385528 138.190321,118.884695 134.261608,136.905024 L134.239641,136.925336 L91.4344132,329.305807 L91.4344132,329.305807 C91.2806442,330.053974 91.1995353,330.829224 91.1995353,331.624786 C91.1995353,337.952044 96.3212251,343.084266 102.639271,343.084266 L254.214928,343.084266 C247.896882,343.084266 242.775192,337.952044 242.775192,331.624786" id="Fill-15" fill="#B7E4F9"></path>
                    <path d="M424.698424,241.657878 L451.371427,116.852795 L331.495836,114.916363 C315.118595,114.916363 301.448364,126.448629 298.092483,141.845296 L298.072206,141.86053 L276.90785,241.657878 C276.90785,241.657878 406.278252,242.297713 424.698424,241.657878" id="Fill-17" fill="#5588C6"></path>
                    <path d="M445.820536,116.761221 L419.100219,241.78466 C421.472655,241.745728 423.378714,241.703411 424.698424,241.657708 L451.371427,116.852626 L445.820536,116.761221 Z" id="Fill-19" fill="#5588C6"></path>
                    <polygon id="Fill-21" fill="#5588C6" points="609.019269 116.946231 584.341883 241.989983 590.017817 241.995061 615.492774 116.949617"></polygon>
                    <path d="M206.367599,250.003833 L188.478015,330.408083 L188.479704,330.408083 C188.325935,331.15625 188.243137,331.9315 188.243137,332.72537 C188.243137,339.054321 193.366516,344.186543 199.682873,344.186543 L741.514054,344.186543 L762.597302,250.003833 L206.367599,250.003833 Z" id="Fill-23" fill="#3B6EB6"></path>
                    <path d="M109.322983,250.003833 L91.4333993,330.408083 L91.4350891,330.408083 C91.2813201,331.15625 91.1985215,331.9315 91.1985215,332.72537 C91.1985215,339.054321 96.321901,344.186543 102.638257,344.186543 L254.215604,344.186543 C247.895868,344.186543 242.775868,339.054321 242.775868,332.72537 C242.775868,331.9315 242.855287,331.15625 243.010746,330.408083 L243.009056,330.408083 L260.89864,250.003833 L109.322983,250.003833 Z" id="Fill-25" fill="#5588C6"></path>
                    <path d="M348.864296,343.595796 C343.081906,367.000557 323.772916,382.348136 305.738012,377.876061 C287.701418,373.403986 277.768956,350.806636 283.553035,327.401874 C289.335424,303.997113 308.644415,288.649534 326.679319,293.121609 C344.714223,297.591991 354.646685,320.191034 348.864296,343.595796" id="Fill-27" fill="#151D40"></path>
                    <path d="M341.559762,342.924815 C337.874376,357.839067 325.569479,367.619403 314.07736,364.768921 C302.585241,361.920131 296.255366,347.518763 299.940752,332.604512 C303.626139,317.691953 315.929347,307.909924 327.423155,310.760407 C338.915274,313.610889 345.245149,328.008871 341.559762,342.924815" id="Fill-29" fill="#5588C6"></path>
                    <path d="M692.636473,343.595796 C686.852393,367.000557 667.543403,382.348136 649.510189,377.876061 C631.473595,373.403986 621.541133,350.806636 627.325212,327.401874 C633.107601,303.997113 652.414902,288.649534 670.451496,293.121609 C688.4864,297.591991 698.418862,320.191034 692.636473,343.595796" id="Fill-31" fill="#151D40"></path>
                    <path d="M234.7983,297.095018 C234.7983,306.326925 227.327831,313.810287 218.111831,313.810287 C208.895831,313.810287 201.425362,306.326925 201.425362,297.095018 C201.425362,287.863112 208.895831,280.37975 218.111831,280.37975 C227.327831,280.37975 234.7983,287.863112 234.7983,297.095018" id="Fill-33" fill="#FEFEFE"></path>
                    <path d="M146.148964,297.095018 C146.148964,306.326925 138.678495,313.810287 129.462495,313.810287 C120.246495,313.810287 112.776026,306.326925 112.776026,297.095018 C112.776026,287.863112 120.246495,280.37975 129.462495,280.37975 C138.678495,280.37975 146.148964,287.863112 146.148964,297.095018" id="Fill-35" fill="#FEFEFE"></path>
                    <path d="M80.4524356,245.182049 C82.4750891,242.815675 84.1310627,243.426734 84.136132,246.542968 C84.1395116,249.659202 86.0759868,253.865525 88.4399736,255.889977 C90.8022706,257.916121 90.192264,259.576646 87.0813993,259.580031 C83.9705347,259.583417 79.7714587,261.523234 77.7488053,263.891301 C75.7278416,266.259368 74.0701782,265.646616 74.0667987,262.530382 C74.0634191,259.414148 72.1252541,255.207825 69.7629571,253.183373 C67.3989703,251.157228 68.0106667,249.496704 71.1215314,249.493319 C74.2307063,249.489933 78.4297822,247.548423 80.4524356,245.182049" id="Fill-37" fill="#5588C6"></path>
                    <path d="M183.856862,60.887049 C186.966037,60.9259808 187.559146,62.5932759 185.171502,64.5906447 C182.785548,66.5897062 180.80007,70.7740246 180.761205,73.8902585 C180.72234,77.0047997 179.057918,77.5989323 177.062301,75.2071678 C175.068373,72.8154033 170.891264,70.8281906 167.7804,70.7892588 C164.671225,70.7486344 164.078116,69.0813392 166.46576,67.0839704 C168.851713,65.0849089 170.837192,60.9005905 170.876057,57.7860493 C170.916611,54.6698154 172.581033,54.0773755 174.574961,56.4674473 C176.570578,58.8592118 180.745997,60.8481172 183.856862,60.887049" id="Fill-39" fill="#5588C6"></path>
                    <path d="M816.46494,129.188409 C818.485904,126.822035 820.143567,127.433095 820.146947,130.549329 C820.150326,133.665562 822.086801,137.871886 824.450788,139.896338 C826.814775,141.922482 826.203079,143.583006 823.092214,143.586392 C819.981349,143.589777 815.783963,145.529595 813.75962,147.897662 C811.738656,150.265729 810.082683,149.652976 810.077613,146.536743 C810.074234,143.420509 808.137758,139.215878 805.773772,137.189734 C803.409785,135.163589 804.021481,133.503065 807.132346,133.499679 C810.241521,133.496294 814.442286,131.556476 816.46494,129.188409" id="Fill-41" fill="#5588C6"></path>
                    <path d="M845.012742,169.226175 C850.114154,164.175202 853.80292,165.900048 853.214881,173.060108 C852.625151,180.218474 856.268293,190.256099 861.310564,195.362931 C866.351145,200.471456 864.62927,204.169973 857.483237,203.579226 C850.335514,202.988479 840.316874,206.637909 835.215461,211.688882 C830.117428,216.738163 826.426973,215.013316 827.016702,207.853257 C827.604742,200.69489 823.9616,190.657266 818.921019,185.550434 C813.877059,180.441909 815.600623,176.743391 822.746656,177.335831 C829.894379,177.926578 839.913019,174.275456 845.012742,169.226175" id="Fill-43" fill="#44B3A7"></path>
                    <g id="Group-47" transform="translate(0.000000, 220.553527)">
                        <mask id="mask-2" fill="white">
                            <use xlink:href="#path-1"></use>
                        </mask>
                        <g id="Clip-46"></g>
                        <path d="M28.9854521,3.21215781 C34.0851749,-1.83712285 37.7756304,-0.113969076 37.185901,7.04609032 C36.5961716,14.204457 40.2393135,24.2420817 45.2815842,29.3506063 C50.3238548,34.459131 48.6002904,38.155956 41.4542574,37.5652087 C34.3065347,36.9744615 24.2878944,40.625584 19.1881716,45.6748647 C14.0884488,50.7241453 10.3979934,49.0009916 10.9877228,41.8409322 C11.5774521,34.6825654 7.93431023,24.6449408 2.8920396,19.5364162 C-2.15023102,14.4278915 -0.428356436,10.7310665 6.71936634,11.3218137 C13.8670891,11.912561 23.8857294,8.26143847 28.9854521,3.21215781" id="Fill-45" fill="#44B3A7" mask="url(#mask-2)"></path>
                    </g>
                    <path d="M459.448354,57.5651335 C459.537912,54.4776753 461.197265,53.9173964 463.13543,56.319317 C465.073595,58.7229304 469.179733,60.7626163 472.261872,60.8523286 C475.344011,60.9437337 475.903324,62.6059508 473.503852,64.547461 C471.10607,66.4872785 469.069898,70.6005041 468.980341,73.6879623 C468.889093,76.7754206 467.22974,77.3356994 465.291575,74.9337788 C463.3551,72.5301655 459.247271,70.4904795 456.166822,70.4007672 C453.082994,70.3093622 452.523681,68.6471451 454.923152,66.7073276 C457.320935,64.7658174 459.357106,60.6525918 459.448354,57.5651335" id="Fill-48" fill="#129DB0"></path>
                    <path d="M45.3204488,170.649385 C44.3201056,166.593711 46.2768581,165.261567 49.671604,167.687186 C53.0646601,170.111111 59.1545875,171.273986 63.1998944,170.270224 C67.2468911,169.269846 68.578429,171.229976 66.1569901,174.630581 C63.7372409,178.029494 62.5763696,184.128239 63.5767129,188.180528 C64.5770561,192.236202 62.6203036,193.568346 59.2255578,191.142728 C55.8325017,188.720495 49.744264,187.555927 45.6972673,188.55969 C41.6502706,189.56176 40.3204224,187.60163 42.7401716,184.201025 C45.1599208,180.80042 46.3224818,174.703367 45.3204488,170.649385" id="Fill-50" fill="#E6775F"></path>
                    <path d="M895.816491,254.536506 L712.503593,254.536506 C711.251475,254.536506 710.240993,253.522587 710.240993,252.27 C710.240993,251.019105 711.251475,250.003494 712.503593,250.003494 L895.816491,250.003494 C897.06523,250.003494 898.077402,251.019105 898.077402,252.27 C898.077402,253.522587 897.06523,254.536506 895.816491,254.536506" id="Fill-52" fill="#3B6EB6"></path>
                    <path d="M807.491253,344.186035 L717.703688,344.186035 C716.453259,344.186035 715.441088,343.170424 715.441088,341.919529 C715.441088,340.666942 716.453259,339.653024 717.703688,339.653024 L807.491253,339.653024 C808.739992,339.653024 809.753853,340.666942 809.753853,341.919529 C809.753853,343.170424 808.739992,344.186035 807.491253,344.186035" id="Fill-54" fill="#3B6EB6"></path>
                    <path d="M857.479688,299.217477 L767.692124,299.217477 C766.443385,299.217477 765.431213,298.203558 765.431213,296.950971 C765.431213,295.698384 766.443385,294.684465 767.692124,294.684465 L857.479688,294.684465 C858.730117,294.684465 859.742289,295.698384 859.742289,296.950971 C859.742289,298.203558 858.730117,299.217477 857.479688,299.217477" id="Fill-56" fill="#3B6EB6"></path>
                    <path d="M797.288259,320.757915 L707.500694,320.757915 C706.251955,320.757915 705.238094,319.742303 705.238094,318.491409 C705.238094,317.238822 706.251955,316.224903 707.500694,316.224903 L797.288259,316.224903 C798.538688,316.224903 799.550859,317.238822 799.550859,318.491409 C799.550859,319.742303 798.538688,320.757915 797.288259,320.757915" id="Fill-58" fill="#FEFEFE"></path>
                    <path d="M773.765154,277.677039 L683.977589,277.677039 C682.72885,277.677039 681.714989,276.66312 681.714989,275.410533 C681.714989,274.159639 682.72885,273.144027 683.977589,273.144027 L773.765154,273.144027 C775.015583,273.144027 776.027754,274.159639 776.027754,275.410533 C776.027754,276.66312 775.015583,277.677039 773.765154,277.677039" id="Fill-60" fill="#FEFEFE"></path>
                    <path d="M685.403754,342.924815 C681.718368,357.839067 669.41516,367.619403 657.921352,364.768921 C646.429233,361.920131 640.099358,347.518763 643.784745,332.604512 C647.470131,317.691953 659.775028,307.909924 671.267147,310.760407 C682.760956,313.610889 689.09083,328.008871 685.403754,342.924815" id="Fill-62" fill="#5588C6"></path>
                    <path d="M607.989692,343.595796 C602.205613,367.000557 582.896623,382.348136 564.863409,377.876061 C546.826815,373.403986 536.894352,350.806636 542.678432,327.401874 C548.460821,303.997113 567.769811,288.649534 585.804716,293.121609 C603.83962,297.591991 613.773772,320.191034 607.989692,343.595796" id="Fill-64" fill="#151D40"></path>
                    <path d="M600.758664,342.924815 C597.071588,357.839067 584.76838,367.619403 573.274572,364.768921 C561.784143,361.920131 555.452578,347.518763 559.137964,332.604512 C562.82504,317.691953 575.128248,307.909924 586.622057,310.760407 C598.114176,313.610889 604.44405,328.008871 600.758664,342.924815" id="Fill-66" fill="#5588C6"></path>
                    <path d="M489.870785,79.301415 C489.870785,81.3360229 488.22495,82.9830059 486.195538,82.9830059 C484.166125,82.9830059 482.518601,81.3360229 482.518601,79.301415 C482.518601,77.2684998 484.166125,75.6198242 486.195538,75.6198242 C488.22495,75.6198242 489.870785,77.2684998 489.870785,79.301415" id="Fill-68" fill="#FFFFFF"></path>
                    <path d="M273.35849,155.403706 C272.689341,157.336753 268.883982,157.766695 264.860642,156.366844 C260.837302,154.966993 258.118463,152.265467 258.789302,150.33242 C259.46014,148.399374 263.2655,147.967739 267.28884,149.369282 C271.31218,150.769133 274.029328,153.470659 273.35849,155.403706" id="Fill-70" fill="#561D42"></path>
                    <path d="M82.3865452,220.871193 C82.3865452,223.30866 80.4145848,225.284024 77.9813175,225.284024 C75.5463604,225.284024 73.5744,223.30866 73.5744,220.871193 C73.5744,218.433726 75.5463604,216.458362 77.9813175,216.458362 C80.4145848,216.458362 82.3865452,218.433726 82.3865452,220.871193" id="Fill-72" fill="#EDD60A"></path>
                    <path d="M864.148024,139.896676 C864.148024,142.33245 862.176063,144.309507 859.742796,144.309507 C857.307839,144.309507 855.335879,142.33245 855.335879,139.896676 C855.335879,137.459209 857.307839,135.482152 859.742796,135.482152 C862.176063,135.482152 864.148024,137.459209 864.148024,139.896676" id="Fill-74" fill="#FFFFFF"></path>
                    <polygon id="Fill-76" fill="#561D42" points="266.960011 152.892776 265.364869 152.337576 268.599086 143.012571 270.194228 143.567772"></polygon>
                    <path d="M478.833721,238.583284 C478.391002,238.334459 467.87388,232.367743 458.766025,222.094835 C445.63652,207.28553 441.560797,190.858018 446.983266,174.586233 C457.069497,144.324403 487.005444,137.998837 501.429312,138.880726 L500.802408,149.136707 L500.236335,159.397766 C499.170091,159.343601 474.021259,158.366921 466.444335,181.096301 C463.434857,190.125085 465.839398,198.955825 473.79483,208.091248 C480.589391,215.897914 488.811807,220.625584 488.892916,220.671287 L478.833721,238.583284 Z" id="Fill-78" fill="#FBBB6A"></path>
                    <path d="M609.101898,70.1155497 C594.257278,127.021941 542.229291,150.49441 541.702083,150.724616 L549.812974,169.430482 C552.18372,168.403022 608.419232,136.472204 629.156077,78.3132253 L609.101898,70.1155497 Z" id="Fill-80" fill="#FBBB6A"></path>
                    <path d="M570.138191,131.57882 C555.166838,144.653122 541.966363,150.60799 541.702759,150.724785 L549.81365,169.430652 C551.069149,168.8873 566.314244,162.094553 583.46371,147.200614 L570.138191,131.57882 Z" id="Fill-82" fill="#D44355"></path>
                    <path d="M457.609209,156.241754 L472.181777,170.778537 C482.492747,158.701226 499.36678,159.354603 500.235321,159.39692 L500.803084,149.137554 L501.428298,138.87988 C490.581671,138.219733 470.961764,141.635572 457.609209,156.241754" id="Fill-84" fill="#C1374C"></path>
                    <path d="M509.884071,133.445006 C509.884071,133.445006 490.466936,138.018642 484.427702,161.177964 C476.752771,190.596837 472.097457,241.905518 472.097457,241.905518 L544.34522,241.959684 L550.05157,169.22499 L544.504058,145.760985 L509.884071,133.445006 Z" id="Fill-86" fill="#D44355"></path>
                    <path d="M514.055604,78.311194 C514.055604,78.311194 513.092436,84.0070805 517.88631,91.6004674 L512.452013,106.074621 C512.452013,106.074621 506.624,109.336425 512.98936,113.060333 L501.28602,147.707912 C501.28602,147.707912 508.59934,157.095545 520.30437,160.057745 C532.011089,163.018251 542.761399,158.322742 542.761399,158.322742 L555.299485,128.060912 C555.299485,128.060912 564.093043,108.642424 564.593215,102.983777 C564.593215,102.983777 560.338376,102.37441 558.156884,104.417482 C558.156884,104.417482 560.514112,92.522981 548.498165,88.2980381 C536.480528,84.0730953 524.32095,84.0764806 514.055604,78.311194" id="Fill-88" fill="#FBBB6A"></path>
                    <path d="M558.56716,120.53337 C562.582051,115.094772 564.298857,106.319891 564.592877,102.983608 C564.592877,102.983608 560.338038,102.374241 558.156547,104.417312 C558.156547,104.417312 560.513774,92.5228117 548.497827,88.2995615 C536.48019,84.072926 524.320613,84.0763114 514.055266,78.3110248 C514.055266,78.3110248 513.092098,84.0069113 517.885972,91.6002981 L513.041405,104.51041 C513.041405,104.51041 512.691622,107.137458 514.781867,105.485397 C518.188441,102.79572 521.055979,95.3208207 521.055979,95.3208207 C521.055979,95.3208207 535.860045,111.370864 554.579306,110.968005 C554.579306,110.968005 552.876018,115.90049 553.562065,122.107568 L558.56716,120.53337 Z" id="Fill-90" fill="#CC892A"></path>
                    <path d="M540.174532,142.009317 C537.687192,149.335259 529.743588,153.255519 522.430268,150.765579 C515.116948,148.273946 511.203443,140.316631 513.690783,132.992381 L517.085529,122.986918 L543.569278,132.005546 L540.174532,142.009317 Z" id="Fill-92" fill="#7F2F1F"></path>
                    <polygon id="Fill-94" fill="#FEFEFE" points="541.852642 137.063459 518.511863 129.116301 520.226978 124.055172 543.569447 132.005715"></polygon>
                    <path d="M529.844467,114.157701 L523.213814,112.082469 C523.213814,112.082469 524.589286,108.888372 527.55821,109.815963 C530.528824,110.743555 529.844467,114.157701 529.844467,114.157701" id="Fill-96" fill="#3B6EB6"></path>
                    <path d="M546.661217,120.285392 L540.189402,117.754827 C540.189402,117.754827 541.781164,114.662291 544.680808,115.794697 C547.580451,116.928797 546.661217,120.285392 546.661217,120.285392" id="Fill-98" fill="#3B6EB6"></path>
                    <polygon id="Fill-100" fill="#FEFEFE" points="495.521035 194.125409 500.407847 194.790634 502.540335 179.065586 497.656903 178.398668 498.393642 172.963455 510.590395 174.625672 507.717787 195.785933 512.643464 196.457929 511.903345 201.891449 494.782606 199.558929"></polygon>
                    <polygon id="Fill-102" fill="#FEFEFE" points="515.151419 196.800021 520.038231 197.465246 522.170719 181.740199 517.287287 181.073281 518.024026 175.638068 530.220779 177.300285 527.348172 198.460545 532.272158 199.132542 531.53204 204.566062 514.41299 202.233541"></polygon>
                    <g id="Group-106" transform="translate(585.663988, 0.504420)">
                        <mask id="mask-4" fill="white">
                            <use xlink:href="#path-3"></use>
                        </mask>
                        <g id="Clip-105"></g>
                        <path d="M1.62603487,76.7694962 L31.3389326,5.10965818 C32.9881471,1.07091073 37.6367015,-0.882448264 41.6668005,0.769612722 C45.6985893,2.42167371 47.646893,7.07655866 45.9993682,11.1153061 L31.0922263,47.6180676 L55.4029326,57.5795214 C63.10152,60.7329943 66.8240811,69.6229782 63.6760415,77.3348531 L54.9788005,98.6305286 C51.8307609,106.342403 42.9560943,110.071389 35.2575068,106.917916 L9.89745401,96.5248279 C2.19886655,93.3713549 -1.52369451,84.481371 1.62603487,76.7694962" id="Fill-104" fill="#D44355" mask="url(#mask-4)"></path>
                    </g>
                    <path d="M530.124969,119.614242 L538.23755,122.408866 C538.23755,122.408866 533.139517,124.900499 530.124969,119.614242" id="Fill-107" fill="#C17F46"></path>
                    <path d="M352.837787,172.752039 C354.434619,171.130446 355.152771,168.726833 354.517418,166.368922 C353.567768,162.843058 349.949972,160.752592 346.430183,161.692032 C344.841801,162.105048 309.138672,170.874851 276.09524,135.964906 C273.580863,133.30739 269.395306,133.197366 266.744058,135.714389 C264.113088,138.214485 263.981286,142.427579 266.493972,145.08171 C305.196441,185.971912 348.048982,174.979613 349.853655,174.49212 C351.026355,174.175587 352.041906,173.562835 352.837787,172.752039" id="Fill-109" fill="#B77148"></path>
                    <path d="M288.36837,124.17823 C286.220673,130.366688 279.470046,133.642034 273.292251,131.490631 C267.111076,129.34092 263.843063,122.578642 265.989069,116.386799 L271.401399,107.075336 L289.887472,113.509234 L288.36837,124.17823 Z" id="Fill-111" fill="#561D42"></path>
                    <path d="M271.459865,138.187572 C271.368618,138.187572 271.273991,138.172337 271.182743,138.141869 C270.741714,137.987835 270.508525,137.505419 270.662294,137.063628 L273.896512,127.738624 C274.048591,127.295141 274.530176,127.066628 274.971205,127.217277 C275.412235,127.369619 275.645423,127.853727 275.491654,128.293825 L272.257436,137.618829 C272.135773,137.969215 271.809648,138.187572 271.459865,138.187572" id="Fill-113" fill="#561D42"></path>
                    <path d="M346.690915,241.904163 L405.962941,241.887237 C403.386044,222.167451 380.903667,210.994035 380.903667,210.994035 C388.865859,201.086747 396.807773,177.092931 395.36978,163.28231 C393.931786,149.47169 381.47143,141.82583 381.47143,141.82583 L340.717582,157.836941 C340.717582,157.836941 327.598215,168.769996 328.360301,180.481687 C329.080143,191.546772 341.90042,197.430546 341.90042,197.430546 L346.690915,241.904163 Z" id="Fill-115" fill="#5259A7"></path>
                    <path d="M345.070426,102.761697 C345.070426,102.761697 358.314836,117.968783 382.446426,122.115862 L381.094611,141.972755 C356.851496,151.803872 341.690888,177.029963 341.690888,177.029963 C338.507364,140.044786 345.070426,102.761697 345.070426,102.761697" id="Fill-117" fill="#B77148"></path>
                    <path d="M372.751208,163.870349 C373.256449,172.768797 377.752924,179.751124 382.795195,179.463367 C387.837465,179.175611 391.514403,171.729488 391.009162,162.83104 C390.503921,153.9309 386.007446,146.950266 380.965175,147.238022 C375.922904,147.524086 372.245967,154.970209 372.751208,163.870349" id="Fill-119" fill="#B77148"></path>
                    <path d="M400.833648,221.101059 C407.283496,218.355524 412.981397,214.511435 417.19906,209.807462 C424.693185,201.450674 426.976063,191.096517 423.626941,180.652648 C414.635681,152.608236 382.864644,152.846905 381.516209,152.870602 C377.895034,152.933232 374.894004,155.822646 374.821344,159.321426 C374.748684,162.813436 377.617912,165.594519 381.232327,165.540353 C382.278294,165.530197 404.900921,165.565743 411.073648,184.82004 C413.084473,191.091439 411.852631,196.778862 407.416987,201.729967 C399.997212,209.998736 385.169489,214.645157 372.151509,212.771354 C368.589476,212.261856 364.623588,212.219539 363.95444,215.679388 C363.286981,219.14093 364.701317,223.904147 369.73176,225.307383 C379.887271,228.142631 391.318558,225.151656 400.833648,221.101059" id="Fill-121" fill="#A06040"></path>
                    <path d="M400.665347,219.570364 C407.189545,217.005946 412.966865,213.25834 417.262257,208.53744 C424.889875,200.150184 427.289347,189.423636 424.016264,178.334854 C415.224396,148.548668 383.215102,147.270691 381.856528,147.231759 C378.208317,147.123427 375.158284,150.002685 375.051828,153.660578 C374.943683,157.313394 377.807842,160.36192 381.449294,160.478715 C382.50371,160.517647 405.293624,161.64159 411.329479,182.090923 C413.29468,188.75164 412.000317,194.643878 407.481875,199.61191 C399.930297,207.911147 384.947116,212.059919 371.851406,209.475188 C368.267406,208.771031 364.788172,211.105244 364.081848,214.69543 C363.375525,218.285616 365.707406,221.770855 369.293096,222.48009 C379.789941,224.551937 391.040422,223.351823 400.665347,219.570364" id="Fill-123" fill="#B77148"></path>
                    <path d="M351.384079,136.790768 L372.027987,138.77798 C372.027987,138.77798 361.451723,147.51393 351.384079,136.790768" id="Fill-125" fill="#FEFEFE"></path>
                    <path d="M357.871609,129.743949 L367.3039,130.651228 C367.3039,130.651228 362.47116,134.644273 357.871609,129.743949" id="Fill-127" fill="#77482E"></path>
                    <path d="M389.354371,111.089709 C401.030675,110.586981 414.038516,109.870975 427.774648,94.7603726 C427.774648,94.7603726 408.45045,105.41752 388.680153,89.6738528 C378.225552,81.1359475 352.823255,69.8795893 338.845486,92.2822811 C326.347955,112.313521 342.135467,126.638717 342.135467,126.638717 C342.135467,126.638717 348.76443,122.378228 356.44443,112.54034 C368.700325,119.764722 388.979242,127.647558 413.668457,121.753627 C413.668457,121.753627 401.098265,121.564046 389.354371,111.089709" id="Fill-129" fill="#161617"></path>
                    <path d="M357.562213,125.181654 L350.627401,124.746634 C350.627401,124.746634 351.205302,121.313868 354.311097,121.508526 C357.416892,121.703185 357.562213,125.181654 357.562213,125.181654" id="Fill-131" fill="#77482E"></path>
                    <path d="M374.238036,126.246184 L367.303224,125.811164 C367.303224,125.811164 367.881125,122.378397 370.98692,122.573056 C374.092716,122.767715 374.238036,126.246184 374.238036,126.246184" id="Fill-133" fill="#77482E"></path>
                    <polygon id="Fill-135" fill="#DAEFF0" points="195.073859 105.385021 128.640591 250.004679 144.838717 250.004679 231.140288 105.385021"></polygon>
                    <polygon id="Fill-137" fill="#DAEFF0" points="241.460721 105.385021 155.358543 250.004679 160.399123 250.004679 248.366807 105.385021"></polygon>
                    <path d="M118.640708,297.095018 C118.640708,288.868567 124.580246,282.04366 132.395427,280.653965 C131.440708,280.484696 130.464021,280.37975 129.461988,280.37975 C120.245988,280.37975 112.775519,287.863112 112.775519,297.095018 C112.775519,306.326925 120.245988,313.810287 129.461988,313.810287 C130.464021,313.810287 131.440708,313.705341 132.395427,313.536072 C124.580246,312.146377 118.640708,305.32147 118.640708,297.095018" id="Fill-139" fill="#BCD3ED"></path>
                    <path d="M207.289199,297.095018 C207.289199,288.868567 213.228737,282.04366 221.043918,280.653965 C220.090888,280.484696 219.114202,280.37975 218.112169,280.37975 C208.896169,280.37975 201.4257,287.863112 201.4257,297.095018 C201.4257,306.326925 208.896169,313.810287 218.112169,313.810287 C219.114202,313.810287 220.090888,313.705341 221.043918,313.536072 C213.228737,312.146377 207.289199,305.32147 207.289199,297.095018" id="Fill-141" fill="#BCD3ED"></path>
                    <path d="M517.707533,108.980454 C517.707533,111.363755 515.776127,113.298494 513.396932,113.298494 C511.016048,113.298494 509.084642,111.363755 509.084642,108.980454 C509.084642,106.59546 511.016048,104.66072 513.396932,104.66072 C515.776127,104.66072 517.707533,106.59546 517.707533,108.980454" id="Fill-143" fill="#FBBB6A"></path>
                    <path d="M561.794957,122.996228 C561.794957,125.381221 559.865241,127.314268 557.484356,127.314268 C555.103472,127.314268 553.173756,125.381221 553.173756,122.996228 C553.173756,120.611234 555.103472,118.678187 557.484356,118.678187 C559.865241,118.678187 561.794957,120.611234 561.794957,122.996228" id="Fill-145" fill="#FBBB6A"></path>
                    <path d="M321.009468,364.762658 C309.517349,361.912176 303.187475,347.514193 306.872861,332.599942 C309.757296,320.927183 317.92564,312.429902 326.84762,310.640734 C315.537996,308.292979 303.614986,317.958213 299.995501,332.599942 C296.310115,347.514193 302.639989,361.912176 314.132108,364.762658 C316.631277,365.382181 319.16255,365.372025 321.639752,364.876068 C321.43022,364.833751 321.218999,364.815131 321.009468,364.762658" id="Fill-147" fill="#B7E4F9"></path>
                    <path d="M580.174405,364.762658 C568.680597,361.912176 562.352412,347.514193 566.037798,332.599942 C568.922234,320.927183 577.090577,312.429902 586.012557,310.640734 C574.702933,308.292979 562.778234,317.958213 559.158749,332.599942 C555.475052,347.514193 561.804927,361.912176 573.297046,364.762658 C575.794524,365.382181 578.327488,365.372025 580.804689,364.876068 C580.595158,364.833751 580.383937,364.815131 580.174405,364.762658" id="Fill-149" fill="#B7E4F9"></path>
                    <path d="M664.695974,364.885039 C653.202165,362.034557 646.87398,347.636574 650.559366,332.722323 C653.443802,321.049564 661.612145,312.552283 670.534125,310.763115 C659.224502,308.41536 647.299802,318.080594 643.680317,332.722323 C639.99662,347.636574 646.326495,362.034557 657.818614,364.885039 C660.316092,365.504562 662.849056,365.494406 665.326257,364.998449 C665.116726,364.956132 664.905505,364.937512 664.695974,364.885039" id="Fill-151" fill="#B7E4F9"></path>
                    <path d="M759.653048,86.245657 C759.653048,86.245657 781.14015,28.1002196 834.616269,44.5683562 C875.13355,57.0468332 935.284256,15.0157612 935.284256,15.0157612 L1023.50709,47.9977369 C1023.50709,47.9977369 926.99425,114.134342 872.323464,98.477002 C817.650989,82.8196617 817.968665,54.621215 766.486474,92.6457007" id="Fill-153" fill="#EDD60A"></path>
                    <path d="M725.534247,173.66118 C723.259818,173.66118 721.04622,172.486457 719.816069,170.379063 C717.97591,167.223898 719.030326,163.176687 722.171607,161.324889 C723.579184,160.481932 754.878775,141.173469 753.263356,93.0910462 C753.141692,89.433153 756.000782,86.3693923 759.652372,86.2458263 C763.275237,86.123953 766.364135,88.9879767 766.485798,92.6458699 C768.378339,148.958129 730.480201,171.809382 728.866471,172.755594 C727.817125,173.368346 726.668082,173.66118 725.534247,173.66118" id="Fill-155" fill="#E19353"></path>
                    <path d="M708.884108,109.762305 C708.884108,100.821541 701.648517,93.5734616 692.723158,93.5734616 C690.475765,93.5734616 688.338207,94.033872 686.393283,94.8632879 C682.751831,92.468138 678.397296,91.0699798 673.716636,91.0699798 C661.03661,91.0699798 650.744227,101.2938 650.595527,113.960165 C644.306207,116.177583 639.791145,122.162919 639.791145,129.219724 C639.791145,136.457647 644.537706,142.586861 651.080491,144.655323 L648.802683,145.946842 C648.802683,145.946842 645.962181,147.086019 643.971633,156.199437 C641.981085,165.30947 625.494009,165.593842 625.494009,165.593842 C625.494009,165.593842 637.04865,184.673792 666.094088,172.713276 L672.113046,154.489825 L666.023118,141.86747 C667.657125,140.562409 671.100874,140.61319 672.126564,138.776626 C673.319541,138.966207 672.469587,137.403858 673.716636,137.403858 C682.239831,137.403858 689.684953,132.781134 693.694775,125.902061 C702.163897,125.395948 708.884108,118.374689 708.884108,109.762305" id="Fill-157" fill="#7F2F1F"></path>
                    <path d="M742.890709,241.995061 C742.890709,241.995061 742.453059,236.08251 738.294537,220.993912 C734.134326,205.905314 731.119778,199.039782 731.119778,199.039782 C731.119778,199.039782 736.804161,187.521058 737.373613,177.556219 C737.941376,167.587994 715.484346,154.489994 715.484346,154.489994 L672.113046,154.489994 C672.113046,154.489994 662.895356,166.164446 666.59257,179.546817 C670.286405,192.932573 689.901244,213.434379 699.850603,215.428363 C699.850603,215.428363 689.652848,225.074977 689.651158,241.473714 L742.890709,241.995061 Z" id="Fill-159" fill="#F4C31B"></path>
                    <path d="M691.727208,104.371779 L691.358838,104.810185 C691.441637,111.208536 688.937399,126.755851 665.621967,141.035346 L672.114059,154.488809 C698.264924,154.773181 721.575287,172.713954 721.575287,172.713954 C711.056475,137.120164 691.727208,104.371779 691.727208,104.371779" id="Fill-161" fill="#E19353"></path>
                    <path d="M689.651327,241.474391 L742.890878,241.995738 C742.890878,241.995738 742.453228,236.081495 738.294706,220.992897 C734.134495,205.904299 731.119947,199.040459 731.119947,199.040459 C731.119947,199.040459 736.80433,187.521735 737.373782,177.555203 C737.941545,167.588671 715.484515,154.488979 715.484515,154.488979 L715.405096,154.488979 C717.630521,160.374446 719.739353,166.496889 721.576132,172.714123 C721.576132,172.714123 698.265769,154.77335 672.113215,154.488979 C672.113215,154.488979 662.895525,166.165123 666.592739,179.547494 C670.286574,192.931558 689.899723,213.435056 699.850772,215.427347 C699.850772,215.427347 689.651327,225.075654 689.651327,241.474391" id="Fill-163" fill="#EDD60A"></path>
                    <path d="M683.516114,141.969539 C686.03049,147.414908 692.478648,149.78636 697.914635,147.267644 C703.350622,144.747235 705.719678,138.287948 703.203612,132.842579 L699.768312,125.404919 L680.079123,134.530186 L683.516114,141.969539 Z" id="Fill-165" fill="#7F2F1F"></path>
                    <polygon id="Fill-167" fill="#FEFEFE" points="681.339522 137.423832 698.69176 129.380191 697.431192 126.487391 680.078954 134.531033"></polygon>
                    <path d="M696.425273,118.215745 L690.759477,120.578734 C690.759477,120.578734 689.882487,117.630076 692.42052,116.572148 C694.958553,115.514219 696.425273,118.215745 696.425273,118.215745" id="Fill-169" fill="#7F2F1F"></path>
                    <path d="M703.48141,206.72796 C702.334057,206.72796 701.404684,207.660629 701.404684,208.80827 C701.404684,209.957603 702.334057,210.890273 703.48141,210.890273 C704.630453,210.890273 705.558136,209.957603 705.558136,208.80827 C705.558136,207.660629 704.630453,206.72796 703.48141,206.72796 M703.48141,225.765593 C702.334057,225.765593 701.404684,226.69657 701.404684,227.847596 C701.404684,228.995237 702.334057,229.927906 703.48141,229.927906 C704.630453,229.927906 705.558136,228.995237 705.558136,227.847596 C705.558136,226.69657 704.630453,225.765593 703.48141,225.765593 M710.689964,197.209989 C709.542611,197.209989 708.611549,198.140966 708.611549,199.2903 C708.611549,200.439633 709.542611,201.372303 710.689964,201.372303 C711.837317,201.372303 712.76669,200.439633 712.76669,199.2903 C712.76669,198.140966 711.837317,197.209989 710.689964,197.209989 M684.576275,161.211648 C685.721938,161.211648 686.653001,160.280671 686.653001,159.131338 C686.653001,157.980312 685.721938,157.049335 684.576275,157.049335 C683.427232,157.049335 682.497859,157.980312 682.497859,159.131338 C682.497859,160.280671 683.427232,161.211648 684.576275,161.211648 M710.010677,182.33467 C711.15803,182.33467 712.089093,181.403693 712.089093,180.252667 C712.089093,179.105026 711.15803,178.172356 710.010677,178.172356 C708.863324,178.172356 707.932261,179.105026 707.932261,180.252667 C707.932261,181.403693 708.863324,182.33467 710.010677,182.33467 M710.010677,216.24593 C708.863324,216.24593 707.932261,217.178599 707.932261,218.327933 C707.932261,219.477266 708.863324,220.409936 710.010677,220.409936 C711.15803,220.409936 712.089093,219.477266 712.089093,218.327933 C712.089093,217.178599 711.15803,216.24593 710.010677,216.24593 M710.010677,235.283563 C708.863324,235.283563 707.932261,236.216233 707.932261,237.365566 C707.932261,238.513207 708.863324,239.445876 710.010677,239.445876 C711.15803,239.445876 712.089093,238.513207 712.089093,237.365566 C712.089093,236.216233 711.15803,235.283563 710.010677,235.283563 M703.48141,187.690326 C702.334057,187.690326 701.404684,188.622996 701.404684,189.770637 C701.404684,190.921663 702.334057,191.854333 703.48141,191.854333 C704.630453,191.854333 705.558136,190.921663 705.558136,189.770637 C705.558136,188.622996 704.630453,187.690326 703.48141,187.690326 M690.424565,206.72796 C689.277212,206.72796 688.346149,207.660629 688.346149,208.80827 C688.346149,208.828582 688.357978,208.843816 688.357978,208.862436 C689.197793,209.553052 690.029159,210.20135 690.850387,210.803946 C691.786519,210.602517 692.502981,209.806954 692.502981,208.80827 C692.502981,207.660629 691.571918,206.72796 690.424565,206.72796 M696.027839,220.166189 C696.31003,220.308375 696.615879,220.409936 696.953832,220.409936 C698.099496,220.409936 699.030558,219.477266 699.030558,218.327933 C699.030558,217.772732 698.805819,217.275083 698.454347,216.904384 C697.790268,217.688098 696.945383,218.77988 696.027839,220.166189 M716.539945,187.690326 C715.390902,187.690326 714.461529,188.622996 714.461529,189.770637 C714.461529,190.921663 715.390902,191.854333 716.539945,191.854333 C717.685608,191.854333 718.616671,190.921663 718.616671,189.770637 C718.616671,188.622996 717.685608,187.690326 716.539945,187.690326 M696.953832,235.283563 C695.806479,235.283563 694.875417,236.216233 694.875417,237.365566 C694.875417,238.513207 695.806479,239.445876 696.953832,239.445876 C698.099496,239.445876 699.030558,238.513207 699.030558,237.365566 C699.030558,236.216233 698.099496,235.283563 696.953832,235.283563 M696.953832,182.33467 C698.099496,182.33467 699.030558,181.403693 699.030558,180.252667 C699.030558,179.105026 698.099496,178.172356 696.953832,178.172356 C695.806479,178.172356 694.875417,179.105026 694.875417,180.252667 C694.875417,181.403693 695.806479,182.33467 696.953832,182.33467 M675.622189,188.375864 C674.473146,188.375864 673.543773,189.306841 673.543773,190.457867 C673.543773,191.605508 674.473146,192.538178 675.622189,192.538178 C676.767852,192.538178 677.698915,191.605508 677.698915,190.457867 C677.698915,189.306841 676.767852,188.375864 675.622189,188.375864 M690.424565,187.690326 C689.277212,187.690326 688.346149,188.622996 688.346149,189.770637 C688.346149,190.921663 689.277212,191.854333 690.424565,191.854333 C691.571918,191.854333 692.502981,190.921663 692.502981,189.770637 C692.502981,188.622996 691.571918,187.690326 690.424565,187.690326 M696.953832,163.298729 C698.099496,163.298729 699.030558,162.36606 699.030558,161.216726 C699.030558,160.835872 698.900446,160.497335 698.72471,160.192652 C697.928829,159.876119 697.11774,159.569743 696.294822,159.268445 C695.475284,159.546046 694.875417,160.300983 694.875417,161.216726 C694.875417,162.36606 695.806479,163.298729 696.953832,163.298729 M703.48141,168.654386 C702.334057,168.654386 701.404684,169.585363 701.404684,170.734696 C701.404684,171.88403 702.334057,172.8167 703.48141,172.8167 C704.630453,172.8167 705.558136,171.88403 705.558136,170.734696 C705.558136,169.585363 704.630453,168.654386 703.48141,168.654386 M690.424565,168.654386 C689.277212,168.654386 688.346149,169.585363 688.346149,170.734696 C688.346149,171.88403 689.277212,172.8167 690.424565,172.8167 C691.571918,172.8167 692.502981,171.88403 692.502981,170.734696 C692.502981,169.585363 691.571918,168.654386 690.424565,168.654386 M697.633119,197.209989 C696.484077,197.209989 695.554704,198.140966 695.554704,199.2903 C695.554704,200.439633 696.484077,201.372303 697.633119,201.372303 C698.780473,201.372303 699.711535,200.439633 699.711535,199.2903 C699.711535,198.140966 698.780473,197.209989 697.633119,197.209989 M736.124367,182.33467 C736.338968,182.33467 736.534981,182.273733 736.729304,182.212796 C736.959113,180.987292 737.131469,179.758403 737.239615,178.543054 C736.911799,178.328083 736.54343,178.172356 736.124367,178.172356 C734.977014,178.172356 734.047641,179.105026 734.047641,180.252667 C734.047641,181.403693 734.977014,182.33467 736.124367,182.33467 M729.5951,225.765593 C728.447747,225.765593 727.518374,226.69657 727.518374,227.847596 C727.518374,228.995237 728.447747,229.927906 729.5951,229.927906 C730.744143,229.927906 731.675205,228.995237 731.675205,227.847596 C731.675205,226.69657 730.744143,225.765593 729.5951,225.765593 M729.5951,187.690326 C728.447747,187.690326 727.518374,188.622996 727.518374,189.770637 C727.518374,190.921663 728.447747,191.854333 729.5951,191.854333 C730.744143,191.854333 731.675205,190.921663 731.675205,189.770637 C731.675205,188.622996 730.744143,187.690326 729.5951,187.690326 M736.124367,220.409936 C736.842519,220.409936 737.445766,220.022311 737.817516,219.465418 C737.521806,218.409182 737.231166,217.390185 736.947284,216.420276 C736.693819,216.310252 736.416697,216.24593 736.124367,216.24593 C734.977014,216.24593 734.047641,217.178599 734.047641,218.327933 C734.047641,219.477266 734.977014,220.409936 736.124367,220.409936 M684.576275,197.209989 C683.428921,197.209989 682.497859,198.140966 682.497859,199.2903 C682.497859,200.439633 683.428921,201.372303 684.576275,201.372303 C685.721938,201.372303 686.653001,200.439633 686.653001,199.2903 C686.653001,198.140966 685.721938,197.209989 684.576275,197.209989 M723.067522,163.298729 C724.216565,163.298729 725.144248,162.36606 725.144248,161.216726 C725.144248,161.182873 725.12735,161.152404 725.125661,161.120243 C724.268948,160.453325 723.422374,159.818568 722.606215,159.227821 C721.686981,159.442792 720.989106,160.229891 720.989106,161.216726 C720.989106,162.36606 721.920169,163.298729 723.067522,163.298729 M729.5951,206.72796 C728.447747,206.72796 727.518374,207.660629 727.518374,208.80827 C727.518374,209.957603 728.447747,210.890273 729.5951,210.890273 C730.744143,210.890273 731.675205,209.957603 731.675205,208.80827 C731.675205,207.660629 730.744143,206.72796 729.5951,206.72796 M723.067522,235.283563 C721.920169,235.283563 720.989106,236.216233 720.989106,237.365566 C720.989106,238.513207 721.920169,239.445876 723.067522,239.445876 C724.216565,239.445876 725.144248,238.513207 725.144248,237.365566 C725.144248,236.216233 724.216565,235.283563 723.067522,235.283563 M736.124367,235.283563 C734.977014,235.283563 734.047641,236.216233 734.047641,237.365566 C734.047641,238.513207 734.977014,239.445876 736.124367,239.445876 C737.27172,239.445876 738.202783,238.513207 738.202783,237.365566 C738.202783,236.216233 737.27172,235.283563 736.124367,235.283563 M716.539945,206.72796 C715.390902,206.72796 714.461529,207.660629 714.461529,208.80827 C714.461529,209.957603 715.390902,210.890273 716.539945,210.890273 C717.685608,210.890273 718.616671,209.957603 718.616671,208.80827 C718.616671,207.660629 717.685608,206.72796 716.539945,206.72796 M715.752512,168.813498 C714.995496,169.12326 714.461529,169.864656 714.461529,170.734696 C714.461529,171.88403 715.390902,172.8167 716.539945,172.8167 C717.685608,172.8167 718.616671,171.88403 718.616671,170.734696 C718.616671,170.704228 718.599773,170.678838 718.598083,170.650062 C717.798822,170.111788 716.844103,169.492265 715.752512,168.813498 M723.067522,182.33467 C724.216565,182.33467 725.144248,181.403693 725.144248,180.252667 C725.144248,179.105026 724.216565,178.172356 723.067522,178.172356 C721.920169,178.172356 720.989106,179.105026 720.989106,180.252667 C720.989106,181.403693 721.920169,182.33467 723.067522,182.33467 M723.746809,197.209989 C722.597766,197.209989 721.670083,198.140966 721.670083,199.2903 C721.670083,200.439633 722.597766,201.372303 723.746809,201.372303 C724.894162,201.372303 725.825225,200.439633 725.825225,199.2903 C725.825225,198.140966 724.894162,197.209989 723.746809,197.209989 M729.5951,168.654386 C728.447747,168.654386 727.518374,169.585363 727.518374,170.734696 C727.518374,171.88403 728.447747,172.8167 729.5951,172.8167 C730.744143,172.8167 731.675205,171.88403 731.675205,170.734696 C731.675205,169.585363 730.744143,168.654386 729.5951,168.654386 M723.067522,216.24593 C721.920169,216.24593 720.989106,217.178599 720.989106,218.327933 C720.989106,219.477266 721.920169,220.409936 723.067522,220.409936 C724.216565,220.409936 725.144248,219.477266 725.144248,218.327933 C725.144248,217.178599 724.216565,216.24593 723.067522,216.24593 M716.539945,225.765593 C715.390902,225.765593 714.461529,226.69657 714.461529,227.847596 C714.461529,228.995237 715.390902,229.927906 716.539945,229.927906 C717.685608,229.927906 718.616671,228.995237 718.616671,227.847596 C718.616671,226.69657 717.685608,225.765593 716.539945,225.765593" id="Fill-171" fill="#FEFEFE"></path>
                    <path d="M688.577141,171.732027 C691.351741,180.200532 689.709286,188.344042 684.910342,189.921624 C680.111398,191.499207 673.972467,185.90996 671.201246,177.441455 C668.426646,168.971257 670.069101,160.82944 674.868045,159.251857 C679.666989,157.674274 685.80423,163.261829 688.577141,171.732027" id="Fill-173" fill="#E19353"></path>
                    <path d="M682.578799,235.373106 C675.573017,235.176754 668.868013,233.683806 663.225875,230.845172 C653.203855,225.806048 647.304871,217.002391 646.617135,206.057487 C644.765149,176.657234 674.430733,165.25869 675.69468,164.789816 C679.087736,163.523687 682.93365,165.114812 684.277017,168.346148 C685.617003,171.570714 683.95934,175.208295 680.574733,176.479502 C679.598046,176.853585 658.550284,185.159592 659.82099,205.344866 C660.234983,211.917564 663.453993,216.76203 669.388462,219.747927 C679.309096,224.732885 694.807657,223.63264 706.244013,217.131035 C709.373465,215.353715 713.43905,216.321931 715.323142,219.299365 C717.205545,222.276799 716.198442,226.134429 713.0673,227.915134 C703.898614,233.130298 692.913426,235.664248 682.578799,235.373106" id="Fill-175" fill="#C17F46"></path>
                    <path d="M682.177817,233.887097 C675.168655,233.887097 668.423097,232.512637 662.706609,229.687545 C652.546028,224.668733 646.403717,215.560392 645.408444,204.038282 C642.735229,173.0943 672.071308,160.19773 673.321737,159.662841 C676.677618,158.229136 680.567467,159.79487 682.000391,163.161622 C683.429935,166.521602 681.875348,170.406315 678.527916,171.848483 C677.563057,172.269962 656.755242,181.652518 658.588642,202.89572 C659.18682,209.815418 662.539321,214.829152 668.554899,217.799815 C678.612404,222.764461 694.07379,221.147947 705.322582,213.950648 C708.403031,211.985441 712.492272,212.885949 714.459163,215.968329 C716.426054,219.052402 715.523717,223.150394 712.444958,225.12068 C703.426661,230.889352 692.515823,233.887097 682.177817,233.887097" id="Fill-177" fill="#E19353"></path>
                </g>
            </g>
        </g>
    </g>
</svg>