<?xml version="1.0" encoding="UTF-8"?>
<svg width="39px" height="39px" viewBox="0 0 39 39" version="1.1" xmlns="http://www.w3.org/2000/svg" xmlns:xlink="http://www.w3.org/1999/xlink">
    <!-- Generator: Sketch 48.2 (47327) - http://www.bohemiancoding.com/sketch -->
    <title>Group 4</title>
    <desc>Created with Sketch.</desc>
    <defs></defs>
    <g id="Symbols" stroke="none" stroke-width="1" fill="none" fill-rule="evenodd">
        <g id="E-mail" transform="translate(-226.000000, 0.000000)">
            <g id="Group-4" transform="translate(226.000000, 0.000000)">
                <g id="Ellipse" fill="#FFC80A">
                    <circle id="Oval" cx="19.5" cy="19.5" r="19.5"></circle>
                </g>
                <path d="M26.98,12.528 L21.603,26.589 C21.467,26.944 21.165,27.219 20.786,27.329 C20.406,27.439 19.993,27.373 19.673,27.151 L14.647,23.656 L26.194,12.788 L13.135,22.604 L9.459,20.047 C9.123,19.814 8.948,19.424 9.002,19.03 C9.057,18.637 9.332,18.304 9.72,18.161 L26.454,12.034 C26.603,11.979 26.77,12.013 26.883,12.119 C26.996,12.226 27.034,12.385 26.98,12.528 L26.98,12.528 Z M14.351,27.9 C14.104,28.053 13.793,28.076 13.524,27.965 C13.254,27.853 13.061,27.621 13.007,27.344 L12.294,23.616 L12.263,23.453 L16.608,26.428 C16.643,26.475 15.345,27.288 14.351,27.9 L14.351,27.9 Z" id="Shape" fill="#FFFFFF"></path>
            </g>
        </g>
    </g>
</svg>