<?xml version="1.0" encoding="UTF-8"?>
<svg width="1280px" height="331px" viewBox="0 0 1280 331" version="1.1" xmlns="http://www.w3.org/2000/svg" xmlns:xlink="http://www.w3.org/1999/xlink">
    <!-- Generator: Sketch 48.2 (47327) - http://www.bohemiancoding.com/sketch -->
    <title>Landing</title>
    <desc>Created with Sketch.</desc>
    <defs>
        <rect id="path-1" x="0" y="0" width="1307" height="396"></rect>
        <polygon id="path-3" points="0 300 1280.863 300 1280.863 0 0 0"></polygon>
    </defs>
    <g id="RevelBus-Events-All" stroke="none" stroke-width="1" fill="none" fill-rule="evenodd" transform="translate(0.000000, -55.000000)">
        <g id="Landing" transform="translate(0.000000, -10.000000)">
            <g id="BG">
                <g id="1mastres">
                    <mask id="mask-2" fill="white">
                        <use xlink:href="#path-1"></use>
                    </mask>
                    <g id="Mask"></g>
                    <g id="SportingEvent" mask="url(#mask-2)">
                        <g transform="translate(-1.000000, 114.000000)" id="Page-1">
                            <g>
                                <polygon id="Fill-2" fill="#48AFD2" points="972.39 299.28 1280.39 299.28 1280.39 76.3 972.39 76.3"></polygon>
                                <g id="Group-17">
                                    <path d="M1122.7521,140.2999 C1113.1661,140.2999 1105.3221,148.1429 1105.3221,157.7289 L1105.3221,299.2799 L1140.1811,299.2799 L1140.1811,157.7289 C1140.1811,148.1429 1132.3381,140.2999 1122.7521,140.2999 Z M1178.6091,140.2999 C1169.0231,140.2999 1161.1801,148.1429 1161.1801,157.7289 L1161.1801,299.2799 L1196.0381,299.2799 L1196.0381,157.7289 C1196.0381,148.1429 1188.1951,140.2999 1178.6091,140.2999 Z M1066.8951,140.2999 C1057.3091,140.2999 1049.4651,148.1429 1049.4651,157.7289 L1049.4651,299.2799 L1084.3231,299.2799 L1084.3231,157.7289 C1084.3231,148.1429 1076.4811,140.2999 1066.8951,140.2999 Z M1234.4671,140.2999 L1234.4661,140.2999 C1224.8801,140.2999 1217.0371,148.1429 1217.0371,157.7289 L1217.0371,299.2799 L1251.8961,299.2799 L1251.8961,157.7289 C1251.8961,148.1429 1244.0531,140.2999 1234.4671,140.2999 Z M1011.0371,140.2999 C1020.6231,140.2999 1028.4671,148.1429 1028.4671,157.7289 L1028.4671,299.2799 L993.6081,299.2799 L993.6081,157.7289 C993.6081,148.1429 1001.4511,140.2999 1011.0371,140.2999 Z" id="Fill-3" fill="#389FBB"></path>
                                    <mask id="mask-4" fill="white">
                                        <use xlink:href="#path-3"></use>
                                    </mask>
                                    <g id="Clip-6"></g>
                                    <polygon id="Fill-5" fill="#389FBB" mask="url(#mask-4)" points="993.531 122.51 1280.863 122.51 1280.863 100.3 993.531 100.3"></polygon>
                                    <polygon id="Fill-7" fill="#48AFD2" mask="url(#mask-4)" points="1136.389 58.506 1280.863 58.506 1280.863 0.486 1136.389 0.486"></polygon>
                                    <polygon id="Fill-8" fill="#389FBB" mask="url(#mask-4)" points="1151.39 76.3 1170.39 76.3 1170.39 57.3 1151.39 57.3"></polygon>
                                    <path d="M1104.4542,29.4966 C1104.4542,34.5496 1108.5512,38.6446 1113.6022,38.6446 C1118.6552,38.6446 1122.7522,34.5496 1122.7522,29.4966 C1122.7522,24.4436 1118.6552,20.3476 1113.6022,20.3476 C1108.5512,20.3476 1104.4542,24.4436 1104.4542,29.4966" id="Fill-9" fill="#FEFEFE" mask="url(#mask-4)"></path>
                                    <path d="M1080.589,29.4966 C1080.589,34.5496 1084.685,38.6446 1089.737,38.6446 C1094.79,38.6446 1098.887,34.5496 1098.887,29.4966 C1098.887,24.4436 1094.79,20.3476 1089.737,20.3476 C1084.685,20.3476 1080.589,24.4436 1080.589,29.4966" id="Fill-10" fill="#FEFEFE" mask="url(#mask-4)"></path>
                                    <path d="M1056.7238,29.4966 C1056.7238,34.5496 1060.8198,38.6446 1065.8718,38.6446 C1070.9248,38.6446 1075.0208,34.5496 1075.0208,29.4966 C1075.0208,24.4436 1070.9248,20.3476 1065.8718,20.3476 C1060.8198,20.3476 1056.7238,24.4436 1056.7238,29.4966" id="Fill-11" fill="#FEFEFE" mask="url(#mask-4)"></path>
                                    <path d="M1032.8585,29.4966 C1032.8585,34.5496 1036.9545,38.6446 1042.0065,38.6446 C1047.0595,38.6446 1051.1555,34.5496 1051.1555,29.4966 C1051.1555,24.4436 1047.0595,20.3476 1042.0065,20.3476 C1036.9545,20.3476 1032.8585,24.4436 1032.8585,29.4966" id="Fill-12" fill="#FEFEFE" mask="url(#mask-4)"></path>
                                    <path d="M1104.4542,52.1695 C1104.4542,57.2225 1108.5512,61.3185 1113.6022,61.3185 C1118.6552,61.3185 1122.7522,57.2225 1122.7522,52.1695 C1122.7522,47.1165 1118.6552,43.0205 1113.6022,43.0205 C1108.5512,43.0205 1104.4542,47.1165 1104.4542,52.1695" id="Fill-13" fill="#FEFEFE" mask="url(#mask-4)"></path>
                                    <path d="M1080.589,52.1695 C1080.589,57.2225 1084.685,61.3185 1089.737,61.3185 C1094.79,61.3185 1098.887,57.2225 1098.887,52.1695 C1098.887,47.1165 1094.79,43.0205 1089.737,43.0205 C1084.685,43.0205 1080.589,47.1165 1080.589,52.1695" id="Fill-14" fill="#FEFEFE" mask="url(#mask-4)"></path>
                                    <path d="M1056.7238,52.1695 C1056.7238,57.2225 1060.8198,61.3185 1065.8718,61.3185 C1070.9248,61.3185 1075.0208,57.2225 1075.0208,52.1695 C1075.0208,47.1165 1070.9248,43.0205 1065.8718,43.0205 C1060.8198,43.0205 1056.7238,47.1165 1056.7238,52.1695" id="Fill-15" fill="#FEFEFE" mask="url(#mask-4)"></path>
                                    <path d="M1032.8585,52.1695 C1032.8585,57.2225 1036.9545,61.3185 1042.0065,61.3185 C1047.0595,61.3185 1051.1555,57.2225 1051.1555,52.1695 C1051.1555,47.1165 1047.0595,43.0205 1042.0065,43.0205 C1036.9545,43.0205 1032.8585,47.1165 1032.8585,52.1695" id="Fill-16" fill="#FEFEFE" mask="url(#mask-4)"></path>
                                </g>
                            </g>
                        </g>
                    </g>
                </g>
            </g>
            <g id="Clouds" opacity="0.301913496" transform="translate(654.000000, 162.000000)" fill="#FFFFFF">
                <g id="Shape">
                    <path d="M129.7,35.4 C128.2,23.8 118.3,14.8 106.2,14.8 C103.3,14.8 100.5,15.3 97.9,16.3 C91,6.5 79.3,0.1 66.1,0.1 C51.4,0.1 38.7,8 32.2,19.6 C29,17.7 25.3,16.6 21.3,16.6 C10.4,16.6 1.5,24.9 0.3,35.4 L129.7,35.4 L129.7,35.4 Z" fill-rule="nonzero"></path>
                </g>
            </g>
            <g id="Clouds" opacity="0.301913496" transform="translate(356.000000, 290.000000)" fill="#FFFFFF">
                <g id="Shape">
                    <path d="M244.434615,66.8666667 C241.607692,44.9555556 222.95,27.9555556 200.146154,27.9555556 C194.680769,27.9555556 189.403846,28.9 184.503846,30.7888889 C171.5,12.2777778 149.45,0.188888889 124.573077,0.188888889 C96.8692308,0.188888889 72.9346154,15.1111111 60.6846154,37.0222222 C54.6538462,33.4333333 47.6807692,31.3555556 40.1423077,31.3555556 C19.6,31.3555556 2.82692308,47.0333333 0.565384615,66.8666667 L244.434615,66.8666667 L244.434615,66.8666667 Z" fill-rule="nonzero"></path>
                </g>
            </g>
            <g id="SportsFan_2" transform="translate(472.000000, 65.000000)">
                <g stroke-width="1" fill-rule="evenodd">
                    <path d="M222.041019,168.675291 C222.041019,168.675291 239.654155,166.365988 242.541555,151.547965 C244.947721,139.327907 235.611796,143.176744 235.611796,143.176744 L212.416354,151.06686 L222.041019,168.675291 Z" id="Shape" fill="#962D43" fill-rule="nonzero"></path>
                    <path d="M194.321984,248.923547 L194.321984,248.923547 C196.535657,242.476744 193.070777,235.452616 186.622252,233.335756 L99.8077748,203.892151 C93.3592493,201.67907 86.333244,205.143023 84.2158177,211.589826 L84.2158177,211.589826 C82.0021448,218.036628 85.4670241,225.060756 91.9155496,227.177616 L178.730027,256.621221 C185.082306,258.738081 192.108311,255.274128 194.321984,248.923547 Z" id="Shape" fill="#A97136" fill-rule="nonzero"></path>
                    <path d="M192.685791,254.600581 L192.685791,254.600581 C190.664611,248.153779 194.225737,241.129651 200.674263,239.109012 L288.06622,211.397384 C294.514745,209.376744 301.540751,212.936919 303.56193,219.383721 L303.56193,219.383721 C305.58311,225.830523 302.021984,232.854651 295.573458,234.875291 L208.181501,262.586919 C201.732976,264.607558 194.706971,261.047384 192.685791,254.600581 Z" id="Shape" fill="#A97136" fill-rule="nonzero"></path>
                    <polygon id="Shape" fill="#D64558" fill-rule="nonzero" points="163.619303 238.531686 173.340214 330.615116 254.861126 330.615116 232.146917 217.747965"></polygon>
                    <path d="M256.208579,221.500581 L226.468365,230.930233 C220.019839,232.950872 216.362466,239.975 218.479893,246.421802 C220.501072,252.868605 227.527078,256.525 233.975603,254.40814 L261.694638,245.652035 L256.208579,221.500581 Z" id="Shape" fill="#D64558" fill-rule="nonzero"></path>
                    <path d="M144.837069,219.190871 L174.398928,229.102035 C180.847453,231.315116 184.312332,238.339244 182.09866,244.689826 C179.884987,251.136628 172.858981,254.600581 166.506702,252.3875 L138.980161,243.05407 L144.837069,219.190871 Z" id="Shape" fill="#D64558" fill-rule="nonzero"></path>
                    <path d="M234.456836,229.58314 L219.538606,152.02907 C216.651206,136.826163 201.732976,126.722965 186.526005,129.609593 L186.526005,129.609593 C171.319035,132.496221 161.213137,147.410465 164.100536,162.613372 L178.0563,235.260174 L219.538606,240.648547 L234.456836,229.58314 Z" id="Shape" fill="#A97136" fill-rule="nonzero"></path>
                    <path d="M185.852279,129.609593 L185.852279,129.609593 C170.645308,132.496221 160.53941,147.410465 163.42681,162.613372 L166.602949,175.603198 C186.622252,173.871221 182.09866,150.00843 182.09866,150.00843 L180.462466,138.365698 L207.411528,134.324419 C201.347989,130.090698 193.648257,128.166279 185.852279,129.609593 Z" id="Shape" fill="#764534" fill-rule="nonzero"></path>
                    <ellipse id="Oval" fill="#FFFFFF" fill-rule="nonzero" cx="215.4" cy="207.644767" rx="6.83351206" ry="12.6049419"></ellipse>
                    <path d="M31.0876676,167.809302 C30.7989276,167.809302 30.5101877,167.713081 30.2214477,167.52064 C29.5477212,167.039535 29.4514745,166.173547 29.8364611,165.5 L105.67882,56.0968023 C106.160054,55.4232558 107.026273,55.230814 107.7,55.7119186 C108.373727,56.1930233 108.469973,57.0590116 108.084987,57.7325581 L32.2426273,167.135756 C31.9538874,167.52064 31.4726542,167.809302 31.0876676,167.809302 Z" id="Shape" fill="#FFFFFF" fill-rule="nonzero"></path>
                    <polygon id="Shape" fill="#D54455" fill-rule="nonzero" points="105.005094 57.2514535 33.0126005 22.9005814 40.3273458 18.1857558 0.577479893 0.384883721 24.3504021 26.172093 17.3243968 30.0209302 62.5603217 81.8840116 55.3418231 86.5988372 72.9549598 103.533721"></polygon>
                    <path d="M286.62252,234.009302 L286.62252,234.009302 C280.847721,230.352907 279.019035,222.751453 282.676408,216.978198 L335.708311,132.015116 C339.365684,126.24186 346.969169,124.413663 352.743968,128.070058 L352.743968,128.070058 C358.518767,131.726453 360.347453,139.327907 356.69008,145.101163 L303.658177,229.968023 C300.097051,235.8375 292.397319,237.569477 286.62252,234.009302 Z" id="Shape" fill="#A97136" fill-rule="nonzero"></path>
                    <path d="M213.186327,172.235465 L222.618499,169.733721 C222.618499,169.733721 220.886059,165.211337 216.651206,166.269767 C212.416354,167.424419 213.186327,172.235465 213.186327,172.235465 Z" id="Shape" fill="#794434" fill-rule="nonzero"></path>
                    <path d="M219.249866,181.761337 L208.470241,185.610174 C208.470241,185.513953 215.303753,188.785465 219.249866,181.761337 Z" id="Shape" fill="#794434" fill-rule="nonzero"></path>
                    <path d="M169.875335,165.403779 C169.875335,165.403779 182.579893,178.008721 196.343164,178.778488 C210.106434,179.548256 222.041019,146.83314 234.745576,143.369186 L169.875335,165.403779 Z" id="Shape" fill="#D54455" fill-rule="nonzero"></path>
                    <path d="M164.485523,167.52064 L164.485523,167.52064 C159.288204,151.740407 167.950402,134.805523 183.542359,129.609593 L183.542359,129.609593 C199.03807,124.509884 215.881233,132.881105 221.174799,148.276453 L164.485523,167.52064 Z" id="Shape" fill="#AD374E" fill-rule="nonzero"></path>
                    <path d="M100.385255,225.926744 L101.251475,225.44564 C106.83378,222.077907 108.758713,214.765116 105.39008,209.088081 L58.5179625,130.860465 C55.1493298,125.279651 47.8345845,123.355233 42.1560322,126.722965 L42.1560322,126.722965 C36.0924933,130.37936 34.0713137,138.269477 37.7286863,144.427616 L84.0233244,221.789244 C87.3919571,227.466279 94.7067024,229.294477 100.385255,225.926744 Z" id="Shape" fill="#A97136" fill-rule="nonzero"></path>
                </g>
                <text id="STATE" transform="translate(215.464926, 262.148595) rotate(-8.000000) translate(-215.464926, -262.148595) " font-family="UnitedSansSemiCond-Black, United Sans SemiCond" font-size="18" font-style="condensed" font-weight="700" fill="#FFFFFF">
                    <tspan x="190.839691" y="269.148595">STATE</tspan>
                </text>
                <polygon id="Path-2" fill="#FFFFFF" fill-rule="evenodd" points="142.65746 218.421512 146.476622 219.720745 139.510332 243.307401 135.707775 242.133456"></polygon>
                <polygon id="Path-2-Copy" fill="#FFFFFF" fill-rule="evenodd" points="149.610829 220.774848 153.350305 222.043442 146.390738 245.657747 142.721342 244.419644"></polygon>
                <polygon id="Path-2-Copy" fill="#FFFFFF" fill-rule="evenodd" transform="translate(260.274831, 232.923078) rotate(-31.000000) translate(-260.274831, -232.923078) " points="261.974346 220.403838 265.728845 221.295948 258.681197 245.442318 254.820817 244.552351"></polygon>
                <polygon id="Path-2-Copy-2" fill="#FFFFFF" fill-rule="evenodd" transform="translate(253.407341, 235.350270) rotate(-31.000000) translate(-253.407341, -235.350270) " points="255.058419 223.035007 258.737046 223.918192 251.858884 247.665534 248.077637 246.762729"></polygon>
            </g>
            <g id="SportsFan" transform="translate(757.000000, 91.000000)" fill-rule="nonzero">
                <path d="M43.9612087,301.140635 C43.40874,300.863818 30.1494919,293.297473 18.6397278,280.287052 C2.06566759,261.555735 -3.0907067,240.794424 3.72307362,220.217658 C16.4298531,182.016846 54.2739573,173.989139 72.5054235,175.096409 L71.6767205,188.014558 L70.9400956,201.02498 C69.5589239,200.932707 37.7919752,199.733165 28.2158515,228.42991 C24.4406489,239.871699 27.4792266,251.036671 37.5157409,262.570733 C46.0790053,272.44389 56.483832,278.441602 56.5759101,278.441602 L43.9612087,301.140635 Z" id="Shape" fill="#FDBC6A"></path>
                <path d="M208.356278,87.5 C189.572343,159.380272 123.920649,189.092015 123.184024,189.368833 L133.404695,212.990591 C136.443272,211.698776 207.435497,171.375697 233.677759,97.8345193 L208.356278,87.5 Z" id="Shape" fill="#FDBC6A"></path>
                <path d="M159.094488,165 C140.218475,181.516776 123.552337,189.083121 123.184024,189.175393 L133.404695,212.797152 C134.970022,212.151244 154.214348,203.569902 175.944782,184.746314 L159.094488,165 Z" id="Shape" fill="#D54455"></path>
                <path d="M17.0356987,197.056735 L35.4513212,215.418961 C48.434335,200.194 69.7964571,201.024452 70.9013944,201.024452 L71.6380193,188.014031 L72.4667223,175.095882 C58.7470836,174.265429 33.8859933,178.602236 17.0356987,197.056735 Z" id="Shape" fill="#C2384C"></path>
                <path d="M83.4642183,167.5 C83.4642183,167.5 58.9714404,173.313167 51.3289571,202.563548 C41.6607553,239.749362 35.7677561,304.616925 35.7677561,304.616925 L127.017165,304.709198 L134.199258,212.805794 L127.201322,183.186324 L83.4642183,167.5 Z" id="Shape" fill="#D54455"></path>
                <path d="M88.1888149,97.5 C88.1888149,97.5 86.9917994,104.697254 93.0689548,114.293594 L86.1630964,132.563548 C86.1630964,132.563548 78.7968474,136.71581 86.8076432,141.421707 L71.9830671,185.158869 C71.9830671,185.158869 81.1908784,197.062021 96.0154544,200.75292 C110.840031,204.44382 124.375513,198.53838 124.375513,198.53838 L140.212948,160.337568 C140.212948,160.337568 151.3544,135.793085 151.906869,128.688103 C151.906869,128.688103 146.566338,127.949923 143.803995,130.533553 C143.803995,130.533553 146.750494,115.493136 131.557606,110.141332 C116.456795,104.789527 101.079751,104.789527 88.1888149,97.5 Z" id="Shape" fill="#FDBC6A"></path>
                <path d="M144.811201,150.833501 C149.875497,144.005337 152.085372,132.840365 152.453684,128.688103 C152.453684,128.688103 147.113154,127.949923 144.35081,130.533553 C144.35081,130.533553 147.29731,115.493136 132.104421,110.141332 C116.911533,104.789527 101.534488,104.789527 88.6435523,97.5 C88.6435523,97.5 87.4465369,104.697254 93.5236923,114.293594 L87.4465369,130.625825 C87.4465369,130.625825 86.9861463,133.947635 89.6564116,131.825368 C93.9840829,128.411285 97.5751292,118.999491 97.5751292,118.999491 C97.5751292,118.999491 116.266986,139.29944 139.931061,138.745805 C139.931061,138.745805 137.813264,145.020334 138.641967,152.863496 L144.811201,150.833501 Z" id="Shape" fill="#CD892A"></path>
                <path d="M121.330255,178.990848 C118.199599,188.218098 108.163085,193.200812 98.9552734,190.063548 C89.7474622,186.926283 84.7752441,176.868581 87.9058999,167.641332 L92.2335712,155 L125.657926,166.441789 L121.330255,178.990848 Z" id="Shape" fill="#7F2F20"></path>
                <rect id="Rectangle-path" fill="#FFFFFF" transform="translate(110.277649, 164.451162) rotate(18.771958) translate(-110.277649, -164.451162) " x="94.716561" y="161.083241" width="31.122176" height="6.73584313"></rect>
                <path d="M109.084663,143.165736 L100.705555,140.582106 C100.705555,140.582106 102.455039,136.522116 106.230242,137.721658 C110.005445,138.828928 109.084663,143.165736 109.084663,143.165736 Z" id="Shape" fill="#3C6FB6"></path>
                <path d="M130.130172,151.019573 L121.93522,147.790036 C121.93522,147.790036 123.960939,143.914591 127.644063,145.298678 C131.327188,146.775038 130.130172,151.019573 130.130172,151.019573 Z" id="Shape" fill="#3C6FB6"></path>
                <polygon id="Shape" fill="#FFFFFF" points="65.4110253 244.166751 71.5802588 244.997203 74.2505241 225.158617 68.0812905 224.328165 69.0020717 217.5 84.3791164 219.622267 80.78807 246.38129 87.0493817 247.211743 86.1286006 254.039907 64.4902442 251.087188"></polygon>
                <polygon id="Shape" fill="#FFFFFF" points="90.3871018 247.916751 96.5563354 248.747203 99.2266006 228.908617 93.0573671 228.078165 93.9781482 221.25 109.355193 223.372267 105.764147 250.13129 112.025458 250.961743 111.104677 257.789907 89.4663207 254.837188"></polygon>
                <path d="M180.784947,96.7223647 L218.352817,6.20304846 C220.470614,1.12806131 226.271535,-1.36329601 231.427909,0.758971338 C236.492205,2.88123869 238.978314,8.69440578 236.860518,13.8616654 L218.076583,59.9979122 L248.830672,72.5469713 C258.590952,76.5146886 263.286936,87.7719328 259.235499,97.5528171 L248.278203,124.496385 C244.318845,134.27727 233.085315,138.983167 223.325035,134.923177 L191.281852,121.820483 C181.521572,117.668221 176.825588,106.503249 180.784947,96.7223647 Z" id="Shape" fill="#D54455"></path>
                <path d="M109.447182,150 L119.667852,153.506355 C119.667852,153.506355 113.222385,156.64362 109.447182,150 Z" id="Shape" fill="#C27F47"></path>
                <ellipse id="Oval" fill="#FDBC6A" cx="87.4061064" cy="136.694077" rx="5.43260863" ry="5.44407712"></ellipse>
                <ellipse id="Oval" fill="#FDBC6A" cx="143.602279" cy="154.194077" rx="5.43260863" ry="5.44407712"></ellipse>
            </g>
        </g>
    </g>
</svg>