<?xml version="1.0" encoding="UTF-8"?>
<svg width="1284px" height="314px" viewBox="0 0 1284 314" version="1.1" xmlns="http://www.w3.org/2000/svg" xmlns:xlink="http://www.w3.org/1999/xlink">
    <!-- Generator: Sketch 48.2 (47327) - http://www.bohemiancoding.com/sketch -->
    <title>Group 2</title>
    <desc>Created with Sketch.</desc>
    <defs>
        <rect id="path-1" x="0" y="0" width="1307" height="315"></rect>
    </defs>
    <g id="Page-1" stroke="none" stroke-width="1" fill="none" fill-rule="evenodd">
        <g id="Group-2" transform="translate(0.000000, -2.000000)">
            <g id="golfers">
                <g id="Landing">
                    <g id="BG">
                        <g id="1mastres">
                            <g id="GolfCourse-Clipped">
                                <mask id="mask-2" fill="white">
                                    <use xlink:href="#path-1"></use>
                                </mask>
                                <g id="path-1"></g>
                                <g id="GolfCourse" mask="url(#mask-2)">
                                    <g transform="translate(-2.000000, 106.590909)" id="Group">
                                        <g>
                                            <g fill-rule="nonzero">
                                                <path d="M1284.90445,103.329545 C1284.90445,103.329545 1105.38469,49.7954545 895.794609,121.784091 C742.436016,174.443182 586.170625,184.227273 440.429844,170.386364 C322.955156,159.25 204.277656,92.1931818 0,119.238636 L0,209.204545 L1285.00469,209.204545 L1285.00469,103.329545 L1284.90445,103.329545 Z" id="Shape" fill="#85BB41"></path>
                                                <ellipse id="Oval" fill="#A9D377" cx="1118.11445" cy="125.204545" rx="149.449453" ry="31.4204545"></ellipse>
                                                <ellipse id="Oval" fill="#6B9A34" cx="1189.88227" cy="114.386364" rx="24.2567188" ry="5.09090909"></ellipse>
                                                <ellipse id="Oval" fill="#6B9A34" cx="1120.41984" cy="118.045455" rx="5.41265625" ry="1.43181818"></ellipse>
                                                <ellipse id="Oval" fill="#FFFFFF" cx="1115.00719" cy="115.420455" rx="4.71101562" ry="3.73863636"></ellipse>
                                                <path d="M1192.78906,113.511364 L1192.68883,113.511364 C1192.18766,113.431818 1191.78672,113.034091 1191.78672,112.636364 L1210.12961,0.795454545 C1210.22984,0.397727273 1210.73102,0.0795454545 1211.23219,0.0795454545 C1211.73336,0.159090909 1212.1343,0.556818182 1212.1343,0.954545455 L1193.79141,112.875 C1193.69117,113.272727 1193.29023,113.511364 1192.78906,113.511364 Z" id="Shape" fill="#FFFFFF"></path>
                                                <polygon id="Shape" fill="#D54455" points="1209.5282 0.954545455 1167.12906 4.53409091 1169.23398 1.35227273 1146.58102 3.18181818 1164.0218 7.47727273 1161.91688 10.3409091 1195.99656 19.5681818 1193.89164 22.8295455 1205.41859 25.8522727"></polygon>
                                            </g>
                                        </g>
                                    </g>
                                </g>
                            </g>
                        </g>
                    </g>
                    <g id="Clouds" opacity="0.310745018" transform="translate(283.000000, 126.477273)" fill="#FFFFFF" fill-rule="nonzero">
                        <g id="Shape">
                            <path d="M129.7,28.1590909 C128.2,18.9318182 118.3,11.7727273 106.2,11.7727273 C103.3,11.7727273 100.5,12.1704545 97.9,12.9659091 C91,5.17045455 79.3,0.0795454545 66.1,0.0795454545 C51.4,0.0795454545 38.7,6.36363636 32.2,15.5909091 C29,14.0795455 25.3,13.2045455 21.3,13.2045455 C10.4,13.2045455 1.5,19.8068182 0.3,28.1590909 L129.7,28.1590909 Z"></path>
                        </g>
                    </g>
                    <g id="Clouds" opacity="0.3203125" transform="translate(1086.000000, 140.795455)" fill="#FFFFFF" fill-rule="nonzero">
                        <g id="Shape">
                            <path d="M74.8269231,16.4261364 C73.9615385,11.0435606 68.25,6.86742424 61.2692308,6.86742424 C59.5961538,6.86742424 57.9807692,7.09943182 56.4807692,7.56344697 C52.5,3.01609849 45.75,0.0464015151 38.1346154,0.0464015151 C29.6538462,0.0464015151 22.3269231,3.71212121 18.5769231,9.09469694 C16.7307692,8.21306818 14.5961538,7.70265151 12.2884615,7.70265151 C6,7.70265151 0.865384615,11.5539773 0.173076923,16.4261364 L74.8269231,16.4261364 Z"></path>
                        </g>
                    </g>
                    <g id="Clouds" opacity="0.301573822" transform="translate(391.000000, 185.340909)" fill="#FFFFFF" fill-rule="nonzero">
                        <g id="Shape">
                            <path d="M244.434615,53.189394 C241.607692,35.760101 222.95,22.2373738 200.146154,22.2373738 C194.680769,22.2373738 189.403846,22.9886364 184.503846,24.4911616 C171.5,9.76641416 149.45,0.150252525 124.573077,0.150252525 C96.8692308,0.150252525 72.9346154,12.020202 60.6846154,29.4494949 C54.6538462,26.5946969 47.6807692,24.9419192 40.1423077,24.9419192 C19.6,24.9419192 2.82692308,37.4128788 0.565384615,53.189394 L244.434615,53.189394 Z"></path>
                        </g>
                    </g>
                </g>
                <g id="GolfFan/Woman" transform="translate(565.000000, 57.000000)" fill-rule="nonzero">
                    <g id="GolfFan">
                        <g id="Group">
                            <path d="M191.109193,37.120683 C191.109193,37.120683 189.615451,20.4195028 209.034096,13.9109546 C228.452741,7.40240644 249.614085,14.5249686 267.41451,0.157041493 L314.46738,22.8755587 C314.46738,22.8755587 294.177386,38.5943166 263.431198,37.3662886 C232.68501,36.1382606 203.059129,23.7351783 191.109193,51.6114129 L191.109193,37.120683 Z" id="Shape" fill="#794199"></path>
                            <ellipse id="Oval" fill="#C05427" cx="98.9951081" cy="94.4695886" rx="20.0410374" ry="22.1045032"></ellipse>
                            <path d="M144.554237,161.028704 C141.317796,161.028704 138.081355,159.309465 136.338656,156.362198 C133.724608,151.941297 135.21835,146.169566 139.699575,143.467904 C141.691231,142.239876 186.752446,114.854853 184.511833,46.6993011 C184.387355,41.5415837 188.495145,37.120683 193.723242,36.9978802 C198.951338,36.8750774 203.432564,40.9275697 203.557043,46.0852871 C206.295569,125.907104 151.773989,158.327042 149.408898,159.677873 C147.790678,160.660295 146.172457,161.028704 144.554237,161.028704 Z" id="Shape" fill="#E2A369"></path>
                            <path d="M88.1654792,49.4009626 C82.9373825,45.9624843 76.7134578,43.9976396 69.8671407,43.9976396 C51.5688022,43.9976396 36.7558614,58.4883695 36.6313829,76.4175776 C27.5444529,79.6104503 21.0715713,88.0838432 21.0715713,98.0308697 C21.0715713,108.346305 27.9178884,116.9425 37.3782539,119.889767 L34.1418131,121.731809 C34.1418131,121.731809 30.0340228,123.328246 27.1710175,136.222539 C24.3080121,149.116833 0.532619873,149.485241 0.532619873,149.485241 C0.532619873,149.485241 17.212738,176.501856 58.9130333,159.55507 L67.6265278,133.766483 L58.9130333,115.837275 C61.2781246,113.995233 66.2572644,114.118036 67.7510063,111.416374 C69.4937052,111.66198 68.2489203,109.45153 69.9916192,109.45153 C82.31499,109.45153 93.0201404,102.942982 98.7461511,93.1187579 C110.820565,92.6275467 93.3935759,52.5938353 88.1654792,49.4009626 Z" id="Shape" fill="#BD4627"></path>
                            <path d="M169.449935,257.92011 C169.449935,257.92011 168.827543,249.56952 162.852575,228.201833 C156.877608,206.834147 152.52086,197.132726 152.52086,197.132726 C152.52086,197.132726 160.736441,180.799954 161.483312,166.677632 C162.354661,152.555311 129.990253,134.012089 129.990253,134.012089 L67.5020493,134.012089 C67.5020493,134.012089 54.1828505,150.590466 59.5354257,169.502097 C64.8880009,188.413727 93.1446189,217.51799 107.459646,220.342454 C107.459646,220.342454 92.7711835,233.973565 92.7711835,257.306096 L169.449935,257.92011 Z" id="Shape" fill="#794199"></path>
                            <path d="M95.8831458,62.9092701 L95.3852318,63.5232841 C95.5097103,72.610691 63.892173,77.4 50.8219312,101.960559 L67.6265278,133.889286 C105.219033,134.257694 138.828226,159.677873 138.828226,159.677873 C123.64185,109.328727 95.8831458,62.9092701 95.8831458,62.9092701 Z" id="Shape" fill="#E2A369"></path>
                            <ellipse id="Oval" fill="#E2A369" transform="translate(78.838368, 162.366125) rotate(-18.161363) translate(-78.838368, -162.366125) " cx="78.8383679" cy="162.366125" rx="13.1949639" ry="22.8417418"></ellipse>
                            <path d="M73.974931,141.503059 C79.9498986,141.503059 86.7962158,148.871227 90.1571351,158.695451 C92.0243125,164.344379 92.5222265,169.993308 91.5263985,174.659814 C90.6550491,179.080715 88.5389147,182.027982 85.6759093,183.010404 C85.0535169,183.25601 84.3066459,183.378813 83.6842534,183.378813 C77.7092858,183.378813 70.8629686,176.010645 67.5020493,166.186421 C63.7676945,155.011367 65.8838289,143.959115 71.9832751,141.994271 C72.6056675,141.625862 73.22806,141.503059 73.974931,141.503059 Z M73.974931,140.275031 C73.1035815,140.275031 72.3567105,140.397834 71.6098396,140.64344 C64.7635224,142.85389 62.3984311,154.397353 66.3817429,166.432027 C69.8671407,177.11587 77.2113718,184.484038 83.6842534,184.484038 C84.5556029,184.484038 85.3024739,184.361235 86.0493448,184.115629 C92.8956619,181.905179 95.2607533,170.361716 91.2774415,158.327042 C87.7920437,147.766002 80.4478126,140.275031 73.974931,140.275031 Z" id="Shape" fill="#84D4F6"></path>
                            <path d="M83.5597749,251.165956 C73.477017,250.92035 63.7676945,248.7099 55.6765924,244.780211 C41.2370872,237.657648 32.7725497,225.131763 31.7767217,209.658611 C29.1626733,168.028463 71.8587966,151.818494 73.6014955,151.20448 C78.4561567,149.362438 80.6967696,144.327524 82.6884255,148.871227 C84.6800814,153.414931 87.4186082,159.800676 81.4436406,164.221577 C80.1988556,165.081196 48.9547538,180.063137 50.8219312,208.676189 C51.4443237,218.009201 56.0500279,224.886158 64.639044,229.061453 C78.9540707,236.184015 101.235721,234.587579 117.666882,225.377369 C122.148108,222.79851 127.998597,224.272144 130.737124,228.447439 C133.475651,232.622734 131.981909,238.14886 127.500683,240.604916 C114.305963,248.095886 98.4971941,251.657167 83.5597749,251.165956 Z" id="Shape" fill="#C27F47"></path>
                            <path d="M83.061861,249.078308 C72.979103,249.078308 63.2697805,247.113464 55.0542,243.183774 C40.4902162,236.061212 31.5277647,223.166919 30.1585013,206.834147 C26.299668,162.993549 68.4978772,144.695932 70.3650546,143.959115 C75.2197159,141.871468 80.8212481,144.081918 82.812904,148.871227 C84.9290384,153.660536 82.6884255,159.186662 77.8337642,161.151507 C76.4645008,161.765521 46.4651839,175.028223 49.0792323,205.114908 C49.9505817,214.939131 54.805243,222.061693 63.394259,226.236988 C77.8337642,233.236748 100.115415,231.026297 116.297619,220.833665 C120.778844,218.009201 126.629334,219.360032 129.492339,223.65813 C132.355344,228.07903 130.986081,233.850762 126.629334,236.675226 C113.559092,244.903013 97.8748017,249.078308 83.061861,249.078308 Z" id="Shape" fill="#E2A369"></path>
                            <path d="M84.0576889,116.205683 C87.6675652,123.94226 97.0034522,127.257935 104.845597,123.696654 C112.687742,120.135373 116.048662,110.925163 112.438785,103.188587 L107.459646,92.6275467 L79.0785492,105.644643 L84.0576889,116.205683 Z" id="Shape" fill="#C27F47"></path>
                            <polygon id="Shape" fill="#FFFFFF" points="80.8212481 109.697135 105.841425 98.2764753 104.098726 94.223983 79.0785492 105.644643"></polygon>
                            <path d="M82.9373825,90.9083075 L74.7218019,94.223983 C74.7218019,94.223983 73.477017,90.048688 77.0868933,88.5750544 C80.8212481,86.9786181 82.9373825,90.9083075 82.9373825,90.9083075 Z" id="Shape" fill="#419162"></path>
                            <ellipse id="Oval" fill="#E2A369" transform="translate(57.303414, 104.699344) rotate(-39.925145) translate(-57.303414, -104.699344) " cx="57.3034142" cy="104.699344" rx="8.96264354" ry="6.8771039"></ellipse>
                            <path d="M67.6265278,86.9786181 C68.9957912,86.9786181 85.6759093,88.82066 104.347683,78.628028 C99.1195866,68.8038043 95.6341888,62.9092701 95.6341888,62.9092701 L95.1362748,63.5232841 C95.2607533,72.4878882 64.2656085,77.4 50.9464097,101.346545 C51.9422376,100.486926 57.7927268,94.837997 67.6265278,86.9786181 Z" id="Shape" fill="#C27F47"></path>
                            <path d="M103.102898,82.5577174 L94.8873178,85.8733929 C94.8873178,85.8733929 93.6425329,81.6980979 97.2524092,80.2244643 C100.986764,78.628028 103.102898,82.5577174 103.102898,82.5577174 Z" id="Shape" fill="#419162"></path>
                            <path d="M88.5389147,93.8555746 L97.0034522,89.9258852 C97.0034522,89.9258852 95.7586673,96.6800389 88.5389147,93.8555746 Z" id="Shape" fill="#C27F47"></path>
                            <path d="M65.7593504,136.590948 C75.7176299,136.222539 113.68357,141.871468 142.189145,166.309224 C142.189145,166.309224 139.948532,152.800917 133.351172,135.976934 C130.861602,134.380497 129.990253,133.889286 129.990253,133.889286 L129.865774,133.889286 C133.102215,142.239876 136.089699,150.958875 138.703748,159.677873 C138.703748,159.677873 105.094554,134.257694 67.5020493,133.889286 C67.6265278,133.889286 66.8796568,134.871708 65.7593504,136.590948 Z" id="Shape" fill="#84D4F6"></path>
                            <path d="M122.646022,64.9969176 L98.3727157,66.593354 C98.3727157,66.593354 96.5055383,57.3831443 91.0284845,52.5938353 C91.0284845,52.5938353 66.5062214,57.0147359 46.2162269,91.0311103 L51.0708882,101.346545 C51.0708882,101.346545 55.9255494,94.3467858 66.8796568,85.7505901 C68.4978772,85.8733929 99.1195866,86.6102097 122.646022,64.9969176 Z" id="Shape" fill="#794199"></path>
                        </g>
                    </g>
                </g>
                <g id="GolfFan/Man" transform="translate(797.000000, 0.000000)" fill-rule="nonzero">
                    <g id="GolfFan_Man">
                        <g id="Group">
                            <path d="M60.6544605,310.439485 C59.8310968,310.032618 41.5798678,299.860944 25.6615025,282.365665 C2.74454573,257.139914 -4.52850045,229.066094 4.80295502,201.127897 C22.0935931,149.184549 73.9655073,138.199142 99.0781007,139.555365 L98.1175097,157.186266 L97.1569187,174.817167 C95.372964,174.681545 51.5974597,173.325322 38.6980947,212.248927 C33.4834579,227.709871 37.7375037,242.899571 51.7346869,258.496137 C63.5362336,271.787124 77.9450986,279.788841 78.0823259,279.924464 L60.6544605,310.439485 Z" id="Shape" fill="#FDBC6A"></path>
                            <path d="M292.29412,14.3759657 C267.044299,112.024034 176.062608,152.032618 175.239245,152.439485 L189.510882,184.446352 C193.627701,182.683262 284.883846,135.079828 323.307487,24.4120172 L292.29412,14.3759657 Z" id="Shape" fill="#FDBC6A"></path>
                            <path d="M245.499615,143.35279 L224.366613,119.347639 C215.172385,127.349356 206.389839,133.859227 198.705111,138.877253 C197.470065,139.555365 186.491882,145.387124 172.631926,142.8103 C135.992241,132.23176 113.898648,132.367382 102.783237,133.99485 C83.9830992,132.909871 46.1083682,144.573391 22.9169568,169.663519 L48.3040048,194.482403 C54.3420054,187.430043 61.7522788,182.818884 69.025325,179.970815 C56.2631874,230.693562 48.8529139,315.593133 48.8529139,315.593133 L173.866972,315.457511 L189.785337,190.956223 C189.785337,190.956223 190.471473,188.108155 191.020383,183.76824 C198.018974,180.24206 223.817704,166.951073 245.499615,143.35279 Z" id="Shape" fill="#37715B"></path>
                            <ellipse id="Oval" fill="#FDBC6A" transform="translate(160.683582, 110.387816) rotate(-3.423729) translate(-160.683582, -110.387816) " cx="160.683582" cy="110.387816" rx="7.54738597" ry="7.45911403"></ellipse>
                            <path d="M109.095693,33.6343348 C109.095693,33.6343348 96.6080096,41.6360515 107.037283,53.0283262 C107.037283,53.0283262 102.920465,80.695279 102.920465,86.5270386 L99.4897826,143.624034 C99.4897826,143.624034 110.605193,163.696137 131.46374,165.187983 C152.322288,166.679828 165.633335,156.779399 165.633335,156.779399 L181.963382,103.479828 C181.963382,103.479828 191.15761,68.0824034 190.334246,58.4532189 C190.334246,58.4532189 182.923973,58.7244635 179.767745,62.793133 C179.767745,62.793133 180.179427,42.0429185 158.360288,38.5167382 C136.54115,34.7193133 128.44474,40.2798283 109.095693,33.6343348 Z" id="Shape" fill="#FDBC6A"></path>
                            <path d="M185.256837,89.6463519 C187.864155,78.6609442 190.745928,64.0137339 190.334246,58.3175966 C190.334246,58.3175966 182.923973,58.5888412 179.767745,62.6575107 C179.767745,62.6575107 180.179427,41.9072961 158.360288,38.3811159 C136.54115,34.8549356 138.05065,50.3158798 118.701603,43.5347639 C118.701603,43.5347639 94.5496003,42.0429185 104.978874,53.4351931 L102.920465,77.304721 L107.860647,82.5939914 C112.938057,77.0334764 116.505966,59.1313305 116.505966,59.1313305 C116.505966,59.1313305 143.539741,80.9665236 175.513699,74.727897 C175.513699,74.727897 174.141426,83.5433476 177.160427,93.8506438 L185.256837,89.6463519 Z" id="Shape" fill="#CD892A"></path>
                            <path d="M160.28147,131.418026 C158.223061,144.573391 145.872605,153.524464 132.561559,151.490129 C119.250512,149.455794 110.193511,137.249785 112.25192,124.094421 L114.996466,106.192275 L163.026016,113.51588 L160.28147,131.418026 Z" id="Shape" fill="#7F2F20"></path>
                            <rect id="Rectangle-path" fill="#FFFFFF" transform="translate(141.217259, 114.686002) rotate(8.818037) translate(-141.217259, -114.686002) " x="119.809373" y="110.142563" width="42.8157724" height="9.0868776"></rect>
                            <path d="M134.345513,88.1545064 L122.406739,86.6626609 C122.406739,86.6626609 123.779012,80.8309013 129.130876,81.5090129 C134.482741,82.1871245 134.345513,88.1545064 134.345513,88.1545064 Z" id="Shape" fill="#256797"></path>
                            <path d="M163.163243,91.9519313 L151.22447,90.4600858 C151.22447,90.4600858 152.596742,84.6283262 157.948607,85.3064378 C163.300471,85.9845494 163.163243,91.9519313 163.163243,91.9519313 Z" id="Shape" fill="#256797"></path>
                            <path d="M136.403923,96.5630901 L151.087242,98.8686695 C151.087242,98.8686695 143.12806,104.564807 136.403923,96.5630901 Z" id="Shape" fill="#C27F47"></path>
                            <path d="M162.065425,65.2343348 C159.595334,73.6429185 142.167469,75.9484979 123.092876,70.2523605 C104.018283,64.6918455 90.570009,53.2995708 92.9028728,44.8909871 C95.372964,36.4824034 112.800829,34.176824 131.875422,39.8729614 C150.950015,45.4334764 164.535516,56.8257511 162.065425,65.2343348 Z" id="Shape" fill="#37715B"></path>
                            <path d="M131.46374,42.0429185 C119.113285,40.144206 107.860647,41.0935622 100.862055,44.3484979 C100.862055,44.4841202 100.724828,44.7553648 100.724828,44.8909871 C99.0781007,55.6051502 110.330738,66.7261803 127.621376,73.5072961 C146.833196,76.3553648 163.437698,71.8798283 164.672744,63.3356223 C166.045016,54.655794 151.22447,45.0266094 131.46374,42.0429185 Z" id="Shape" fill="#0D2C3F" opacity="0.32"></path>
                            <path d="M198.705111,62.3862661 C194.588292,76.3553648 169.338471,81.1021459 142.304696,73.2360515 C115.270921,65.3699571 92.2167364,45.4334764 100.587601,33.6343348 C104.429965,28.2094421 127.621376,17.9021459 156.988016,22.7845494 C184.982382,27.3957082 202.821929,48.4171674 198.705111,62.3862661 Z" id="Shape" fill="#37715B"></path>
                            <path d="M164.947198,27.1244635 C163.84938,31.0575107 158.497516,33.0918455 153.282879,31.4643777 C148.068242,29.8369099 144.63756,25.3613734 145.872605,21.4283262 C146.970424,17.495279 152.322288,15.4609442 157.536925,17.088412 C162.751562,18.7158798 166.182244,23.055794 164.947198,27.1244635 Z" id="Shape" fill="#EFD22B"></path>
                            <ellipse id="Oval" fill="#FDBC6A" transform="translate(308.117194, 18.571225) rotate(-9.194825) translate(-308.117194, -18.571225) " cx="308.117194" cy="18.5712251" rx="16.3308626" ry="16.1398618"></ellipse>
                            <path d="M172.769153,142.8103 C166.182244,196.787983 124.876831,203.569099 124.876831,203.569099 C91.3933727,182.140773 96.333555,141.725322 97.7058279,133.99485 C94.2751457,134.130472 90.4327817,134.672961 86.3159631,135.486695 C83.4341901,187.294421 68.8880977,189.464378 67.104143,189.464378 C56.4004147,237.745923 49.9507322,307.455794 49.1273685,315.457511 L174.141426,315.321888 L188.413064,203.704721 L188.550291,202.212876 C170.573517,186.887554 185.531291,143.217167 185.531291,143.217167 C181.5517,143.488412 177.297654,143.624034 172.769153,142.8103 Z" id="Shape" fill="#EFD22B"></path>
                            <path d="M65.7318701,258.903004 L73.5538255,268.260944 L83.0225082,260.530472 L75.2005529,251.172532 L65.7318701,258.903004 Z M70.8092797,187.972532 C68.8880977,189.193133 67.5158249,189.464378 66.9669157,189.464378 C66.5552339,191.498712 66.143552,193.533047 65.7318701,195.567382 L72.5932345,190.006867 L70.8092797,187.972532 Z M142.304696,196.923605 L141.893014,196.381116 C137.638968,199.093562 133.659377,200.72103 130.640377,201.806009 L132.836013,204.518455 L142.304696,196.923605 Z M79.4545988,295.249785 L87.2765541,304.607725 L96.7452368,296.877253 L88.9232815,287.519313 L79.4545988,295.249785 Z M119.524966,199.636052 C116.231512,196.923605 113.349738,194.075536 110.879647,190.956223 L107.860647,193.397425 L115.682602,202.755365 L119.524966,199.636052 Z M102.097101,245.340773 L94.2751457,235.982833 L84.8064629,243.713305 L92.6284183,253.071245 L102.097101,245.340773 Z M76.9845076,234.219742 L67.5158249,241.950215 L75.3377802,251.308155 L84.8064629,243.577682 L76.9845076,234.219742 Z M127.484149,256.461803 L118.015466,264.192275 L125.837422,273.550215 L135.306104,265.819742 L127.484149,256.461803 Z M92.491191,252.935622 L83.0225082,260.666094 L90.8444635,270.024034 L100.313146,262.293562 L92.491191,252.935622 Z M178.258245,278.703863 L178.669927,278.296996 L180.728336,262.429185 L180.0422,261.479828 L170.573517,269.2103 L178.258245,278.703863 Z M138.736786,231.507296 L130.914831,222.149356 L121.446148,229.879828 L129.268104,239.237768 L138.736786,231.507296 Z M121.446148,229.744206 L113.624193,220.386266 L104.15551,228.116738 L111.977466,237.474678 L121.446148,229.744206 Z M60.5172333,310.71073 L64.3595973,315.457511 L74.1027346,315.457511 L77.8078713,312.47382 L69.985916,303.11588 L60.5172333,310.71073 Z M97.0196914,138.877253 L95.5101913,140.097854 L96.8824641,141.725322 C96.7452368,140.640343 96.8824641,139.690987 97.0196914,138.877253 Z M136.952832,248.73133 L129.130876,239.373391 L119.662194,247.103863 L127.484149,256.461803 L136.952832,248.73133 Z M111.977466,237.6103 L102.508783,245.340773 L110.330738,254.698712 L119.799421,246.96824 L111.977466,237.6103 Z M100.724828,262.429185 L108.546783,271.787124 L118.015466,264.056652 L110.193511,254.698712 L100.724828,262.429185 Z M183.472882,195.703004 L177.572108,200.449785 L185.394064,209.807725 L187.864155,207.909013 L188.413064,203.569099 L188.550291,202.077253 C186.354655,200.314163 184.707927,198.144206 183.472882,195.703004 Z M95.372964,140.097854 L90.8444635,134.672961 C89.3349634,134.944206 87.688236,135.079828 86.1787358,135.486695 C85.9042812,139.690987 85.6298267,143.488412 85.2181448,147.014592 L85.9042812,147.828326 L95.372964,140.097854 Z M62.301188,293.486695 L70.1231433,302.844635 L79.5918261,295.114163 L71.7698707,285.756223 L62.301188,293.486695 Z M65.4574156,258.903004 L57.6354603,249.545064 L56.4004147,250.494421 C55.7142782,255.376824 55.0281418,260.259227 54.4792327,265.006009 L55.8515055,266.633476 L65.4574156,258.903004 Z M179.904972,184.175107 C179.904972,183.76824 179.767745,183.361373 179.767745,182.954506 L179.218836,183.361373 L179.904972,184.175107 Z M160.555925,276.940773 L170.024608,269.2103 L162.202652,259.852361 L152.73397,267.582833 L160.555925,276.940773 Z M77.8078713,312.47382 L80.2779625,315.457511 L93.5890093,315.457511 L95.0985094,314.23691 L87.2765541,304.87897 L77.8078713,312.47382 Z M135.580559,265.819742 L143.402514,275.177682 L152.871197,267.44721 L145.049242,258.08927 L135.580559,265.819742 Z M50.2251868,302.980258 C49.5390504,309.354506 49.1273685,313.694421 48.9901412,315.457511 L54.2047781,315.457511 L60.1055514,310.71073 L52.2835961,301.35279 L50.2251868,302.980258 Z M59.419415,232.456652 L59.0077331,232.727897 C58.1843694,238.017167 57.498233,243.306438 56.6748692,248.460086 L57.6354603,249.545064 L67.104143,241.814592 L59.419415,232.456652 Z M180.0422,166.544206 C180.0422,166.272961 180.179427,165.866094 180.179427,165.59485 L172.906381,156.779399 L169.064017,159.898712 C168.240653,162.746781 167.142835,165.323605 166.045016,167.900429 L170.985199,174.003433 L180.0422,166.544206 Z M168.37788,286.569957 L160.555925,277.212017 L151.087242,284.942489 L158.909198,294.300429 L168.37788,286.569957 Z M174.278654,312.745064 L176.337063,296.199142 L166.86838,303.793991 L174.278654,312.745064 Z M64.0851427,276.127039 L71.907098,285.484979 L81.3757808,277.754506 L73.5538255,268.396567 L64.0851427,276.127039 Z M90.8444635,270.159657 L81.3757808,277.890129 L89.1977361,287.248069 L98.6664189,279.517597 L90.8444635,270.159657 Z M146.833196,241.136481 L137.364514,248.866953 L145.186469,258.224893 L154.655152,250.494421 L146.833196,241.136481 Z M172.220244,252.257511 L180.0422,261.615451 L181.002791,260.801717 L182.923973,245.883262 L181.826154,244.527039 L172.220244,252.257511 Z M151.087242,284.806867 L143.265287,275.448927 L133.796604,283.179399 L141.618559,292.537339 L151.087242,284.806867 Z M164.123834,242.899571 L154.655152,250.630043 L162.477107,259.987983 L171.94579,252.257511 L164.123834,242.899571 Z M77.1217349,233.948498 L86.5904177,226.218026 L78.7684623,216.860086 L69.2997796,224.590558 L77.1217349,233.948498 Z M178.944381,183.361373 L171.122426,174.003433 L161.653743,181.733906 L169.475699,191.091845 L178.944381,183.361373 Z M183.747336,147.963948 L182.786745,148.777682 L183.335655,149.455794 C183.610109,149.048927 183.610109,148.506438 183.747336,147.963948 Z M68.8880977,224.590558 L61.7522788,215.91073 C60.7916878,221.2 59.9683241,226.624893 59.1449604,231.914163 L59.419415,232.185408 L68.8880977,224.590558 Z M161.653743,181.598283 L159.732561,179.292704 C157.26247,182.954506 154.517924,186.07382 151.773379,188.786266 L152.185061,189.328755 L161.653743,181.598283 Z M177.160427,200.449785 L169.338471,191.091845 L159.869789,198.822318 L167.691744,208.180258 L177.160427,200.449785 Z M167.691744,208.31588 L158.223061,216.046352 L166.045016,225.404292 L175.513699,217.67382 L167.691744,208.31588 Z M140.932423,214.283262 L148.754378,223.641202 L158.223061,215.91073 L150.401106,206.55279 L140.932423,214.283262 Z M63.6734608,276.127039 L55.8515055,266.769099 L54.0675508,268.125322 C53.5186417,272.872103 52.9697325,277.483262 52.4208234,281.823176 L54.0675508,283.721888 L63.6734608,276.127039 Z M159.869789,198.686695 L152.047833,189.328755 L142.57915,197.059227 L150.401106,206.417167 L159.869789,198.686695 Z M152.73397,315.186266 L160.007016,315.186266 L157.125243,311.660086 L152.73397,315.186266 Z M61.8895061,293.486695 L54.0675508,284.128755 L52.0091415,285.756223 C51.4602324,290.638627 50.9113232,295.114163 50.4996414,299.04721 L52.2835961,301.081545 L61.8895061,293.486695 Z M174.004199,235.033476 L181.826154,244.391416 L183.198427,243.170815 L184.982382,229.066094 L183.472882,227.303004 L174.004199,235.033476 Z M168.789562,286.569957 L176.47429,295.927897 L178.532699,279.381974 L178.121018,278.975107 L168.789562,286.569957 Z M175.788154,217.67382 L183.610109,227.03176 L185.531291,225.404292 L187.178019,212.248927 L185.256837,209.943348 L175.788154,217.67382 Z M174.004199,315.186266 L174.141426,313.830043 L172.494699,315.186266 L174.004199,315.186266 Z M95.372964,314.23691 L96.333555,315.321888 L112.114693,315.321888 L104.841647,306.506438 L95.372964,314.23691 Z M165.907789,225.675536 L156.439106,233.406009 L164.261062,242.763948 L173.729744,235.033476 L165.907789,225.675536 Z M113.349738,315.321888 L127.895831,315.321888 L122.132285,308.269528 L113.349738,315.321888 Z M133.247695,315.321888 L144.088651,315.321888 L139.697377,310.032618 L133.247695,315.321888 Z M103.881056,227.981116 L96.0591004,218.623176 L86.5904177,226.353648 L94.412373,235.711588 L103.881056,227.981116 Z M88.3743724,208.993991 L96.1963277,218.351931 L105.66501,210.621459 L97.8430551,201.263519 L88.3743724,208.993991 Z M139.148468,231.507296 L146.970424,240.865236 L156.439106,233.134764 L148.617151,223.776824 L139.148468,231.507296 Z M90.1583271,191.769957 L82.3363718,182.412017 L72.867689,190.142489 L80.6896444,199.500429 L90.1583271,191.769957 Z M105.939465,210.757082 L113.76142,220.115021 L123.230103,212.384549 L115.408148,203.026609 L105.939465,210.757082 Z M91.8050545,174.681545 L83.9830992,165.323605 L81.7874626,167.086695 C80.6896444,171.290987 79.4545988,174.817167 78.2195532,177.529614 L82.1991445,182.276395 L91.8050545,174.681545 Z M104.018283,180.513305 C101.959874,176.580258 100.450374,172.511588 99.3525553,168.578541 L91.8050545,174.681545 L99.6270099,184.039485 L104.018283,180.513305 Z M93.5890093,157.457511 L85.7670539,148.099571 L84.9436902,148.777682 C84.2575538,154.47382 83.4341901,159.356223 82.6108264,163.560515 L83.9830992,165.187983 L93.5890093,157.457511 Z M140.520741,214.147639 L132.698786,204.7897 L123.230103,212.520172 L131.052058,221.878112 L140.520741,214.147639 Z M107.311738,193.533047 L99.4897826,184.175107 L90.0210998,191.905579 L97.8430551,201.263519 L107.311738,193.533047 Z M71.0837343,207.230901 L78.9056896,216.588841 L88.3743724,208.858369 L80.5524171,199.500429 L71.0837343,207.230901 Z M149.303288,302.166524 L157.125243,311.524464 L166.593926,303.793991 L158.77197,294.436052 L149.303288,302.166524 Z M133.384922,283.043777 L125.562967,273.685837 L116.094284,281.416309 L123.91624,290.774249 L133.384922,283.043777 Z M116.231512,281.280687 L108.409556,271.922747 L98.9408734,279.653219 L106.762829,289.011159 L116.231512,281.280687 Z M132.012649,300.403433 L139.834605,309.761373 L149.303288,302.030901 L141.481332,292.672961 L132.012649,300.403433 Z M64.7712791,200.042918 C63.8106881,204.654077 62.9873244,209.400858 62.1639607,214.147639 L70.8092797,207.230901 L64.7712791,200.042918 Z M182.375064,148.777682 L177.846563,143.35279 C176.199836,143.217167 174.415881,143.081545 172.631926,142.8103 C172.220244,146.743348 171.534108,150.40515 170.710744,153.795708 L172.906381,156.372532 L182.375064,148.777682 Z M96.8824641,154.745064 L93.5890093,157.457511 L97.9802824,162.746781 C97.4313733,160.034335 97.1569187,157.321888 96.8824641,154.745064 Z M97.1569187,297.012876 L104.978874,306.370815 L114.447557,298.640343 L106.625601,289.282403 L97.1569187,297.012876 Z M114.447557,298.640343 L122.269512,307.998283 L131.738195,300.267811 L123.91624,290.909871 L114.447557,298.640343 Z" id="Shape" fill="#EDB72B"></path>
                            <ellipse id="Oval" fill="#FDBC6A" transform="translate(105.082618, 82.832958) rotate(-76.408440) translate(-105.082618, -82.832958) " cx="105.082618" cy="82.832958" rx="5.62634406" ry="6.91676932"></ellipse>
                            <ellipse id="Oval" fill="#FDBC6A" transform="translate(182.161071, 93.871041) rotate(-83.626906) translate(-182.161071, -93.871041) " cx="182.161071" cy="93.871041" rx="5.62620464" ry="6.91659792"></ellipse>
                        </g>
                    </g>
                </g>
            </g>
        </g>
    </g>
</svg>