<?xml version="1.0" encoding="UTF-8"?>
<svg width="1280px" height="351px" viewBox="0 0 1280 351" version="1.1" xmlns="http://www.w3.org/2000/svg" xmlns:xlink="http://www.w3.org/1999/xlink">
    <!-- Generator: Sketch 48.2 (47327) - http://www.bohemiancoding.com/sketch -->
    <title>Landing</title>
    <desc>Created with Sketch.</desc>
    <defs>
        <rect id="path-1" x="0" y="0" width="1307" height="280"></rect>
    </defs>
    <g id="RevelBus-Contact" stroke="none" stroke-width="1" fill="none" fill-rule="evenodd" transform="translate(0.000000, -33.000000)">
        <g id="Landing" transform="translate(0.000000, -10.000000)">
            <g id="BG" transform="translate(0.000000, 114.000000)">
                <g id="1mastres">
                    <mask id="mask-2" fill="white">
                        <use xlink:href="#path-1"></use>
                    </mask>
                    <g id="Beach" mask="url(#mask-2)">
                        <g transform="translate(0.000000, -17.000000)">
                            <g>
                                <rect id="Rectangle-path" fill="#41BEE8" fill-rule="nonzero" x="0" y="222.9" width="1280" height="55.2"></rect>
                                <rect id="Rectangle-path" fill="#ECCC88" fill-rule="nonzero" x="0" y="272.2" width="1280" height="26.9"></rect>
                                <path d="M712,253 L900.8,253" id="Shape" stroke="#6BCDE6" stroke-width="3" stroke-linecap="round" stroke-linejoin="round"></path>
                                <path d="M642.6,240.3 L726.4,240.3" id="Shape" stroke="#6BCDE6" stroke-width="3" stroke-linecap="round" stroke-linejoin="round"></path>
                                <path d="M952.8,240.3 L1036.6,240.3" id="Shape" stroke="#6BCDE6" stroke-width="3" stroke-linecap="round" stroke-linejoin="round"></path>
                                <path d="M746,106.1 C743.8,89.3 729.5,76.2 711.9,76.2 C707.7,76.2 703.6,76.9 699.9,78.4 C689.9,64.2 672.9,54.9 653.8,54.9 C632.5,54.9 614.1,66.4 604.6,83.2 C600,80.4 594.6,78.8 588.8,78.8 C573,78.8 560.1,90.8 558.3,106.1 C558.3,106.1 746,106.1 746,106.1 Z" id="Shape" fill="#B4E3F6" fill-rule="nonzero"></path>
                                <path d="M549.8,158.6 C548.4,148.1 539.5,139.9 528.5,139.9 C525.9,139.9 523.3,140.4 521,141.3 C514.7,132.4 504.1,126.6 492.2,126.6 C478.9,126.6 467.3,133.8 461.5,144.3 C458.6,142.6 455.2,141.6 451.6,141.6 C441.7,141.6 433.6,149.1 432.6,158.7 L549.8,158.7 L549.8,158.6 L549.8,158.6 Z" id="Shape" fill="#B4E3F6" fill-rule="nonzero"></path>
                                <path d="M1109.8,77.7 C1109,71.7 1103.9,67 1097.6,67 C1096.1,67 1094.6,67.3 1093.3,67.8 C1089.7,62.7 1083.6,59.4 1076.7,59.4 C1069,59.4 1062.4,63.5 1059,69.6 C1057.3,68.6 1055.4,68 1053.3,68 C1047.6,68 1043,72.3 1042.4,77.8 L1109.8,77.8 L1109.8,77.7 Z" id="Shape" fill="#B4E3F6" fill-rule="nonzero"></path>
                                <path d="M79,244 L320,244" id="Shape" stroke="#6BCDE6" stroke-width="3" stroke-linecap="round" stroke-linejoin="round"></path>
                                <path d="M502,253 L561,253" id="Shape" stroke="#6BCDE6" stroke-width="3" stroke-linecap="round" stroke-linejoin="round"></path>
                                <path d="M285,257.4 L405.5,257.4" id="Shape" stroke="#6BCDE6" stroke-width="3" stroke-linecap="round" stroke-linejoin="round"></path>
                            </g>
                        </g>
                    </g>
                    <g id="Swimsuit_Guy" mask="url(#mask-2)">
                        <g transform="translate(1134.000000, 236.000000) scale(-1, 1) translate(-1134.000000, -236.000000) translate(1021.000000, 67.000000)">
                            <g>
                                <polygon id="Shape" fill="#75AFB5" fill-rule="nonzero" points="128.262338 84.0261682 93.6285714 81.1831776 93.6285714 231.229907 128.262338 231.229907"></polygon>
                                <path d="M93.6285714,212.908411 L128.262338,212.908411 L128.262338,199.009346 L93.6285714,199.009346 L93.6285714,212.908411 Z M93.6285714,142.465421 L93.6285714,156.364486 L128.262338,156.364486 L128.262338,142.465421 L93.6285714,142.465421 Z M93.6285714,184.794393 L128.262338,184.794393 L128.262338,170.895327 L93.6285714,170.895327 L93.6285714,184.794393 Z" id="Shape" fill="#60979C" fill-rule="nonzero"></path>
                                <path d="M98.0311688,173.42243 C93.6285714,172.790654 89.812987,175.949533 88.9324675,180.68785 L68.387013,336.736449 L84.5298701,336.736449 L91.574026,336.736449 L85.1168831,331.682243 L104.781818,183.214953 C105.368831,178.476636 102.433766,174.054206 98.0311688,173.42243 Z" id="Shape" fill="#EFC19D" fill-rule="nonzero"></path>
                                <path d="M115.641558,158.259813 L108.303896,100.452336 C107.423377,92.871028 104.194805,86.2373832 99.4987013,81.1831776 L99.4987013,33.1682243 L99.4987013,33.1682243 L99.4987013,32.5364486 C99.4987013,18.6373832 89.225974,7.58130841 76.3116883,7.58130841 C63.3974026,7.58130841 53.1246753,18.6373832 53.1246753,32.5364486 L53.1246753,33.1682243 L53.1246753,33.1682243 L53.1246753,82.7626168 C47.5480519,89.7121495 44.612987,99.188785 45.787013,109.297196 L52.8311688,167.104673 C55.1792208,185.426168 71.0285714,198.37757 88.0519481,196.166355 L88.638961,196.166355 C105.662338,193.639252 117.696104,176.581308 115.641558,158.259813 Z" id="Shape" fill="#EFC19D" fill-rule="nonzero"></path>
                                <path d="M98.6181818,173.42243 C94.2155844,172.790654 90.4,175.949533 89.5194805,180.68785 L87.1714286,199.009346 C87.7584416,199.009346 88.0519481,199.009346 88.638961,198.693458 L89.225974,198.693458 C94.8025974,197.745794 99.7922078,195.534579 104.194805,192.059813 L105.368831,182.899065 C105.955844,178.476636 102.727273,174.054206 98.6181818,173.42243 Z" id="Shape" fill="#D2AB8C" fill-rule="nonzero"></path>
                                <path d="M52.8311688,167.104673 C55.1792208,185.426168 71.0285714,198.37757 88.0519481,196.166355 L88.638961,196.166355 C105.662338,193.639252 117.696104,176.581308 115.641558,158.259813 L115.054545,153.205607 L52.2441558,160.15514 L52.8311688,167.104673 Z" id="Shape" fill="#E83741" fill-rule="nonzero"></path>
                                <path d="M35.8077922,188.900935 L36.6883117,188.585047 C40.2103896,186.68972 41.9714286,182.26729 40.5038961,178.160748 L16.4363636,120.037383 C14.6753247,116.246729 10.5662338,114.351402 6.75064935,115.930841 L5.87012987,116.246729 C2.34805195,118.142056 0.587012987,122.564486 2.05454545,126.671028 L25.8285714,184.478505 C27.8831169,188.900935 32.2857143,190.480374 35.8077922,188.900935 Z" id="Shape" fill="#EFC19D" fill-rule="nonzero"></path>
                                <path d="M96.2701299,49.9102804 C96.2701299,60.9663551 88.0519481,69.811215 77.7792208,69.811215 C67.5064935,69.811215 59.2883117,60.9663551 59.2883117,49.9102804 L96.2701299,49.9102804 Z" id="Shape" fill="#A03830" fill-rule="nonzero"></path>
                                <path d="M65.1584416,86.2373832 L64.5714286,85.6056075 C62.5168831,82.1308411 57.8207792,80.8672897 54.5922078,83.0785047 L4.98961039,117.194393 C1.76103896,119.405607 0.587012987,124.459813 2.64155844,127.934579 L3.22857143,128.882243 C5.28311688,132.357009 9.97922078,133.620561 13.2077922,131.409346 L62.8103896,97.2934579 C66.3324675,94.7663551 67.212987,90.0280374 65.1584416,86.2373832 Z" id="Shape" fill="#EFC19D" fill-rule="nonzero"></path>
                                <path d="M208.683117,54.964486 L208.096104,54.0168224 C205.748052,50.5420561 201.051948,49.9102804 197.823377,52.753271 L151.449351,91.6074766 C148.220779,94.1345794 147.633766,99.188785 150.275325,102.663551 L150.862338,103.611215 C153.21039,107.085981 157.906494,107.717757 161.135065,104.874766 L207.509091,66.0205607 C210.737662,63.4934579 211.324675,58.4392523 208.683117,54.964486 Z" id="Shape" fill="#EFC19D" fill-rule="nonzero"></path>
                                <path d="M90.987013,87.1850467 L90.987013,88.4485981 C90.4,92.5551402 93.0415584,96.6616822 97.1506494,97.2934579 L155.264935,106.770093 C159.080519,107.401869 162.896104,104.558879 163.483117,100.136449 L163.776623,99.188785 C164.363636,95.082243 161.722078,90.9757009 157.612987,90.3439252 L99.4987013,80.8672897 C95.3896104,79.9196262 91.574026,83.0785047 90.987013,87.1850467 Z" id="Shape" fill="#EFC19D" fill-rule="nonzero"></path>
                                <path d="M108.303896,82.446729 C108.303896,82.446729 120.631169,85.6056075 120.631169,98.2411215 L120.631169,101.084112 L154.971429,106.770093 L155.264935,106.770093 L155.264935,100.452336 C155.264935,100.452336 155.851948,93.5028037 152.036364,89.3962617 L112.119481,83.0785047 L108.303896,82.446729 Z" id="Shape" fill="#D2AB8C" fill-rule="nonzero"></path>
                                <path d="M147.633766,85.9214953 L110.358442,82.446729 C110.358442,82.446729 122.685714,85.6056075 122.685714,98.2411215 L122.685714,195.218692 L157.319481,195.218692 L157.319481,100.452336 C157.319481,100.452336 158.2,87.8168224 147.633766,85.9214953 Z" id="Shape" fill="#8ED4DA" fill-rule="nonzero"></path>
                                <path d="M122.685714,178.160748 L157.319481,178.160748 L157.319481,164.261682 L122.685714,164.261682 L122.685714,178.160748 Z M122.685714,107.717757 L122.685714,121.616822 L157.319481,121.616822 L157.319481,107.717757 L122.685714,107.717757 Z M122.685714,150.046729 L157.319481,150.046729 L157.319481,135.831776 L122.685714,135.831776 L122.685714,150.046729 Z" id="Shape" fill="#75AFB5" fill-rule="nonzero"></path>
                                <rect id="Rectangle-path" fill="#FFFFFF" fill-rule="nonzero" x="63.3974026" y="49.9102804" width="28.1766234" height="5.37009346"></rect>
                                <path d="M81.0077922,42.9607477 L88.9324675,42.9607477 C89.225974,42.9607477 85.4103896,46.7514019 81.0077922,42.9607477 Z" id="Shape" fill="#C17F46" fill-rule="nonzero"></path>
                                <ellipse id="Oval" fill="#EFC19D" fill-rule="nonzero" cx="54.0051948" cy="38.5383178" rx="3.81558442" ry="4.10654206"></ellipse>
                                <path d="M70.4415584,67.9158879 C72.7896104,69.1794393 75.4311688,69.811215 78.0727273,69.811215 C81.3012987,69.811215 84.2363636,68.8635514 86.8779221,67.2841121 C85.7038961,64.1252336 82.4753247,62.2299065 78.6597403,62.2299065 C74.5506494,62.2299065 71.3220779,64.7570093 70.4415584,67.9158879 Z" id="Shape" fill="#F7323F" fill-rule="nonzero"></path>
                                <path d="M53.1246753,29.3775701 C53.1246753,29.3775701 55.7662338,-1.8953271 93.6285714,0.631775701 L93.6285714,7.58130841 C93.6285714,7.58130841 98.0311688,12.635514 97.7376623,23.3757009 C97.7376623,23.3757009 83.9428571,34.4317757 63.9844156,21.4803738 L56.3532468,38.5383178 L52.8311688,34.1158879 L53.1246753,29.3775701 Z" id="Shape" fill="#DDB136" fill-rule="nonzero"></path>
                                <path d="M75.4311688,120.669159 C64.2779221,120.669159 57.8207792,113.403738 57.5272727,113.08785 C57.2337662,112.771963 57.2337662,112.456075 57.5272727,112.140187 C57.8207792,111.824299 58.1142857,111.824299 58.4077922,112.140187 C58.4077922,112.140187 66.038961,120.669159 78.6597403,119.08972 C78.9532468,119.08972 79.2467532,119.405607 79.5402597,119.721495 C79.5402597,120.037383 79.2467532,120.353271 78.9532468,120.669159 C77.4857143,120.669159 76.3116883,120.669159 75.4311688,120.669159 Z" id="Shape" fill="#D2AB8C" fill-rule="nonzero"></path>
                                <path d="M96.2701299,118.457944 C95.9766234,118.457944 95.6831169,118.142056 95.6831169,117.826168 C95.6831169,117.51028 95.9766234,117.194393 96.2701299,116.878505 C96.2701299,116.878505 101.846753,116.246729 105.075325,110.876636 C105.368831,110.560748 105.662338,110.560748 105.955844,110.560748 C106.249351,110.876636 106.249351,111.192523 106.249351,111.508411 C102.433766,117.826168 96.5636364,118.457944 96.2701299,118.457944 L96.2701299,118.457944 Z" id="Shape" fill="#D2AB8C" fill-rule="nonzero"></path>
                                <path d="M75.7246753,179.108411 C71.3220779,178.476636 67.5064935,181.635514 66.625974,186.373832 L47.5480519,329.471028 L38.1558442,336.736449 L46.961039,336.736449 L61.6363636,336.736449 L63.1038961,336.736449 L82.7688312,188.900935 C83.0623377,183.846729 80.1272727,179.740187 75.7246753,179.108411 Z" id="Shape" fill="#EFC19D" fill-rule="nonzero"></path>
                                <path d="M101.846753,32.8523364 L101.846753,30.9570093 L66.038961,30.9570093 L66.038961,32.8523364 C66.038961,37.9065421 69.8545455,42.0130841 74.5506494,42.0130841 C79.2467532,42.0130841 83.0623377,37.9065421 83.0623377,32.8523364 L85.4103896,32.8523364 C85.4103896,37.5906542 88.9324675,41.6971963 93.6285714,41.6971963 C98.3246753,41.3813084 101.846753,37.5906542 101.846753,32.8523364 L101.846753,32.8523364 Z" id="Shape" fill="#231F20" fill-rule="nonzero"></path>
                                <g id="Group" transform="translate(196.649351, 22.112150)" fill-rule="nonzero">
                                    <path d="M22.3064935,50.5420561 L14.6753247,52.4373832 C10.8597403,53.3850467 7.33766234,50.8579439 6.45714286,46.7514019 L0.880519481,20.5327103 C1.19904087e-14,16.4261682 2.34805195,12.635514 6.16363636,11.6878505 L13.7948052,9.79252336 C17.6103896,8.84485981 21.1324675,11.3719626 22.012987,15.4785047 L27.5896104,41.6971963 C28.4701299,45.8037383 25.8285714,49.5943925 22.3064935,50.5420561 Z" id="Shape" fill="#85401D"></path>
                                    <rect id="Rectangle-path" fill="#F7C853" transform="translate(9.121888, 6.949059) rotate(-12.691004) translate(-9.121888, -6.949059) " x="5.30618285" y="2.84238654" width="7.63141093" height="8.21334467"></rect>
                                </g>
                                <path d="M206.335065,56.8598131 L200.758442,56.8598131 C199.290909,56.8598131 198.116883,55.5962617 198.116883,54.0168224 L198.116883,54.0168224 C198.116883,52.4373832 199.290909,51.1738318 200.758442,51.1738318 L206.335065,51.1738318 C207.802597,51.1738318 208.976623,52.4373832 208.976623,54.0168224 L208.976623,54.0168224 C208.976623,55.5962617 207.802597,56.8598131 206.335065,56.8598131 Z" id="Shape" fill="#EFC19D" fill-rule="nonzero"></path>
                            </g>
                        </g>
                    </g>
                </g>
            </g>
            <g id="Swimsuit_Character" transform="translate(801.000000, 43.000000)">
                <g id="Group">
                    <g fill-rule="nonzero">
                        <path d="M207.29567,110.520885 C207.29567,110.520885 240.436165,20.6410164 323.156927,46.2463279 C385.784633,65.5809508 478.682397,0.522557377 478.682397,0.522557377 L614.897658,51.4719016 C614.897658,51.4719016 465.895907,153.631869 381.348503,129.332951 C296.8011,105.034033 297.322998,61.6617705 217.99457,120.449475" id="Shape" fill="#F5C41B"></path>
                        <path d="M154.584018,245.601967 C151.191683,245.601967 147.538401,243.773016 145.711759,240.637672 C142.841323,235.673377 144.407015,229.402689 149.365042,226.789902 C151.452632,225.483508 199.989104,195.697738 197.379617,121.49459 C197.118668,115.746459 201.554797,111.043443 207.29567,111.043443 C212.775594,110.782164 217.733621,115.223902 217.733621,120.972033 C220.604058,207.977836 162.151532,243.250459 159.542044,244.556852 C158.2373,245.07941 156.410659,245.601967 154.584018,245.601967 Z" id="Shape" fill="#E29353"></path>
                        <path d="M129.011038,146.838623 C129.011038,132.990852 117.79024,121.755869 103.959955,121.755869 C100.567621,121.755869 97.1752869,122.539705 94.3048503,123.846098 C88.5639773,120.188197 82.0402579,118.097967 74.7336922,118.097967 C55.162534,118.097967 39.2446587,133.774689 38.9837099,153.37059 C29.3286052,156.767213 22.2829883,165.911967 22.2829883,176.885672 C22.2829883,188.120656 29.589554,197.526689 39.7665563,200.662033 L36.3742222,202.752262 C36.3742222,202.752262 31.938093,204.581213 28.8067077,218.690262 C25.6753224,232.538033 0.102342364,233.06059 0.102342364,233.06059 C0.102342364,233.06059 17.8468591,262.585082 62.7300485,244.034295 L72.1242044,215.816197 L62.7300485,196.220295 C65.3395363,194.130066 70.5585118,194.391344 72.1242044,191.517279 C73.9508459,191.778557 72.646102,189.427049 74.4727434,189.427049 C87.5201822,189.427049 99.2628771,182.372525 105.264699,171.660098 C118.573086,171.137541 129.011038,160.163836 129.011038,146.838623 Z" id="Shape" fill="#7F2F20"></path>
                        <path d="M181.461741,350.897279 C181.461741,350.897279 180.678895,341.752525 174.416124,318.498721 C167.892405,295.244918 163.456276,284.532492 163.456276,284.532492 C163.456276,284.532492 172.328534,266.765541 173.111381,251.350098 C173.894227,235.934656 139.18804,215.816197 139.18804,215.816197 L72.1242044,215.816197 C72.1242044,215.816197 57.7720218,233.844426 63.5128948,254.485443 C69.2537679,275.126459 99.5238259,306.74118 114.919804,309.876525 C114.919804,309.876525 99.2628771,324.76941 99.2628771,350.113443 L181.461741,350.897279 Z" id="Shape" fill="#F5C41B"></path>
                        <path d="M102.394262,138.477705 L101.872365,139.261541 C101.872365,149.190131 98.219082,173.22777 62.208151,195.17518 L72.1242044,215.816197 C112.571265,216.338754 148.582196,244.034295 148.582196,244.034295 C132.403372,189.16577 102.394262,138.477705 102.394262,138.477705 Z" id="Shape" fill="#E29353"></path>
                        <path d="M99.2628771,350.113443 L181.461741,350.897279 C181.461741,350.897279 180.678895,341.752525 174.416124,318.498721 C167.892405,295.244918 163.456276,284.532492 163.456276,284.532492 C163.456276,284.532492 172.328534,266.765541 173.111381,251.350098 C173.894227,235.934656 139.18804,215.816197 139.18804,215.816197 L139.18804,215.816197 C142.580374,224.960951 145.972708,234.366984 148.843144,244.034295 C148.843144,244.034295 112.832213,216.338754 72.3851532,215.816197 C72.3851532,215.816197 58.0329705,233.844426 63.7738436,254.485443 C69.5147167,275.126459 99.7847746,306.74118 115.180752,309.876525 C114.919804,309.876525 99.2628771,324.76941 99.2628771,350.113443 Z" id="Shape" fill="#F5C41B"></path>
                        <path d="M89.8687212,196.481574 C93.7829528,204.842492 103.699006,208.500393 112.049367,204.581213 C120.399728,200.662033 124.053011,190.733443 120.138779,182.372525 L114.919804,170.876262 L84.3887969,185.24659 L89.8687212,196.481574 Z" id="Shape" fill="#7F2F20"></path>
                        <polygon id="Shape" fill="#FFFFFF" points="86.4763871 189.688328 113.093162 177.146951 111.266521 172.705213 84.3887969 185.24659"></polygon>
                        <path d="M109.700828,159.902557 L100.82857,163.560459 C100.82857,163.560459 99.5238259,159.118721 103.438057,157.28977 C107.352289,155.46082 109.700828,159.902557 109.700828,159.902557 Z" id="Shape" fill="#7F2F20"></path>
                        <path d="M140.753732,326.075803 C138.927091,326.075803 137.622347,327.643475 137.622347,329.211148 C137.622347,331.040098 139.18804,332.346492 140.753732,332.346492 C142.580374,332.346492 143.885118,330.77882 143.885118,329.211148 C143.885118,327.382197 142.580374,326.075803 140.753732,326.075803 Z M150.930735,311.182918 C149.104093,311.182918 147.799349,312.75059 147.799349,314.318262 C147.799349,316.147213 149.365042,317.453607 150.930735,317.453607 C152.496427,317.453607 154.06212,315.885934 154.06212,314.318262 C154.06212,312.75059 152.496427,311.182918 150.930735,311.182918 Z M160.846788,237.763607 C159.020147,237.763607 157.715403,239.331279 157.715403,240.898951 C157.715403,242.466623 159.281095,244.034295 160.846788,244.034295 C162.412481,244.034295 163.978173,242.466623 163.978173,240.898951 C163.978173,239.331279 162.67343,237.763607 160.846788,237.763607 Z M151.97453,281.919705 C150.147888,281.919705 148.843144,283.487377 148.843144,285.055049 C148.843144,286.622721 150.408837,288.190393 151.97453,288.190393 C153.540222,288.190393 155.105915,286.622721 155.105915,285.055049 C155.105915,283.487377 153.540222,281.919705 151.97453,281.919705 Z M150.930735,258.92718 C152.757376,258.92718 154.06212,257.359508 154.06212,255.791836 C154.06212,254.224164 152.496427,252.656492 150.930735,252.656492 C149.365042,252.656492 147.799349,254.224164 147.799349,255.791836 C147.799349,257.359508 149.104093,258.92718 150.930735,258.92718 Z M139.448989,238.024885 C138.405193,238.547443 137.361398,239.592557 137.361398,240.898951 C137.361398,242.727902 138.927091,244.034295 140.492784,244.034295 C142.319425,244.034295 143.624169,242.466623 143.624169,240.898951 C143.624169,240.898951 143.624169,240.898951 143.624169,240.637672 C142.580374,240.115115 141.27563,239.07 139.448989,238.024885 Z M140.753732,296.551311 C138.927091,296.551311 137.622347,298.118984 137.622347,299.686656 C137.622347,301.254328 139.18804,302.822 140.753732,302.822 C142.580374,302.822 143.885118,301.254328 143.885118,299.686656 C143.885118,298.118984 142.580374,296.551311 140.753732,296.551311 Z M171.02379,340.70741 C169.197149,340.70741 167.892405,342.275082 167.892405,343.842754 C167.892405,345.410426 169.458098,346.978098 171.02379,346.978098 C172.589483,346.978098 174.155176,345.410426 174.155176,343.842754 C174.155176,342.275082 172.850432,340.70741 171.02379,340.70741 Z M150.930735,340.70741 C149.104093,340.70741 147.799349,342.275082 147.799349,343.842754 C147.799349,345.410426 149.365042,346.978098 150.930735,346.978098 C152.496427,346.978098 154.06212,345.410426 154.06212,343.842754 C154.06212,342.275082 152.496427,340.70741 150.930735,340.70741 Z M160.846788,296.551311 C159.020147,296.551311 157.715403,298.118984 157.715403,299.686656 C157.715403,301.254328 159.281095,302.822 160.846788,302.822 C162.412481,302.822 163.978173,301.254328 163.978173,299.686656 C163.978173,298.118984 162.67343,296.551311 160.846788,296.551311 Z M150.930735,229.402689 C152.757376,229.402689 154.06212,227.835016 154.06212,226.267344 C154.06212,226.267344 154.06212,226.267344 154.06212,226.006066 C152.757376,224.960951 151.452632,223.915836 150.147888,223.132 C148.843144,223.393279 147.538401,224.699672 147.538401,226.267344 C147.538401,228.096295 149.104093,229.402689 150.930735,229.402689 Z M91.4344138,281.919705 C89.6077724,281.919705 88.3030285,283.487377 88.3030285,285.055049 C88.3030285,286.622721 89.8687212,288.190393 91.4344138,288.190393 C93.0001065,288.190393 94.5657991,286.622721 94.5657991,285.055049 C94.5657991,283.487377 93.2610552,281.919705 91.4344138,281.919705 Z M171.02379,317.714885 C172.067585,317.714885 173.111381,317.192328 173.633278,316.147213 C173.111381,314.579541 172.850432,313.011869 172.328534,311.444197 C172.067585,311.182918 171.545688,311.182918 171.02379,311.182918 C169.197149,311.182918 167.892405,312.75059 167.892405,314.318262 C167.892405,316.147213 169.197149,317.714885 171.02379,317.714885 Z M160.846788,267.288098 C159.020147,267.288098 157.715403,268.85577 157.715403,270.423443 C157.715403,271.991115 159.281095,273.558787 160.846788,273.558787 C162.412481,273.558787 163.978173,271.991115 163.978173,270.423443 C163.978173,268.85577 162.67343,267.288098 160.846788,267.288098 Z M160.846788,326.075803 C159.020147,326.075803 157.715403,327.643475 157.715403,329.211148 C157.715403,331.040098 159.281095,332.346492 160.846788,332.346492 C162.412481,332.346492 163.978173,330.77882 163.978173,329.211148 C164.239122,327.382197 162.67343,326.075803 160.846788,326.075803 Z M171.02379,258.92718 C171.284739,258.92718 171.545688,258.92718 172.067585,258.665902 C172.328534,256.836951 172.589483,255.008 172.850432,252.91777 C172.328534,252.656492 171.806637,252.395213 171.02379,252.395213 C169.197149,252.395213 167.892405,253.962885 167.892405,255.530557 C167.892405,257.09823 169.197149,258.92718 171.02379,258.92718 Z M111.52747,281.919705 C109.700828,281.919705 108.396084,283.487377 108.396084,285.055049 C108.396084,286.622721 109.961777,288.190393 111.52747,288.190393 C113.093162,288.190393 114.658855,286.622721 114.658855,285.055049 C114.658855,283.487377 113.354111,281.919705 111.52747,281.919705 Z M100.306672,237.763607 C98.4800308,237.763607 97.1752869,239.331279 97.1752869,240.898951 C97.1752869,242.466623 98.7409795,244.034295 100.306672,244.034295 C101.872365,244.034295 103.438057,242.466623 103.438057,240.898951 C103.438057,239.331279 102.133314,237.763607 100.306672,237.763607 Z M120.660677,237.763607 C118.834035,237.763607 117.529291,239.331279 117.529291,240.898951 C117.529291,242.466623 119.094984,244.034295 120.660677,244.034295 C122.226369,244.034295 123.792062,242.466623 123.792062,240.898951 C123.792062,239.331279 122.226369,237.763607 120.660677,237.763607 Z M110.483674,229.402689 C112.310316,229.402689 113.61506,227.835016 113.61506,226.267344 C113.61506,225.744787 113.354111,225.22223 113.093162,224.699672 C111.788418,224.177115 110.483674,223.654557 109.439879,223.393279 C108.135135,223.915836 107.352289,224.960951 107.352289,226.528623 C107.352289,228.096295 108.657033,229.402689 110.483674,229.402689 Z M100.306672,267.288098 C98.4800308,267.288098 97.1752869,268.85577 97.1752869,270.423443 C97.1752869,271.991115 98.7409795,273.558787 100.306672,273.558787 C101.872365,273.558787 103.438057,271.991115 103.438057,270.423443 C103.438057,268.85577 102.133314,267.288098 100.306672,267.288098 Z M77.6041287,268.333213 C75.7774873,268.333213 74.4727434,269.900885 74.4727434,271.468557 C74.4727434,273.03623 76.0384361,274.603902 77.6041287,274.603902 C79.1698214,274.603902 80.735514,273.03623 80.735514,271.468557 C80.735514,269.900885 79.4307701,268.333213 77.6041287,268.333213 Z M110.483674,258.92718 C112.310316,258.92718 113.61506,257.359508 113.61506,255.791836 C113.61506,254.224164 112.049367,252.656492 110.483674,252.656492 C108.917982,252.656492 107.352289,254.224164 107.352289,255.791836 C107.352289,257.359508 108.657033,258.92718 110.483674,258.92718 Z M110.483674,340.70741 C108.657033,340.70741 107.352289,342.275082 107.352289,343.842754 C107.352289,345.410426 108.917982,346.978098 110.483674,346.978098 C112.049367,346.978098 113.61506,345.410426 113.61506,343.842754 C113.61506,342.275082 112.310316,340.70741 110.483674,340.70741 Z M140.753732,267.288098 C138.927091,267.288098 137.622347,268.85577 137.622347,270.423443 C137.622347,271.991115 139.18804,273.558787 140.753732,273.558787 C142.580374,273.558787 143.885118,271.991115 143.885118,270.423443 C143.885118,268.85577 142.580374,267.288098 140.753732,267.288098 Z M109.178931,317.192328 C109.700828,317.453607 109.961777,317.453607 110.483674,317.453607 C112.310316,317.453607 113.61506,315.885934 113.61506,314.318262 C113.61506,313.534426 113.354111,312.75059 112.832213,312.228033 C111.788418,313.534426 110.483674,315.102098 109.178931,317.192328 Z M100.306672,296.551311 C98.4800308,296.551311 97.1752869,298.118984 97.1752869,299.686656 L97.1752869,299.686656 C98.4800308,300.73177 99.7847746,301.776885 101.089519,302.560721 C102.655211,302.299443 103.699006,300.993049 103.699006,299.425377 C103.699006,298.118984 102.133314,296.551311 100.306672,296.551311 Z M120.660677,267.288098 C118.834035,267.288098 117.529291,268.85577 117.529291,270.423443 C117.529291,271.991115 119.094984,273.558787 120.660677,273.558787 C122.226369,273.558787 123.792062,271.991115 123.792062,270.423443 C123.792062,268.85577 122.226369,267.288098 120.660677,267.288098 Z M130.57673,340.70741 C128.750089,340.70741 127.445345,342.275082 127.445345,343.842754 C127.445345,345.410426 129.011038,346.978098 130.57673,346.978098 C132.142423,346.978098 133.708115,345.410426 133.708115,343.842754 C133.708115,342.275082 132.403372,340.70741 130.57673,340.70741 Z M130.57673,311.182918 C128.750089,311.182918 127.445345,312.75059 127.445345,314.318262 C127.445345,316.147213 129.011038,317.453607 130.57673,317.453607 C132.142423,317.453607 133.708115,315.885934 133.708115,314.318262 C133.969064,312.75059 132.403372,311.182918 130.57673,311.182918 Z M130.57673,258.92718 C132.403372,258.92718 133.708115,257.359508 133.708115,255.791836 C133.708115,254.224164 132.142423,252.656492 130.57673,252.656492 C129.011038,252.656492 127.445345,254.224164 127.445345,255.791836 C127.445345,257.359508 129.011038,258.92718 130.57673,258.92718 Z M91.4344138,226.267344 C93.2610552,226.267344 94.5657991,224.699672 94.5657991,223.132 C94.5657991,221.564328 93.0001065,219.996656 91.4344138,219.996656 C89.8687212,219.996656 88.3030285,221.564328 88.3030285,223.132 C88.3030285,224.699672 89.6077724,226.267344 91.4344138,226.267344 Z M131.620525,281.919705 C129.793884,281.919705 128.48914,283.487377 128.48914,285.055049 C128.48914,286.622721 130.054833,288.190393 131.620525,288.190393 C133.186218,288.190393 134.751911,286.622721 134.751911,285.055049 C134.751911,283.487377 133.447167,281.919705 131.620525,281.919705 Z M120.660677,326.075803 C118.834035,326.075803 117.529291,327.643475 117.529291,329.211148 C117.529291,331.040098 119.094984,332.346492 120.660677,332.346492 C122.226369,332.346492 123.792062,330.77882 123.792062,329.211148 C123.792062,327.382197 122.226369,326.075803 120.660677,326.075803 Z M120.660677,296.551311 C118.834035,296.551311 117.529291,298.118984 117.529291,299.686656 C117.529291,301.254328 119.094984,302.822 120.660677,302.822 C122.226369,302.822 123.792062,301.254328 123.792062,299.686656 C123.792062,298.118984 122.226369,296.551311 120.660677,296.551311 Z" id="Shape" fill="#FFFFFF"></path>
                        <ellipse id="Oval" fill="#E29353" transform="translate(84.122968, 246.916121) rotate(-18.161363) translate(-84.122968, -246.916121) " cx="84.1229684" cy="246.916121" rx="14.0914941" ry="24.8219337"></ellipse>
                        <path d="M88.3030285,340.70741 C77.6041287,340.446131 67.1661777,338.094623 58.2939193,333.652885 C42.8979416,325.814525 33.7647344,312.228033 32.7209393,295.506197 C29.8505028,250.043705 75.7774873,232.538033 77.6041287,231.754197 C82.8231042,229.925246 88.8249261,232.276754 90.9125163,237.241049 C93.0001065,242.205344 90.3906187,247.953475 85.1716432,249.782426 C83.6059506,250.304984 51.2483024,263.107639 53.0749438,294.461082 C53.5968414,304.650951 58.5548681,311.966754 67.949024,316.66977 C83.3450018,324.246852 107.09134,322.67918 124.835857,312.75059 C129.793884,310.137803 136.056654,311.444197 138.927091,316.147213 C141.797528,320.85023 140.231835,326.598361 135.534757,329.472426 C121.182574,337.310787 104.220904,341.229967 88.3030285,340.70741 Z" id="Shape" fill="#C27F47"></path>
                        <path d="M87.781131,338.61718 C77.0822312,338.61718 66.6442801,336.526951 57.7720218,332.085213 C42.1150952,324.246852 32.7209393,310.399082 31.1552467,292.370852 C26.7191175,244.556852 72.1242044,224.699672 73.9508459,223.915836 C79.1698214,221.825607 85.1716432,224.177115 87.2592334,229.402689 C89.3468236,234.628262 86.9982846,240.637672 81.7793091,242.727902 C80.2136165,243.250459 48.1169171,257.882066 50.9873536,290.541902 C52.0311487,301.254328 56.9891754,308.83141 66.3833314,313.534426 C82.0402579,321.111508 105.786596,318.76 123.270164,307.525016 C127.967242,304.389672 134.230013,305.957344 137.361398,310.660361 C140.492784,315.363377 138.927091,321.634066 134.230013,324.76941 C120.399728,333.914164 103.699006,338.61718 87.781131,338.61718 Z" id="Shape" fill="#E29353"></path>
                    </g>
                </g>
            </g>
        </g>
    </g>
</svg>