<?xml version="1.0" encoding="UTF-8"?>
<svg width="1280px" height="300px" viewBox="0 0 1280 300" version="1.1" xmlns="http://www.w3.org/2000/svg" xmlns:xlink="http://www.w3.org/1999/xlink">
    <!-- Generator: Sketch 48.2 (47327) - http://www.bohemiancoding.com/sketch -->
    <title>Group</title>
    <desc>Created with Sketch.</desc>
    <defs></defs>
    <g id="Beach" stroke="none" stroke-width="1" fill="none" fill-rule="evenodd">
        <g id="Group">
            <g id="Beach">
                <rect id="Rectangle-path" fill="#91D9F8" fill-rule="nonzero" x="0" y="0" width="1280" height="300"></rect>
                <rect id="Rectangle-path" fill="#41BEE8" fill-rule="nonzero" x="0" y="222.9" width="1280" height="55.2"></rect>
                <rect id="Rectangle-path" fill="#ECCC88" fill-rule="nonzero" x="0" y="273" width="1280" height="27"></rect>
                <path d="M712,253 L900.8,253" id="Shape" stroke="#6BCDE6" stroke-width="3" stroke-linecap="round" stroke-linejoin="round"></path>
                <path d="M642.6,240.3 L726.4,240.3" id="Shape" stroke="#6BCDE6" stroke-width="3" stroke-linecap="round" stroke-linejoin="round"></path>
                <path d="M952.8,240.3 L1036.6,240.3" id="Shape" stroke="#6BCDE6" stroke-width="3" stroke-linecap="round" stroke-linejoin="round"></path>
                <path d="M746,106.1 C743.8,89.3 729.5,76.2 711.9,76.2 C707.7,76.2 703.6,76.9 699.9,78.4 C689.9,64.2 672.9,54.9 653.8,54.9 C632.5,54.9 614.1,66.4 604.6,83.2 C600,80.4 594.6,78.8 588.8,78.8 C573,78.8 560.1,90.8 558.3,106.1 C558.3,106.1 746,106.1 746,106.1 Z" id="Shape" fill="#B4E3F6" fill-rule="nonzero"></path>
                <path d="M549.8,158.6 C548.4,148.1 539.5,139.9 528.5,139.9 C525.9,139.9 523.3,140.4 521,141.3 C514.7,132.4 504.1,126.6 492.2,126.6 C478.9,126.6 467.3,133.8 461.5,144.3 C458.6,142.6 455.2,141.6 451.6,141.6 C441.7,141.6 433.6,149.1 432.6,158.7 L549.8,158.7 L549.8,158.6 L549.8,158.6 Z" id="Shape" fill="#B4E3F6" fill-rule="nonzero"></path>
                <path d="M1109.8,77.7 C1109,71.7 1103.9,67 1097.6,67 C1096.1,67 1094.6,67.3 1093.3,67.8 C1089.7,62.7 1083.6,59.4 1076.7,59.4 C1069,59.4 1062.4,63.5 1059,69.6 C1057.3,68.6 1055.4,68 1053.3,68 C1047.6,68 1043,72.3 1042.4,77.8 L1109.8,77.8 L1109.8,77.7 Z" id="Shape" fill="#B4E3F6" fill-rule="nonzero"></path>
                <path d="M79,244 L320,244" id="Shape" stroke="#6BCDE6" stroke-width="3" stroke-linecap="round" stroke-linejoin="round"></path>
                <path d="M502,253 L561,253" id="Shape" stroke="#6BCDE6" stroke-width="3" stroke-linecap="round" stroke-linejoin="round"></path>
                <path d="M285,257.4 L405.5,257.4" id="Shape" stroke="#6BCDE6" stroke-width="3" stroke-linecap="round" stroke-linejoin="round"></path>
            </g>
        </g>
    </g>
</svg>