<?xml version="1.0" encoding="UTF-8"?>
<svg width="1280px" height="296px" viewBox="0 0 1280 296" version="1.1" xmlns="http://www.w3.org/2000/svg" xmlns:xlink="http://www.w3.org/1999/xlink">
    <!-- Generator: Sketch 48.2 (47327) - http://www.bohemiancoding.com/sketch -->
    <title>Group 2</title>
    <desc>Created with Sketch.</desc>
    <defs>
        <rect id="path-1" x="0" y="0" width="1280" height="279"></rect>
    </defs>
    <g id="RevelBus-Typography" stroke="none" stroke-width="1" fill="none" fill-rule="evenodd" transform="translate(0.000000, -88.000000)">
        <g id="Group-2" transform="translate(0.000000, 19.000000)">
            <g id="Group">
                <g id="Landing">
                    <g id="BG" transform="translate(0.000000, 85.000000)">
                        <g id="1mastres">
                            <mask id="mask-2" fill="white">
                                <use xlink:href="#path-1"></use>
                            </mask>
                            <g id="Vineyard" mask="url(#mask-2)">
                                <g transform="translate(-1.000000, -21.000000)">
                                    <g>
                                        <path d="M1296.51758,69.1 C1296.51758,69.1 923.193359,62.9 562.009766,299.9 L1296.51758,299.9 L1296.51758,69.1 Z" id="Shape" fill="#63A70A" fill-rule="nonzero"></path>
                                        <path d="M0,43.7 C0,43.7 481.578125,51.6 944.945312,301.1 L0,301.1 L0,43.7 Z" id="Shape" fill="#77BC1F" fill-rule="nonzero"></path>
                                        <ellipse id="Oval" fill="#77BC1F" fill-rule="nonzero" cx="1241.48008" cy="73.5" rx="8.80195313" ry="8.7"></ellipse>
                                        <ellipse id="Oval" fill="#77BC1F" fill-rule="nonzero" cx="1208.09336" cy="80.1" rx="8.80195313" ry="8.7"></ellipse>
                                        <ellipse id="Oval" fill="#77BC1F" fill-rule="nonzero" cx="1277.39609" cy="95.2" rx="8.80195313" ry="8.7"></ellipse>
                                        <ellipse id="Oval" fill="#77BC1F" fill-rule="nonzero" cx="1258.37578" cy="113.2" rx="8.80195313" ry="8.7"></ellipse>
                                        <ellipse id="Oval" fill="#77BC1F" fill-rule="nonzero" cx="1286.09688" cy="104.2" rx="7.38554687" ry="7.3"></ellipse>
                                        <ellipse id="Oval" fill="#77BC1F" fill-rule="nonzero" cx="1293.48242" cy="106" rx="7.38554688" ry="7.3"></ellipse>
                                        <ellipse id="Oval" fill="#77BC1F" fill-rule="nonzero" cx="1269.50469" cy="124.2" rx="7.38554687" ry="7.3"></ellipse>
                                        <ellipse id="Oval" fill="#77BC1F" fill-rule="nonzero" cx="1251.90078" cy="143.6" rx="7.38554687" ry="7.3"></ellipse>
                                        <ellipse id="Oval" fill="#77BC1F" fill-rule="nonzero" cx="1236.42148" cy="131.7" rx="7.38554687" ry="7.3"></ellipse>
                                        <ellipse id="Oval" fill="#77BC1F" fill-rule="nonzero" cx="1155.18047" cy="85.2" rx="7.38554687" ry="7.3"></ellipse>
                                        <ellipse id="Oval" fill="#77BC1F" fill-rule="nonzero" cx="1288.42383" cy="173.3" rx="7.38554688" ry="7.3"></ellipse>
                                        <ellipse id="Oval" fill="#77BC1F" fill-rule="nonzero" cx="1236.42148" cy="100.8" rx="7.38554687" ry="7.3"></ellipse>
                                        <ellipse id="Oval" fill="#77BC1F" fill-rule="nonzero" cx="1295.7082" cy="145.5" rx="7.38554687" ry="7.3"></ellipse>
                                        <ellipse id="Oval" fill="#77BC1F" fill-rule="nonzero" cx="1260.70273" cy="153.2" rx="7.38554687" ry="7.3"></ellipse>
                                        <ellipse id="Oval" fill="#77BC1F" fill-rule="nonzero" cx="1245.42578" cy="106" rx="7.38554688" ry="7.3"></ellipse>
                                        <ellipse id="Oval" fill="#77BC1F" fill-rule="nonzero" cx="1225.29258" cy="124.4" rx="7.38554687" ry="7.3"></ellipse>
                                        <ellipse id="Oval" fill="#77BC1F" fill-rule="nonzero" cx="1180.06875" cy="98.7" rx="7.38554687" ry="7.3"></ellipse>
                                        <ellipse id="Oval" fill="#77BC1F" fill-rule="nonzero" cx="1197.1668" cy="79.6" rx="7.38554687" ry="7.3"></ellipse>
                                        <ellipse id="Oval" fill="#77BC1F" fill-rule="nonzero" cx="1185.6332" cy="76.6" rx="5.665625" ry="5.6"></ellipse>
                                        <ellipse id="Oval" fill="#77BC1F" fill-rule="nonzero" cx="1195.24453" cy="72.3" rx="5.665625" ry="5.6"></ellipse>
                                        <ellipse id="Oval" fill="#77BC1F" fill-rule="nonzero" cx="765.264062" cy="190" rx="5.665625" ry="5.6"></ellipse>
                                        <ellipse id="Oval" fill="#77BC1F" fill-rule="nonzero" cx="1259.18516" cy="68.6" rx="5.665625" ry="5.6"></ellipse>
                                        <ellipse id="Oval" fill="#77BC1F" fill-rule="nonzero" cx="1002.71445" cy="185.9" rx="5.665625" ry="5.6"></ellipse>
                                        <ellipse id="Oval" fill="#77BC1F" fill-rule="nonzero" cx="1121.18672" cy="86.5" rx="5.665625" ry="5.6"></ellipse>
                                        <ellipse id="Oval" fill="#77BC1F" fill-rule="nonzero" cx="789.646484" cy="206.8" rx="5.665625" ry="5.6"></ellipse>
                                        <ellipse id="Oval" fill="#77BC1F" fill-rule="nonzero" cx="1033.67305" cy="101" rx="5.665625" ry="5.6"></ellipse>
                                        <ellipse id="Oval" fill="#77BC1F" fill-rule="nonzero" cx="996.542969" cy="104.6" rx="5.15976562" ry="5.1"></ellipse>
                                        <ellipse id="Oval" fill="#77BC1F" fill-rule="nonzero" cx="895.371094" cy="151.3" rx="5.15976562" ry="5.1"></ellipse>
                                        <ellipse id="Oval" fill="#77BC1F" fill-rule="nonzero" cx="1158.3168" cy="76.6" rx="5.15976562" ry="5.1"></ellipse>
                                        <ellipse id="Oval" fill="#77BC1F" fill-rule="nonzero" cx="1145.46797" cy="81.3" rx="5.15976563" ry="5.1"></ellipse>
                                        <ellipse id="Oval" fill="#77BC1F" fill-rule="nonzero" cx="1152.04414" cy="76.2" rx="5.15976563" ry="5.1"></ellipse>
                                        <ellipse id="Oval" fill="#77BC1F" fill-rule="nonzero" cx="961.132812" cy="120.6" rx="5.15976562" ry="5.1"></ellipse>
                                        <ellipse id="Oval" fill="#77BC1F" fill-rule="nonzero" cx="924.710937" cy="132.6" rx="5.15976562" ry="5.1"></ellipse>
                                        <ellipse id="Oval" fill="#77BC1F" fill-rule="nonzero" cx="1241.48008" cy="141.4" rx="5.665625" ry="5.6"></ellipse>
                                        <ellipse id="Oval" fill="#77BC1F" fill-rule="nonzero" transform="translate(1278.826371, 197.308830) rotate(-23.060162) translate(-1278.826371, -197.308830) " cx="1278.82637" cy="197.30883" rx="5.66566154" ry="5.60003612"></ellipse>
                                        <ellipse id="Oval" fill="#77BC1F" fill-rule="nonzero" transform="translate(1281.051474, 204.636020) rotate(-23.060162) translate(-1281.051474, -204.636020) " cx="1281.05147" cy="204.63602" rx="5.66566154" ry="5.60003612"></ellipse>
                                        <ellipse id="Oval" fill="#77BC1F" fill-rule="nonzero" cx="1196.25625" cy="111.5" rx="5.665625" ry="5.6"></ellipse>
                                        <ellipse id="Oval" fill="#77BC1F" fill-rule="nonzero" cx="1204.45117" cy="111.5" rx="5.665625" ry="5.6"></ellipse>
                                        <ellipse id="Oval" fill="#77BC1F" fill-rule="nonzero" cx="1258.37578" cy="85.2" rx="8.80195313" ry="8.7"></ellipse>
                                        <ellipse id="Oval" fill="#77BC1F" fill-rule="nonzero" cx="1227.61953" cy="90" rx="8.80195313" ry="8.7"></ellipse>
                                        <ellipse id="Oval" fill="#77BC1F" fill-rule="nonzero" cx="1267.98711" cy="196.6" rx="8.80195313" ry="8.7"></ellipse>
                                        <ellipse id="Oval" fill="#77BC1F" fill-rule="nonzero" cx="1214.87187" cy="118" rx="8.80195313" ry="8.7"></ellipse>
                                        <ellipse id="Oval" fill="#77BC1F" fill-rule="nonzero" cx="1300.7668" cy="180.5" rx="8.80195313" ry="8.7"></ellipse>
                                        <ellipse id="Oval" fill="#77BC1F" fill-rule="nonzero" cx="1168.33281" cy="90.6" rx="8.80195313" ry="8.7"></ellipse>
                                        <ellipse id="Oval" fill="#77BC1F" fill-rule="nonzero" cx="1286.09688" cy="135.9" rx="8.80195313" ry="8.7"></ellipse>
                                        <ellipse id="Oval" fill="#77BC1F" fill-rule="nonzero" cx="1251.90078" cy="75" rx="6.475" ry="6.4"></ellipse>
                                        <ellipse id="Oval" fill="#77BC1F" fill-rule="nonzero" cx="1216.89531" cy="90" rx="6.475" ry="6.4"></ellipse>
                                        <ellipse id="Oval" fill="#77BC1F" fill-rule="nonzero" cx="1272.23633" cy="158.6" rx="6.475" ry="6.4"></ellipse>
                                        <ellipse id="Oval" fill="#77BC1F" fill-rule="nonzero" cx="1267.17773" cy="86.5" rx="6.475" ry="6.4"></ellipse>
                                        <ellipse id="Oval" fill="#77BC1F" fill-rule="nonzero" cx="1278.8125" cy="128" rx="6.475" ry="6.4"></ellipse>
                                        <ellipse id="Oval" fill="#77BC1F" fill-rule="nonzero" cx="1189.78125" cy="102.9" rx="6.475" ry="6.4"></ellipse>
                                        <ellipse id="Oval" fill="#77BC1F" fill-rule="nonzero" cx="1278.8125" cy="166.8" rx="6.475" ry="6.4"></ellipse>
                                        <ellipse id="Oval" fill="#77BC1F" fill-rule="nonzero" cx="1208.80156" cy="148.9" rx="7.38554687" ry="7.3"></ellipse>
                                        <ellipse id="Oval" fill="#77BC1F" fill-rule="nonzero" cx="1193.32227" cy="137" rx="7.38554688" ry="7.3"></ellipse>
                                        <ellipse id="Oval" fill="#77BC1F" fill-rule="nonzero" cx="1292.67305" cy="209.6" rx="7.38554687" ry="7.3"></ellipse>
                                        <ellipse id="Oval" fill="#77BC1F" fill-rule="nonzero" cx="1112.18242" cy="90.6" rx="7.38554687" ry="7.3"></ellipse>
                                        <ellipse id="Oval" fill="#77BC1F" fill-rule="nonzero" cx="1245.32461" cy="178.6" rx="7.38554687" ry="7.3"></ellipse>
                                        <ellipse id="Oval" fill="#77BC1F" fill-rule="nonzero" cx="1217.60352" cy="158.6" rx="7.38554688" ry="7.3"></ellipse>
                                        <ellipse id="Oval" fill="#77BC1F" fill-rule="nonzero" cx="1182.19336" cy="129.7" rx="7.38554688" ry="7.3"></ellipse>
                                        <ellipse id="Oval" fill="#77BC1F" fill-rule="nonzero" cx="1136.96953" cy="104.1" rx="7.38554687" ry="7.3"></ellipse>
                                        <ellipse id="Oval" fill="#77BC1F" fill-rule="nonzero" cx="1198.38086" cy="146.7" rx="5.665625" ry="5.6"></ellipse>
                                        <ellipse id="Oval" fill="#77BC1F" fill-rule="nonzero" cx="1161.35195" cy="143.5" rx="3.33867187" ry="3.3"></ellipse>
                                        <ellipse id="Oval" fill="#77BC1F" fill-rule="nonzero" cx="1167.82695" cy="186.3" rx="3.33867187" ry="3.3"></ellipse>
                                        <ellipse id="Oval" fill="#77BC1F" fill-rule="nonzero" cx="1242.18828" cy="240.7" rx="3.33867187" ry="3.3"></ellipse>
                                        <ellipse id="Oval" fill="#77BC1F" fill-rule="nonzero" cx="1233.99336" cy="139.5" rx="3.33867187" ry="3.3"></ellipse>
                                        <ellipse id="Oval" fill="#77BC1F" fill-rule="nonzero" cx="1229.84531" cy="103.8" rx="3.33867187" ry="3.3"></ellipse>
                                        <ellipse id="Oval" fill="#77BC1F" fill-rule="nonzero" cx="1153.2582" cy="116.8" rx="5.665625" ry="5.6"></ellipse>
                                        <ellipse id="Oval" fill="#77BC1F" fill-rule="nonzero" cx="1161.35195" cy="116.8" rx="5.665625" ry="5.6"></ellipse>
                                        <ellipse id="Oval" fill="#77BC1F" fill-rule="nonzero" cx="1171.77266" cy="123.3" rx="8.80195313" ry="8.7"></ellipse>
                                        <ellipse id="Oval" fill="#77BC1F" fill-rule="nonzero" cx="1257.76875" cy="185.9" rx="8.80195313" ry="8.7"></ellipse>
                                        <ellipse id="Oval" fill="#77BC1F" fill-rule="nonzero" cx="1125.23359" cy="95.9" rx="8.80195313" ry="8.7"></ellipse>
                                        <ellipse id="Oval" fill="#77BC1F" fill-rule="nonzero" cx="1229.23828" cy="163.9" rx="6.475" ry="6.4"></ellipse>
                                        <ellipse id="Oval" fill="#77BC1F" fill-rule="nonzero" cx="1146.68203" cy="108.2" rx="6.475" ry="6.4"></ellipse>
                                        <ellipse id="Oval" fill="#77BC1F" fill-rule="nonzero" cx="1235.71328" cy="172.2" rx="6.475" ry="6.4"></ellipse>
                                        <g id="Group" transform="translate(1037.011719, 88.000000)" fill="#77BC1F" fill-rule="nonzero">
                                            <ellipse id="Oval" transform="translate(227.826008, 132.596461) rotate(-1.791222) translate(-227.826008, -132.596461) " cx="227.826008" cy="132.596461" rx="7.38546293" ry="7.29991702"></ellipse>
                                            <ellipse id="Oval" transform="translate(196.997636, 109.087230) rotate(-24.853173) translate(-196.997636, -109.087230) " cx="196.997636" cy="109.08723" rx="5.66570106" ry="5.60007518"></ellipse>
                                            <ellipse id="Oval" transform="translate(253.050284, 151.179650) rotate(-24.853173) translate(-253.050284, -151.179650) " cx="253.050284" cy="151.17965" rx="5.66570106" ry="5.60007518"></ellipse>
                                            <ellipse id="Oval" transform="translate(199.509288, 116.288360) rotate(-24.853173) translate(-199.509288, -116.288360) " cx="199.509288" cy="116.28836" rx="5.66570106" ry="5.60007518"></ellipse>
                                            <ellipse id="Oval" transform="translate(186.242345, 108.697185) rotate(-1.791222) translate(-186.242345, -108.697185) " cx="186.242345" cy="108.697185" rx="8.80185308" ry="8.69990111"></ellipse>
                                            <ellipse id="Oval" transform="translate(243.505697, 145.896823) rotate(-1.791222) translate(-243.505697, -145.896823) " cx="243.505697" cy="145.896823" rx="8.80185308" ry="8.69990111"></ellipse>
                                            <ellipse id="Oval" transform="translate(125.540451, 62.898821) rotate(-1.791222) translate(-125.540451, -62.898821) " cx="125.540451" cy="62.898821" rx="7.38546293" ry="7.29991702"></ellipse>
                                            <ellipse id="Oval" transform="translate(109.658103, 51.498560) rotate(-1.791222) translate(-109.658103, -51.498560) " cx="109.658103" cy="51.4985602" rx="7.38546293" ry="7.29991702"></ellipse>
                                            <ellipse id="Oval" transform="translate(209.007552, 121.396746) rotate(-1.791222) translate(-209.007552, -121.396746) " cx="209.007552" cy="121.396746" rx="7.38546293" ry="7.29991702"></ellipse>
                                            <ellipse id="Oval" transform="translate(27.001547, 7.600329) rotate(-1.791222) translate(-27.001547, -7.600329) " cx="27.001547" cy="7.60032914" rx="7.38546293" ry="7.29991702"></ellipse>
                                            <ellipse id="Oval" transform="translate(8.384596, 12.998563) rotate(-1.791222) translate(-8.384596, -12.998563) " cx="8.38459587" cy="12.9985629" rx="7.38546293" ry="7.29991702"></ellipse>
                                            <ellipse id="Oval" transform="translate(162.972864, 91.397852) rotate(-1.791222) translate(-162.972864, -91.397852) " cx="162.972864" cy="91.3978521" rx="7.38546293" ry="7.29991702"></ellipse>
                                            <ellipse id="Oval" transform="translate(134.647658, 72.297606) rotate(-1.791222) translate(-134.647658, -72.297606) " cx="134.647658" cy="72.2976056" rx="7.38546293" ry="7.29991702"></ellipse>
                                            <ellipse id="Oval" transform="translate(98.327283, 44.598392) rotate(-1.791222) translate(-98.327283, -44.598392) " cx="98.3272828" cy="44.5983916" rx="7.38546293" ry="7.29991702"></ellipse>
                                            <ellipse id="Oval" transform="translate(52.294078, 20.298147) rotate(-1.791222) translate(-52.294078, -20.298147) " cx="52.294078" cy="20.2981474" rx="7.38546293" ry="7.29991702"></ellipse>
                                            <ellipse id="Oval" transform="translate(115.020637, 61.098097) rotate(-1.791222) translate(-115.020637, -61.098097) " cx="115.020637" cy="61.0980967" rx="5.6655606" ry="5.59993635"></ellipse>
                                            <ellipse id="Oval" transform="translate(231.769924, 140.697108) rotate(-1.791222) translate(-231.769924, -140.697108) " cx="231.769924" cy="140.697108" rx="5.6655606" ry="5.59993635"></ellipse>
                                            <ellipse id="Oval" transform="translate(68.884787, 32.500028) rotate(-1.791222) translate(-68.884787, -32.500028) " cx="68.8847871" cy="32.5000282" rx="5.6655606" ry="5.59993635"></ellipse>
                                            <ellipse id="Oval" transform="translate(266.979237, 165.895655) rotate(-1.791222) translate(-266.979237, -165.895655) " cx="266.979237" cy="165.895655" rx="5.6655606" ry="5.59993635"></ellipse>
                                            <ellipse id="Oval" transform="translate(218.821255, 125.596751) rotate(-1.791222) translate(-218.821255, -125.596751) " cx="218.821255" cy="125.596751" rx="5.6655606" ry="5.59993635"></ellipse>
                                            <ellipse id="Oval" transform="translate(77.081225, 32.299744) rotate(-1.791222) translate(-77.081225, -32.299744) " cx="77.081225" cy="32.2997443" rx="5.6655606" ry="5.59993635"></ellipse>
                                            <ellipse id="Oval" transform="translate(87.704318, 38.498043) rotate(-1.791222) translate(-87.704318, -38.498043) " cx="87.7043175" cy="38.4980429" rx="8.80185308" ry="8.69990111"></ellipse>
                                            <ellipse id="Oval" transform="translate(175.620082, 98.296786) rotate(-1.791222) translate(-175.620082, -98.296786) " cx="175.620082" cy="98.2967862" rx="8.80185308" ry="8.69990111"></ellipse>
                                            <ellipse id="Oval" transform="translate(40.354677, 12.498083) rotate(-1.791222) translate(-40.354677, -12.498083) " cx="40.3546771" cy="12.4980832" rx="8.80185308" ry="8.69990111"></ellipse>
                                            <ellipse id="Oval" transform="translate(146.383279, 77.298121) rotate(-1.791222) translate(-146.383279, -77.298121) " cx="146.383279" cy="77.2981213" rx="6.4749264" ry="6.39992725"></ellipse>
                                            <ellipse id="Oval" transform="translate(62.209532, 24.197476) rotate(-1.791222) translate(-62.209532, -24.197476) " cx="62.2095322" cy="24.1974761" rx="6.4749264" ry="6.39992725"></ellipse>
                                            <ellipse id="Oval" transform="translate(153.159880, 85.297298) rotate(-1.791222) translate(-153.159880, -85.297298) " cx="153.15988" cy="85.2972976" rx="6.4749264" ry="6.39992725"></ellipse>
                                            <ellipse id="Oval" transform="translate(257.873299, 160.596320) rotate(-1.791222) translate(-257.873299, -160.596320) " cx="257.873299" cy="160.59632" rx="6.4749264" ry="6.39992725"></ellipse>
                                        </g>
                                        <g id="Group" transform="translate(877.160156, 102.000000)" fill="#77BC1F" fill-rule="nonzero">
                                            <ellipse id="Oval" transform="translate(374.402480, 153.185292) rotate(-88.744768) translate(-374.402480, -153.185292) " cx="374.40248" cy="153.185292" rx="7.58819398" ry="7.50029984"></ellipse>
                                            <ellipse id="Oval" transform="translate(344.048204, 127.440850) rotate(-21.808857) translate(-344.048204, -127.440850) " cx="344.048204" cy="127.44085" rx="5.76662044" ry="5.69982561"></ellipse>
                                            <ellipse id="Oval" transform="translate(399.258445, 173.644630) rotate(-21.808857) translate(-399.258445, -173.644630) " cx="399.258445" cy="173.64463" rx="5.76662044" ry="5.69982561"></ellipse>
                                            <ellipse id="Oval" transform="translate(346.243159, 134.933250) rotate(-21.808857) translate(-346.243159, -134.933250) " cx="346.243159" cy="134.93325" rx="5.76662044" ry="5.69982561"></ellipse>
                                            <ellipse id="Oval" transform="translate(333.030813, 126.448094) rotate(-88.744768) translate(-333.030813, -126.448094) " cx="333.030813" cy="126.448094" rx="9.00465685" ry="8.90035581"></ellipse>
                                            <ellipse id="Oval" transform="translate(389.821142, 167.770975) rotate(-88.744768) translate(-389.821142, -167.770975) " cx="389.821142" cy="167.770975" rx="9.00465685" ry="8.90035581"></ellipse>
                                            <ellipse id="Oval" transform="translate(273.285536, 76.088049) rotate(-88.744768) translate(-273.285536, -76.088049) " cx="273.285536" cy="76.0880493" rx="7.58819398" ry="7.50029984"></ellipse>
                                            <ellipse id="Oval" transform="translate(257.503716, 63.452430) rotate(-88.744768) translate(-257.503716, -63.452430) " cx="257.503716" cy="63.4524297" rx="7.58819398" ry="7.50029984"></ellipse>
                                            <ellipse id="Oval" transform="translate(355.690559, 140.689754) rotate(-88.744768) translate(-355.690559, -140.689754) " cx="355.690559" cy="140.689754" rx="7.58819398" ry="7.50029984"></ellipse>
                                            <ellipse id="Oval" transform="translate(175.113666, 13.880731) rotate(-88.744768) translate(-175.113666, -13.880731) " cx="175.113666" cy="13.8807308" rx="7.58819398" ry="7.50029984"></ellipse>
                                            <ellipse id="Oval" transform="translate(310.118833, 107.454920) rotate(-88.744768) translate(-310.118833, -107.454920) " cx="310.118833" cy="107.45492" rx="7.58819398" ry="7.50029984"></ellipse>
                                            <ellipse id="Oval" transform="translate(282.100006, 86.182850) rotate(-88.744768) translate(-282.100006, -86.182850) " cx="282.100006" cy="86.1828505" rx="7.58819398" ry="7.50029984"></ellipse>
                                            <ellipse id="Oval" transform="translate(246.245796, 55.801405) rotate(-88.744768) translate(-246.245796, -55.801405) " cx="246.245796" cy="55.8014054" rx="7.58819398" ry="7.50029984"></ellipse>
                                            <ellipse id="Oval" transform="translate(200.314574, 28.326072) rotate(-88.744768) translate(-200.314574, -28.326072) " cx="200.314574" cy="28.3260723" rx="7.58819398" ry="7.50029984"></ellipse>
                                            <ellipse id="Oval" transform="translate(262.535807, 73.599262) rotate(-88.744768) translate(-262.535807, -73.599262) " cx="262.535807" cy="73.5992616" rx="5.76702742" ry="5.70022788"></ellipse>
                                            <ellipse id="Oval" transform="translate(378.035507, 161.764513) rotate(-88.744768) translate(-378.035507, -161.764513) " cx="378.035507" cy="161.764513" rx="5.76702742" ry="5.70022788"></ellipse>
                                            <ellipse id="Oval" transform="translate(216.772501, 41.851257) rotate(-88.744768) translate(-216.772501, -41.851257) " cx="216.772501" cy="41.8512574" rx="5.76702742" ry="5.70022788"></ellipse>
                                            <ellipse id="Oval" transform="translate(412.850825, 189.540089) rotate(-88.744768) translate(-412.850825, -189.540089) " cx="412.850825" cy="189.540089" rx="5.76702742" ry="5.70022788"></ellipse>
                                            <ellipse id="Oval" transform="translate(365.603297, 145.569539) rotate(-88.744768) translate(-365.603297, -145.569539) " cx="365.603297" cy="145.569539" rx="5.76702742" ry="5.70022788"></ellipse>
                                            <ellipse id="Oval" transform="translate(225.215779, 41.960019) rotate(-88.744768) translate(-225.215779, -41.960019) " cx="225.215779" cy="41.9600189" rx="5.76702742" ry="5.70022788"></ellipse>
                                            <ellipse id="Oval" transform="translate(235.695427, 48.993737) rotate(-88.744768) translate(-235.695427, -48.993737) " cx="235.695427" cy="48.9937375" rx="9.00465685" ry="8.90035581"></ellipse>
                                            <ellipse id="Oval" transform="translate(322.658083, 115.230584) rotate(-88.744768) translate(-322.658083, -115.230584) " cx="322.658083" cy="115.230584" rx="9.00465685" ry="8.90035581"></ellipse>
                                            <ellipse id="Oval" transform="translate(188.491738, 19.699732) rotate(-88.744768) translate(-188.491738, -19.699732) " cx="188.491738" cy="19.6997316" rx="9.00465685" ry="8.90035581"></ellipse>
                                            <ellipse id="Oval" transform="translate(9.982884, 46.199398) rotate(-88.744768) translate(-9.982884, -46.199398) " cx="9.98288401" cy="46.1993978" rx="9.00465685" ry="8.90035581"></ellipse>
                                            <ellipse id="Oval" transform="translate(164.405883, 9.243257) rotate(-88.744768) translate(-164.405883, -9.243257) " cx="164.405883" cy="9.24325691" rx="9.00465685" ry="8.90035581"></ellipse>
                                            <ellipse id="Oval" transform="translate(293.819838, 92.024241) rotate(-88.744768) translate(-293.819838, -92.024241) " cx="293.819838" cy="92.0242406" rx="6.6776107" ry="6.60026386"></ellipse>
                                            <ellipse id="Oval" transform="translate(210.248731, 32.876714) rotate(-88.744768) translate(-210.248731, -32.876714) " cx="210.248731" cy="32.876714" rx="6.6776107" ry="6.60026386"></ellipse>
                                            <ellipse id="Oval" transform="translate(300.374011, 100.585132) rotate(-88.744768) translate(-300.374011, -100.585132) " cx="300.374011" cy="100.585132" rx="6.6776107" ry="6.60026386"></ellipse>
                                            <ellipse id="Oval" transform="translate(403.725958, 183.579866) rotate(-88.744768) translate(-403.725958, -183.579866) " cx="403.725958" cy="183.579866" rx="6.6776107" ry="6.60026386"></ellipse>
                                        </g>
                                        <g id="Group" transform="translate(989.460938, 104.000000)" fill="#77BC1F" fill-rule="nonzero">
                                            <ellipse id="Oval" transform="translate(217.472803, 150.852952) rotate(-89.485513) translate(-217.472803, -150.852952) " cx="217.472803" cy="150.852952" rx="7.89172441" ry="7.80031447"></ellipse>
                                            <ellipse id="Oval" transform="translate(185.566054, 124.568440) rotate(-22.544059) translate(-185.566054, -124.568440) " cx="185.566054" cy="124.56844" rx="5.96923768" ry="5.90009593"></ellipse>
                                            <ellipse id="Oval" transform="translate(243.649637, 171.962620) rotate(-22.544059) translate(-243.649637, -171.962620) " cx="243.649637" cy="171.96262" rx="5.96923768" ry="5.90009593"></ellipse>
                                            <ellipse id="Oval" transform="translate(188.011378, 132.446820) rotate(-22.544059) translate(-188.011378, -132.446820) " cx="188.011378" cy="132.44682" rx="5.96923768" ry="5.90009593"></ellipse>
                                            <ellipse id="Oval" transform="translate(174.108888, 123.639404) rotate(-89.485513) translate(-174.108888, -123.639404) " cx="174.108888" cy="123.639404" rx="9.40936372" ry="9.30037495"></ellipse>
                                            <ellipse id="Oval" transform="translate(233.726951, 165.804248) rotate(-89.485513) translate(-233.726951, -165.804248) " cx="233.726951" cy="165.804248" rx="9.40936372" ry="9.30037495"></ellipse>
                                            <ellipse id="Oval" transform="translate(111.311970, 72.080048) rotate(-89.485513) translate(-111.311970, -72.080048) " cx="111.31197" cy="72.080048" rx="7.89172441" ry="7.80031447"></ellipse>
                                            <ellipse id="Oval" transform="translate(94.728109, 59.175012) rotate(-89.485513) translate(-94.728109, -59.175012) " cx="94.7281091" cy="59.1750116" rx="7.89172441" ry="7.80031447"></ellipse>
                                            <ellipse id="Oval" transform="translate(197.897961, 138.116210) rotate(-89.485513) translate(-197.897961, -138.116210) " cx="197.897961" cy="138.11621" rx="7.89172441" ry="7.80031447"></ellipse>
                                            <ellipse id="Oval" transform="translate(8.371066, 8.763133) rotate(-89.485513) translate(-8.371066, -8.763133) " cx="8.37106591" cy="8.76313337" rx="7.89172441" ry="7.80031447"></ellipse>
                                            <ellipse id="Oval" transform="translate(149.979682, 104.150299) rotate(-89.485513) translate(-149.979682, -104.150299) " cx="149.979682" cy="104.150299" rx="7.89172441" ry="7.80031447"></ellipse>
                                            <ellipse id="Oval" transform="translate(120.529247, 82.433739) rotate(-89.485513) translate(-120.529247, -82.433739) " cx="120.529247" cy="82.4337392" rx="7.89172441" ry="7.80031447"></ellipse>
                                            <ellipse id="Oval" transform="translate(82.977135, 51.327170) rotate(-89.485513) translate(-82.977135, -51.327170) " cx="82.9771347" cy="51.3271697" rx="7.89172441" ry="7.80031447"></ellipse>
                                            <ellipse id="Oval" transform="translate(34.830315, 23.419435) rotate(-89.485513) translate(-34.830315, -23.419435) " cx="34.8303145" cy="23.4194353" rx="7.89172441" ry="7.80031447"></ellipse>
                                            <ellipse id="Oval" transform="translate(100.059659, 69.684199) rotate(-89.485513) translate(-100.059659, -69.684199) " cx="100.059659" cy="69.6841987" rx="5.96938128" ry="5.90023787"></ellipse>
                                            <ellipse id="Oval" transform="translate(221.374419, 159.779672) rotate(-89.485513) translate(-221.374419, -159.779672) " cx="221.374419" cy="159.779672" rx="5.96938128" ry="5.90023787"></ellipse>
                                            <ellipse id="Oval" transform="translate(52.107692, 37.179056) rotate(-89.485513) translate(-52.107692, -37.179056) " cx="52.1076919" cy="37.1790556" rx="5.96938128" ry="5.90023787"></ellipse>
                                            <ellipse id="Oval" transform="translate(257.905729, 188.112996) rotate(-89.485513) translate(-257.905729, -188.112996) " cx="257.905729" cy="188.112996" rx="5.96938128" ry="5.90023787"></ellipse>
                                            <ellipse id="Oval" transform="translate(208.205243, 143.003711) rotate(-89.485513) translate(-208.205243, -143.003711) " cx="208.205243" cy="143.003711" rx="5.96938128" ry="5.90023787"></ellipse>
                                            <ellipse id="Oval" transform="translate(60.787051, 37.312656) rotate(-89.485513) translate(-60.787051, -37.312656) " cx="60.7870507" cy="37.3126556" rx="5.96938128" ry="5.90023787"></ellipse>
                                            <ellipse id="Oval" transform="translate(71.844913, 44.384612) rotate(-89.485513) translate(-71.844913, -44.384612) " cx="71.844913" cy="44.3846116" rx="9.40936372" ry="9.30037495"></ellipse>
                                            <ellipse id="Oval" transform="translate(163.183357, 112.059539) rotate(-89.485513) translate(-163.183357, -112.059539) " cx="163.183357" cy="112.059539" rx="9.40936372" ry="9.30037495"></ellipse>
                                            <ellipse id="Oval" transform="translate(22.405244, 14.632614) rotate(-89.485513) translate(-22.405244, -14.632614) " cx="22.4052442" cy="14.6326138" rx="9.40936372" ry="9.30037495"></ellipse>
                                            <ellipse id="Oval" transform="translate(132.924878, 88.286020) rotate(-89.485513) translate(-132.924878, -88.286020) " cx="132.924878" cy="88.2860196" rx="6.98114082" ry="6.90027819"></ellipse>
                                            <ellipse id="Oval" transform="translate(45.172702, 27.964244) rotate(-89.485513) translate(-45.172702, -27.964244) " cx="45.1727017" cy="27.9642441" rx="6.98114082" ry="6.90027819"></ellipse>
                                            <ellipse id="Oval" transform="translate(139.794817, 97.269339) rotate(-89.485513) translate(-139.794817, -97.269339) " cx="139.794817" cy="97.2693391" rx="6.98114082" ry="6.90027819"></ellipse>
                                            <ellipse id="Oval" transform="translate(248.356005, 182.108420) rotate(-89.485513) translate(-248.356005, -182.108420) " cx="248.356005" cy="182.10842" rx="6.98114082" ry="6.90027819"></ellipse>
                                        </g>
                                        <path d="M1171.16563,265.5 C1171.36797,270.2 1168.13047,274.3 1163.98242,274.5 C1159.83438,274.7 1156.39453,271.1 1156.19219,266.3 C1155.98984,261.6 1159.22734,257.5 1163.37539,257.3 C1167.52344,257.1 1170.96328,260.7 1171.16563,265.5 Z" id="Shape" fill="#77BC1F" fill-rule="nonzero"></path>
                                        <path d="M1134.64258,244.7 C1131.80977,246.3 1128.36992,244.9 1127.05469,241.7 C1125.73945,238.5 1126.95352,234.5 1129.78633,232.9 C1132.61914,231.3 1136.05898,232.7 1137.37422,235.9 C1138.68945,239.2 1137.47539,243.1 1134.64258,244.7 Z" id="Shape" fill="#77BC1F" fill-rule="nonzero"></path>
                                        <path d="M1191.90586,293.3 C1189.07305,294.9 1185.6332,293.5 1184.31797,290.3 C1183.00273,287 1184.2168,283.1 1187.04961,281.5 C1189.88242,279.9 1193.32227,281.3 1194.6375,284.5 C1196.05391,287.8 1194.73867,291.7 1191.90586,293.3 Z" id="Shape" fill="#77BC1F" fill-rule="nonzero"></path>
                                        <path d="M1137.27305,253.2 C1134.44023,254.8 1131.00039,253.4 1129.68516,250.2 C1128.36992,247 1129.58398,243 1132.4168,241.4 C1135.24961,239.8 1138.68945,241.2 1140.00469,244.4 C1141.31992,247.7 1140.10586,251.6 1137.27305,253.2 Z" id="Shape" fill="#77BC1F" fill-rule="nonzero"></path>
                                        <path d="M1130.19102,238 C1130.39336,243.7 1126.54883,248.5 1121.59141,248.8 C1116.63398,249.1 1112.48594,244.7 1112.28359,239.1 C1112.08125,233.4 1115.92578,228.6 1120.8832,228.3 C1125.84063,228 1129.98867,232.4 1130.19102,238 Z" id="Shape" fill="#77BC1F" fill-rule="nonzero"></path>
                                        <path d="M1188.66836,280.8 C1188.8707,286.5 1185.02617,291.3 1180.06875,291.6 C1175.11133,291.9 1170.96328,287.5 1170.76094,281.9 C1170.55859,276.2 1174.40312,271.4 1179.36055,271.1 C1184.31797,270.8 1188.46602,275.2 1188.66836,280.8 Z" id="Shape" fill="#77BC1F" fill-rule="nonzero"></path>
                                        <path d="M1066.65508,185.2 C1066.85742,189.9 1063.61992,194 1059.47188,194.2 C1055.32383,194.4 1051.88398,190.8 1051.68164,186 C1051.4793,181.3 1054.7168,177.2 1058.86484,177 C1063.01289,176.8 1066.45273,180.5 1066.65508,185.2 Z" id="Shape" fill="#77BC1F" fill-rule="nonzero"></path>
                                        <path d="M1050.36641,172 C1050.56875,176.7 1047.33125,180.8 1043.1832,181 C1039.03516,181.2 1035.59531,177.6 1035.39297,172.8 C1035.19062,168.1 1038.42812,164 1042.57617,163.8 C1046.72422,163.6 1050.26523,167.2 1050.36641,172 Z" id="Shape" fill="#77BC1F" fill-rule="nonzero"></path>
                                        <path d="M1151.94297,252.6 C1152.14531,257.3 1148.90781,261.4 1144.75977,261.6 C1140.61172,261.8 1137.17188,258.2 1136.96953,253.4 C1136.76719,248.7 1140.00469,244.6 1144.15273,244.4 C1148.30078,244.2 1151.74063,247.9 1151.94297,252.6 Z" id="Shape" fill="#77BC1F" fill-rule="nonzero"></path>
                                        <path d="M976.005078,120.2 C976.207422,124.9 972.969922,129 968.821875,129.2 C964.673828,129.4 961.233984,125.8 961.031641,121 C960.829297,116.3 964.066797,112.2 968.214844,112 C972.464063,111.8 975.903906,115.4 976.005078,120.2 Z" id="Shape" fill="#77BC1F" fill-rule="nonzero"></path>
                                        <path d="M1104.89805,218.2 C1105.10039,222.9 1101.86289,227 1097.71484,227.2 C1093.5668,227.4 1090.12695,223.8 1089.92461,219 C1089.72227,214.3 1092.95977,210.2 1097.10781,210 C1101.25586,209.8 1104.79688,213.4 1104.89805,218.2 Z" id="Shape" fill="#77BC1F" fill-rule="nonzero"></path>
                                        <path d="M1075.96289,196.1 C1076.16523,200.8 1072.92773,204.9 1068.77969,205.1 C1064.63164,205.3 1061.1918,201.7 1060.98945,196.9 C1060.78711,192.2 1064.02461,188.1 1068.17266,187.9 C1072.3207,187.7 1075.76055,191.3 1075.96289,196.1 Z" id="Shape" fill="#77BC1F" fill-rule="nonzero"></path>
                                        <path d="M1038.83281,164 C1039.03516,168.7 1035.79766,172.8 1031.64961,173 C1027.50156,173.2 1024.06172,169.6 1023.85938,164.8 C1023.65703,160.1 1026.89453,156 1031.04258,155.8 C1035.19063,155.6 1038.63047,159.3 1038.83281,164 Z" id="Shape" fill="#77BC1F" fill-rule="nonzero"></path>
                                        <path d="M991.787891,136.3 C991.990234,141 988.752734,145.1 984.604688,145.3 C980.456641,145.5 977.016797,141.9 976.814453,137.1 C976.612109,132.4 979.849609,128.3 983.997656,128.1 C988.145703,127.9 991.585547,131.5 991.787891,136.3 Z" id="Shape" fill="#77BC1F" fill-rule="nonzero"></path>
                                        <path d="M1054.21094,183.3 C1054.31211,186.9 1051.88398,190 1048.74766,190.2 C1045.61133,190.4 1042.98086,187.6 1042.77852,184 C1042.67734,180.4 1045.10547,177.3 1048.2418,177.1 C1051.37813,176.9 1054.00859,179.7 1054.21094,183.3 Z" id="Shape" fill="#77BC1F" fill-rule="nonzero"></path>
                                        <path d="M1173.49258,275.1 C1173.59375,278.7 1171.16562,281.8 1168.0293,282 C1164.89297,282.2 1162.2625,279.4 1162.06016,275.8 C1161.95898,272.2 1164.38711,269.1 1167.52344,268.9 C1170.76094,268.7 1173.39141,271.5 1173.49258,275.1 Z" id="Shape" fill="#77BC1F" fill-rule="nonzero"></path>
                                        <path d="M1007.06484,150.5 C1007.16602,154.1 1004.73789,157.2 1001.60156,157.4 C998.465234,157.6 995.834766,154.8 995.632422,151.2 C995.53125,147.6 997.959375,144.5 1001.0957,144.3 C1004.23203,144.1 1006.96367,146.9 1007.06484,150.5 Z" id="Shape" fill="#77BC1F" fill-rule="nonzero"></path>
                                        <path d="M1209.50977,304.1 C1209.61094,307.7 1207.18281,310.8 1204.04648,311 C1200.91016,311.2 1198.27969,308.4 1198.07734,304.8 C1197.97617,301.2 1200.4043,298.1 1203.54063,297.9 C1206.67695,297.7 1209.30742,300.5 1209.50977,304.1 Z" id="Shape" fill="#77BC1F" fill-rule="nonzero"></path>
                                        <path d="M1160.23906,257.5 C1160.34023,261.1 1157.91211,264.2 1154.77578,264.4 C1151.63945,264.6 1149.00898,261.8 1148.80664,258.2 C1148.70547,254.6 1151.13359,251.5 1154.26992,251.3 C1157.40625,251.1 1160.03672,253.8 1160.23906,257.5 Z" id="Shape" fill="#77BC1F" fill-rule="nonzero"></path>
                                        <path d="M1015.36094,150 C1015.46211,153.6 1013.03398,156.7 1009.89766,156.9 C1006.76133,157.1 1004.13086,154.3 1003.92852,150.7 C1003.82734,147.1 1006.25547,144 1009.3918,143.8 C1012.6293,143.6 1015.25977,146.4 1015.36094,150 Z" id="Shape" fill="#77BC1F" fill-rule="nonzero"></path>
                                        <path d="M1029.42383,157 C1029.62617,162.7 1025.78164,167.5 1020.82422,167.8 C1015.8668,168.1 1011.71875,163.7 1011.51641,158.1 C1011.31406,152.4 1015.15859,147.6 1020.11602,147.3 C1025.07344,146.9 1029.22148,151.3 1029.42383,157 Z" id="Shape" fill="#77BC1F" fill-rule="nonzero"></path>
                                        <path d="M1119.26445,225.9 C1119.4668,231.6 1115.62227,236.4 1110.66484,236.7 C1105.70742,237 1101.55937,232.6 1101.35703,227 C1101.15469,221.4 1104.99922,216.5 1109.95664,216.2 C1114.91406,215.9 1119.06211,220.3 1119.26445,225.9 Z" id="Shape" fill="#77BC1F" fill-rule="nonzero"></path>
                                        <path d="M981.063672,127.3 C981.266016,133 977.421484,137.8 972.464063,138.1 C967.506641,138.4 963.358594,134 963.15625,128.4 C962.953906,122.7 966.798438,117.9 971.755859,117.6 C976.713281,117.3 980.861328,121.6 981.063672,127.3 Z" id="Shape" fill="#77BC1F" fill-rule="nonzero"></path>
                                        <path d="M914.290234,144.8 C914.492578,150.5 910.648047,155.3 905.690625,155.6 C900.733203,155.9 896.585156,151.5 896.382813,145.9 C896.180469,140.2 900.025,135.4 904.982422,135.1 C909.939844,134.7 914.087891,139.1 914.290234,144.8 Z" id="Shape" fill="#77BC1F" fill-rule="nonzero"></path>
                                        <path d="M1087.0918,201.8 C1087.19297,206 1084.36016,209.6 1080.71797,209.8 C1077.07578,210 1074.04063,206.8 1073.83828,202.6 C1073.63594,198.4 1076.56992,194.8 1080.21211,194.6 C1083.8543,194.4 1086.88945,197.6 1087.0918,201.8 Z" id="Shape" fill="#77BC1F" fill-rule="nonzero"></path>
                                        <path d="M1000.99453,140.7 C1001.0957,144.9 998.262891,148.5 994.620703,148.7 C990.978516,148.9 987.943359,145.7 987.741016,141.5 C987.639844,137.3 990.472656,133.7 994.114844,133.5 C997.858203,133.3 1000.89336,136.5 1000.99453,140.7 Z" id="Shape" fill="#77BC1F" fill-rule="nonzero"></path>
                                        <path d="M1093.97148,211.2 C1094.07266,215.4 1091.23984,219 1087.59766,219.2 C1083.95547,219.4 1080.92031,216.2 1080.71797,212 C1080.6168,207.8 1083.44961,204.2 1087.0918,204 C1090.73398,203.8 1093.87031,207 1093.97148,211.2 Z" id="Shape" fill="#77BC1F" fill-rule="nonzero"></path>
                                        <path d="M1201.1125,298 C1201.21367,302.2 1198.38086,305.8 1194.73867,306 C1191.09648,306.2 1188.06133,303 1187.85898,298.8 C1187.75781,294.6 1190.59062,291 1194.23281,290.8 C1197.875,290.6 1200.91016,293.8 1201.1125,298 Z" id="Shape" fill="#77BC1F" fill-rule="nonzero"></path>
                                        <g id="Group" transform="translate(923.699219, 125.000000)" fill="#77BC1F" fill-rule="nonzero">
                                            <ellipse id="Oval" transform="translate(204.408089, 150.947066) rotate(-87.421755) translate(-204.408089, -150.947066) " cx="204.408089" cy="150.947066" rx="7.48681077" ry="7.50009218"></ellipse>
                                            <path d="M176.747266,130 C173.712109,131.1 170.474609,129.6 169.361719,126.7 C168.248828,123.8 169.766406,120.5 172.801563,119.4 C175.836719,118.3 179.074219,119.8 180.187109,122.7 C181.198828,125.7 179.68125,128.9 176.747266,130 Z" id="Shape"></path>
                                            <path d="M230.773047,177.2 C227.737891,178.3 224.500391,176.8 223.3875,173.9 C222.274609,171 223.792188,167.7 226.827344,166.6 C229.8625,165.5 233.1,167 234.212891,169.9 C235.224609,172.8 233.707031,176.1 230.773047,177.2 Z" id="Shape"></path>
                                            <path d="M178.669531,137.6 C175.634375,138.7 172.396875,137.2 171.283984,134.3 C170.171094,131.4 171.688672,128.1 174.723828,127 C177.758984,125.9 180.996484,127.4 182.109375,130.3 C183.222266,133.2 181.704687,136.5 178.669531,137.6 Z" id="Shape"></path>
                                            <path d="M172.700391,123.9 C172.498047,128.8 168.248828,132.6 163.291406,132.3 C158.333984,132.1 154.489453,127.9 154.691797,123.1 C154.894141,118.2 159.143359,114.4 164.100781,114.7 C169.058203,114.9 172.902734,119 172.700391,123.9 Z" id="Shape"></path>
                                            <path d="M228.344922,166.2 C228.142578,171.1 223.893359,174.9 218.935938,174.6 C213.978516,174.4 210.133984,170.2 210.336328,165.4 C210.538672,160.6 214.787891,156.7 219.745313,157 C224.803906,157.1 228.648438,161.3 228.344922,166.2 Z" id="Shape"></path>
                                            <ellipse id="Oval" transform="translate(105.282561, 72.253906) rotate(-87.421755) translate(-105.282561, -72.253906) " cx="105.282561" cy="72.2539063" rx="7.48681077" ry="7.50009218"></ellipse>
                                            <ellipse id="Oval" transform="translate(89.883028, 59.402710) rotate(-87.421755) translate(-89.883028, -59.402710) " cx="89.8830278" cy="59.4027096" rx="7.48681077" ry="7.50009218"></ellipse>
                                            <ellipse id="Oval" transform="translate(185.950582, 138.165869) rotate(-87.421755) translate(-185.950582, -138.165869) " cx="185.950582" cy="138.165869" rx="7.48681077" ry="7.50009218"></ellipse>
                                            <ellipse id="Oval" transform="translate(8.808402, 8.331913) rotate(-87.421755) translate(-8.808402, -8.331913) " cx="8.80840183" cy="8.33191338" rx="7.48681077" ry="7.50009218"></ellipse>
                                            <ellipse id="Oval" transform="translate(141.221582, 104.164105) rotate(-87.421755) translate(-141.221582, -104.164105) " cx="141.221582" cy="104.164105" rx="7.48681077" ry="7.50009218"></ellipse>
                                            <ellipse id="Oval" transform="translate(113.827908, 82.403446) rotate(-87.421755) translate(-113.827908, -82.403446) " cx="113.827908" cy="82.4034456" rx="7.48681077" ry="7.50009218"></ellipse>
                                            <ellipse id="Oval" transform="translate(78.826229, 51.468534) rotate(-87.421755) translate(-78.826229, -51.468534) " cx="78.8262285" cy="51.4685341" rx="7.48681077" ry="7.50009218"></ellipse>
                                            <ellipse id="Oval" transform="translate(33.558395, 23.228680) rotate(-87.421755) translate(-33.558395, -23.228680) " cx="33.5583952" cy="23.2286801" rx="7.48681077" ry="7.50009218"></ellipse>
                                            <ellipse id="Oval" transform="translate(94.540400, 69.519750) rotate(-87.421755) translate(-94.540400, -69.519750) " cx="94.5404001" cy="69.5197504" rx="5.76686775" ry="5.70007006"></ellipse>
                                            <ellipse id="Oval" transform="translate(207.823091, 159.522730) rotate(-87.421755) translate(-207.823091, -159.522730) " cx="207.823091" cy="159.52273" rx="5.76686775" ry="5.70007006"></ellipse>
                                            <ellipse id="Oval" transform="translate(49.704060, 36.959463) rotate(-87.421755) translate(-49.704060, -36.959463) " cx="49.70406" cy="36.9594626" rx="5.76686775" ry="5.70007006"></ellipse>
                                            <ellipse id="Oval" transform="translate(241.750139, 187.812986) rotate(-87.421755) translate(-241.750139, -187.812986) " cx="241.750139" cy="187.812986" rx="5.76686775" ry="5.70007006"></ellipse>
                                            <ellipse id="Oval" transform="translate(195.743968, 143.194689) rotate(-87.421755) translate(-195.743968, -143.194689) " cx="195.743968" cy="143.194689" rx="5.76686775" ry="5.70007006"></ellipse>
                                            <ellipse id="Oval" transform="translate(58.029462, 37.332658) rotate(-87.421755) translate(-58.029462, -37.332658) " cx="58.0294624" cy="37.3326579" rx="5.76686775" ry="5.70007006"></ellipse>
                                            <path d="M77.3964844,44.9 C77.1941406,49.8 72.9449219,53.6 67.9875,53.3 C63.0300781,53.1 59.1855469,48.9 59.3878906,44.1 C59.5902344,39.2 63.8394531,35.4 68.796875,35.7 C73.7542969,35.8 77.5988281,40 77.3964844,44.9 Z" id="Shape"></path>
                                            <path d="M162.684375,112.5 C162.482031,117.4 158.232812,121.2 153.275391,120.9 C148.317969,120.7 144.473437,116.5 144.675781,111.7 C144.878125,106.8 149.127344,103 154.084766,103.3 C159.042187,103.6 162.886719,107.6 162.684375,112.5 Z" id="Shape"></path>
                                            <path d="M30.9585938,14.8 C30.75625,19.7 26.5070313,23.5 21.5496094,23.2 C16.5921875,23 12.7476563,18.8 12.95,14 C13.1523438,9.1 17.4015625,5.3 22.3589844,5.6 C27.3164063,5.8 31.1609375,9.9 30.9585938,14.8 Z" id="Shape"></path>
                                            <ellipse id="Oval" transform="translate(125.466942, 88.403551) rotate(-87.421755) translate(-125.466942, -88.403551) " cx="125.466942" cy="88.403551" rx="6.5762527" ry="6.60008112"></ellipse>
                                            <ellipse id="Oval" transform="translate(43.375453, 27.939006) rotate(-87.421755) translate(-43.375453, -27.939006) " cx="43.3754534" cy="27.9390061" rx="6.5762527" ry="6.60008112"></ellipse>
                                            <ellipse id="Oval" transform="translate(131.726752, 97.116714) rotate(-87.421755) translate(-131.726752, -97.116714) " cx="131.726752" cy="97.1167139" rx="6.5762527" ry="6.60008112"></ellipse>
                                            <ellipse id="Oval" transform="translate(232.940941, 181.762581) rotate(-87.421755) translate(-232.940941, -181.762581) " cx="232.940941" cy="181.762581" rx="6.5762527" ry="6.60008112"></ellipse>
                                        </g>
                                        <g id="Group" transform="translate(892.335938, 148.000000)" fill="#77BC1F" fill-rule="nonzero">
                                            <ellipse id="Oval" transform="translate(200.290568, 146.175430) rotate(-87.919041) translate(-200.290568, -146.175430) " cx="200.290568" cy="146.17543" rx="7.38524744" ry="7.29970404"></ellipse>
                                            <ellipse id="Oval" transform="translate(171.160595, 120.735890) rotate(-20.977863) translate(-171.160595, -120.735890) " cx="171.160595" cy="120.73589" rx="5.66551081" ry="5.59988713"></ellipse>
                                            <ellipse id="Oval" transform="translate(224.160473, 166.446580) rotate(-20.977863) translate(-224.160473, -166.446580) " cx="224.160473" cy="166.44658" rx="5.66551081" ry="5.59988713"></ellipse>
                                            <ellipse id="Oval" transform="translate(173.186258, 128.135170) rotate(-20.977863) translate(-173.186258, -128.135170) " cx="173.186258" cy="128.13517" rx="5.66551081" ry="5.59988713"></ellipse>
                                            <ellipse id="Oval" transform="translate(160.385144, 119.643701) rotate(-87.919041) translate(-160.385144, -119.643701) " cx="160.385144" cy="119.643701" rx="8.80159627" ry="8.69964728"></ellipse>
                                            <ellipse id="Oval" transform="translate(214.961792, 160.626815) rotate(-87.919041) translate(-214.961792, -160.626815) " cx="214.961792" cy="160.626815" rx="8.80159627" ry="8.69964728"></ellipse>
                                            <ellipse id="Oval" transform="translate(103.049095, 69.948127) rotate(-87.919041) translate(-103.049095, -69.948127) " cx="103.049095" cy="69.9481272" rx="7.38524744" ry="7.29970404"></ellipse>
                                            <ellipse id="Oval" transform="translate(87.951751, 57.466121) rotate(-87.919041) translate(-87.951751, -57.466121) " cx="87.9517511" cy="57.4661206" rx="7.38524744" ry="7.29970404"></ellipse>
                                            <ellipse id="Oval" transform="translate(182.291242, 133.769925) rotate(-87.919041) translate(-182.291242, -133.769925) " cx="182.291242" cy="133.769925" rx="7.38524744" ry="7.29970404"></ellipse>
                                            <ellipse id="Oval" transform="translate(8.537662, 8.140981) rotate(-87.919041) translate(-8.537662, -8.140981) " cx="8.53766159" cy="8.14098116" rx="7.38524744" ry="7.29970404"></ellipse>
                                            <ellipse id="Oval" transform="translate(138.371256, 100.874410) rotate(-87.919041) translate(-138.371256, -100.874410) " cx="138.371256" cy="100.87441" rx="7.38524744" ry="7.29970404"></ellipse>
                                            <ellipse id="Oval" transform="translate(111.437027, 79.792277) rotate(-87.919041) translate(-111.437027, -79.792277) " cx="111.437027" cy="79.7922775" rx="7.38524744" ry="7.29970404"></ellipse>
                                            <ellipse id="Oval" transform="translate(77.061481, 49.796643) rotate(-87.919041) translate(-77.061481, -49.796643) " cx="77.0614806" cy="49.7966426" rx="7.38524744" ry="7.29970404"></ellipse>
                                            <ellipse id="Oval" transform="translate(32.778375, 22.522516) rotate(-87.919041) translate(-32.778375, -22.522516) " cx="32.7783752" cy="22.522516" rx="7.38524744" ry="7.29970404"></ellipse>
                                            <ellipse id="Oval" transform="translate(92.618534, 67.313181) rotate(-87.919041) translate(-92.618534, -67.313181) " cx="92.6185341" cy="67.3131809" rx="5.6653953" ry="5.59977296"></ellipse>
                                            <ellipse id="Oval" transform="translate(203.688470, 154.640645) rotate(-87.919041) translate(-203.688470, -154.640645) " cx="203.68847" cy="154.640645" rx="5.6653953" ry="5.59977296"></ellipse>
                                            <ellipse id="Oval" transform="translate(48.635001, 35.850592) rotate(-87.919041) translate(-48.635001, -35.850592) " cx="48.6350007" cy="35.8505918" rx="5.6653953" ry="5.59977296"></ellipse>
                                            <ellipse id="Oval" transform="translate(237.030020, 182.056243) rotate(-87.919041) translate(-237.030020, -182.056243) " cx="237.03002" cy="182.056243" rx="5.6653953" ry="5.59977296"></ellipse>
                                            <ellipse id="Oval" transform="translate(191.756938, 138.604693) rotate(-87.919041) translate(-191.756938, -138.604693) " cx="191.756938" cy="138.604693" rx="5.6653953" ry="5.59977296"></ellipse>
                                            <ellipse id="Oval" transform="translate(56.824967, 36.133655) rotate(-87.919041) translate(-56.824967, -36.133655) " cx="56.8249672" cy="36.1336548" rx="5.6653953" ry="5.59977296"></ellipse>
                                            <ellipse id="Oval" transform="translate(66.860348, 43.024964) rotate(-87.919041) translate(-66.860348, -43.024964) " cx="66.8603484" cy="43.0249637" rx="8.80159627" ry="8.69964728"></ellipse>
                                            <ellipse id="Oval" transform="translate(150.491578, 108.548198) rotate(-87.919041) translate(-150.491578, -108.548198) " cx="150.491578" cy="108.548198" rx="8.80159627" ry="8.69964728"></ellipse>
                                            <ellipse id="Oval" transform="translate(21.435467, 13.927140) rotate(-87.919041) translate(-21.435467, -13.927140) " cx="21.4354667" cy="13.9271399" rx="8.80159627" ry="8.69964728"></ellipse>
                                            <ellipse id="Oval" transform="translate(122.841742, 85.627016) rotate(-87.919041) translate(-122.841742, -85.627016) " cx="122.841742" cy="85.6270162" rx="6.47473748" ry="6.39974052"></ellipse>
                                            <ellipse id="Oval" transform="translate(42.459033, 27.046393) rotate(-87.919041) translate(-42.459033, -27.046393) " cx="42.4590326" cy="27.0463926" rx="6.47473748" ry="6.39974052"></ellipse>
                                            <ellipse id="Oval" transform="translate(129.040686, 94.131222) rotate(-87.919041) translate(-129.040686, -94.131222) " cx="129.040686" cy="94.1312223" rx="6.47473748" ry="6.39974052"></ellipse>
                                            <ellipse id="Oval" transform="translate(228.302795, 176.173393) rotate(-87.919041) translate(-228.302795, -176.173393) " cx="228.302795" cy="176.173393" rx="6.47473748" ry="6.39974052"></ellipse>
                                        </g>
                                        <g id="Group" transform="translate(844.785156, 154.000000)" fill="#77BC1F" fill-rule="nonzero">
                                            <ellipse id="Oval" transform="translate(199.623842, 146.498694) rotate(-87.919041) translate(-199.623842, -146.498694) " cx="199.623842" cy="146.498694" rx="7.38524744" ry="7.29970404"></ellipse>
                                            <ellipse id="Oval" transform="translate(170.457663, 121.045000) rotate(-20.977863) translate(-170.457663, -121.045000) " cx="170.457663" cy="121.045" rx="5.66551081" ry="5.59988713"></ellipse>
                                            <ellipse id="Oval" transform="translate(223.457541, 166.755690) rotate(-20.977863) translate(-223.457541, -166.755690) " cx="223.457541" cy="166.75569" rx="5.66551081" ry="5.59988713"></ellipse>
                                            <ellipse id="Oval" transform="translate(172.483326, 128.444280) rotate(-20.977863) translate(-172.483326, -128.444280) " cx="172.483326" cy="128.44428" rx="5.66551081" ry="5.59988713"></ellipse>
                                            <ellipse id="Oval" transform="translate(159.718418, 119.966864) rotate(-87.919041) translate(-159.718418, -119.966864) " cx="159.718418" cy="119.966864" rx="8.80159627" ry="8.69964728"></ellipse>
                                            <ellipse id="Oval" transform="translate(214.298740, 160.850149) rotate(-87.919041) translate(-214.298740, -160.850149) " cx="214.29874" cy="160.850149" rx="8.80159627" ry="8.69964728"></ellipse>
                                            <ellipse id="Oval" transform="translate(102.386042, 70.171461) rotate(-87.919041) translate(-102.386042, -70.171461) " cx="102.386042" cy="70.171461" rx="7.38524744" ry="7.29970404"></ellipse>
                                            <ellipse id="Oval" transform="translate(87.288699, 57.689454) rotate(-87.919041) translate(-87.288699, -57.689454) " cx="87.2886988" cy="57.6894544" rx="7.38524744" ry="7.29970404"></ellipse>
                                            <ellipse id="Oval" transform="translate(181.624516, 134.093188) rotate(-87.919041) translate(-181.624516, -134.093188) " cx="181.624516" cy="134.093188" rx="7.38524744" ry="7.29970404"></ellipse>
                                            <ellipse id="Oval" transform="translate(7.874609, 8.364315) rotate(-87.919041) translate(-7.874609, -8.364315) " cx="7.87460925" cy="8.36431498" rx="7.38524744" ry="7.29970404"></ellipse>
                                            <ellipse id="Oval" transform="translate(137.704530, 101.197674) rotate(-87.919041) translate(-137.704530, -101.197674) " cx="137.70453" cy="101.197674" rx="7.38524744" ry="7.29970404"></ellipse>
                                            <ellipse id="Oval" transform="translate(110.770200, 80.115641) rotate(-87.919041) translate(-110.770200, -80.115641) " cx="110.7702" cy="80.1156413" rx="7.38524744" ry="7.29970404"></ellipse>
                                            <ellipse id="Oval" transform="translate(76.398428, 50.019976) rotate(-87.919041) translate(-76.398428, -50.019976) " cx="76.3984283" cy="50.0199764" rx="7.38524744" ry="7.29970404"></ellipse>
                                            <ellipse id="Oval" transform="translate(32.115323, 22.745850) rotate(-87.919041) translate(-32.115323, -22.745850) " cx="32.1153228" cy="22.7458498" rx="7.38524744" ry="7.29970404"></ellipse>
                                            <ellipse id="Oval" transform="translate(91.951808, 67.636545) rotate(-87.919041) translate(-91.951808, -67.636545) " cx="91.9518082" cy="67.6365447" rx="5.6653953" ry="5.59977296"></ellipse>
                                            <ellipse id="Oval" transform="translate(203.025417, 154.863979) rotate(-87.919041) translate(-203.025417, -154.863979) " cx="203.025417" cy="154.863979" rx="5.6653953" ry="5.59977296"></ellipse>
                                            <ellipse id="Oval" transform="translate(47.971948, 36.073926) rotate(-87.919041) translate(-47.971948, -36.073926) " cx="47.9719483" cy="36.0739256" rx="5.6653953" ry="5.59977296"></ellipse>
                                            <ellipse id="Oval" transform="translate(236.363294, 182.379407) rotate(-87.919041) translate(-236.363294, -182.379407) " cx="236.363294" cy="182.379407" rx="5.6653953" ry="5.59977296"></ellipse>
                                            <ellipse id="Oval" transform="translate(191.090212, 138.927857) rotate(-87.919041) translate(-191.090212, -138.927857) " cx="191.090212" cy="138.927857" rx="5.6653953" ry="5.59977296"></ellipse>
                                            <ellipse id="Oval" transform="translate(56.161915, 36.357089) rotate(-87.919041) translate(-56.161915, -36.357089) " cx="56.1619149" cy="36.3570886" rx="5.6653953" ry="5.59977296"></ellipse>
                                            <ellipse id="Oval" transform="translate(66.197397, 43.248298) rotate(-87.919041) translate(-66.197397, -43.248298) " cx="66.1973973" cy="43.2482975" rx="8.80159627" ry="8.69964728"></ellipse>
                                            <ellipse id="Oval" transform="translate(149.824852, 108.871362) rotate(-87.919041) translate(-149.824852, -108.871362) " cx="149.824852" cy="108.871362" rx="8.80159627" ry="8.69964728"></ellipse>
                                            <ellipse id="Oval" transform="translate(20.768640, 14.250404) rotate(-87.919041) translate(-20.768640, -14.250404) " cx="20.7686396" cy="14.2504037" rx="8.80159627" ry="8.69964728"></ellipse>
                                            <ellipse id="Oval" transform="translate(122.175016, 85.950280) rotate(-87.919041) translate(-122.175016, -85.950280) " cx="122.175016" cy="85.9502801" rx="6.47473748" ry="6.39974052"></ellipse>
                                            <ellipse id="Oval" transform="translate(41.795980, 27.269626) rotate(-87.919041) translate(-41.795980, -27.269626) " cx="41.7959802" cy="27.2696264" rx="6.47473748" ry="6.39974052"></ellipse>
                                            <ellipse id="Oval" transform="translate(128.377634, 94.354456) rotate(-87.919041) translate(-128.377634, -94.354456) " cx="128.377634" cy="94.3544562" rx="6.47473748" ry="6.39974052"></ellipse>
                                            <ellipse id="Oval" transform="translate(227.636069, 176.496757) rotate(-87.919041) translate(-227.636069, -176.496757) " cx="227.636069" cy="176.496757" rx="6.47473748" ry="6.39974052"></ellipse>
                                        </g>
                                        <g id="Group" transform="translate(803.304688, 163.000000)" fill="#77BC1F" fill-rule="nonzero">
                                            <ellipse id="Oval" transform="translate(199.690945, 146.208362) rotate(-87.919041) translate(-199.690945, -146.208362) " cx="199.690945" cy="146.208362" rx="7.38524744" ry="7.29970404"></ellipse>
                                            <ellipse id="Oval" transform="translate(170.549396, 120.740690) rotate(-20.977863) translate(-170.549396, -120.740690) " cx="170.549396" cy="120.74069" rx="5.66551081" ry="5.59988713"></ellipse>
                                            <ellipse id="Oval" transform="translate(223.585595, 166.544650) rotate(-20.977863) translate(-223.585595, -166.544650) " cx="223.585595" cy="166.54465" rx="5.66551081" ry="5.59988713"></ellipse>
                                            <ellipse id="Oval" transform="translate(172.575160, 128.139870) rotate(-20.977863) translate(-172.575160, -128.139870) " cx="172.57516" cy="128.13987" rx="5.66551081" ry="5.59988713"></ellipse>
                                            <ellipse id="Oval" transform="translate(159.785420, 119.676633) rotate(-87.919041) translate(-159.785420, -119.676633) " cx="159.78542" cy="119.676633" rx="8.80159627" ry="8.69964728"></ellipse>
                                            <ellipse id="Oval" transform="translate(214.466843, 160.563448) rotate(-87.919041) translate(-214.466843, -160.563448) " cx="214.466843" cy="160.563448" rx="8.80159627" ry="8.69964728"></ellipse>
                                            <ellipse id="Oval" transform="translate(102.453145, 69.881229) rotate(-87.919041) translate(-102.453145, -69.881229) " cx="102.453145" cy="69.8812291" rx="7.38524744" ry="7.29970404"></ellipse>
                                            <ellipse id="Oval" transform="translate(87.355802, 57.399123) rotate(-87.919041) translate(-87.355802, -57.399123) " cx="87.3558017" cy="57.3991225" rx="7.38524744" ry="7.29970404"></ellipse>
                                            <ellipse id="Oval" transform="translate(181.691518, 133.802856) rotate(-87.919041) translate(-181.691518, -133.802856) " cx="181.691518" cy="133.802856" rx="7.38524744" ry="7.29970404"></ellipse>
                                            <ellipse id="Oval" transform="translate(7.937937, 8.173913) rotate(-87.919041) translate(-7.937937, -8.173913) " cx="7.93793746" cy="8.17391311" rx="7.38524744" ry="7.29970404"></ellipse>
                                            <ellipse id="Oval" transform="translate(137.771633, 100.907342) rotate(-87.919041) translate(-137.771633, -100.907342) " cx="137.771633" cy="100.907342" rx="7.38524744" ry="7.29970404"></ellipse>
                                            <ellipse id="Oval" transform="translate(110.837303, 79.825209) rotate(-87.919041) translate(-110.837303, -79.825209) " cx="110.837303" cy="79.8252094" rx="7.38524744" ry="7.29970404"></ellipse>
                                            <ellipse id="Oval" transform="translate(76.562858, 49.833206) rotate(-87.919041) translate(-76.562858, -49.833206) " cx="76.5628575" cy="49.8332055" rx="7.38524744" ry="7.29970404"></ellipse>
                                            <ellipse id="Oval" transform="translate(32.283527, 22.459149) rotate(-87.919041) translate(-32.283527, -22.459149) " cx="32.2835268" cy="22.459149" rx="7.38524744" ry="7.29970404"></ellipse>
                                            <ellipse id="Oval" transform="translate(92.018810, 67.346313) rotate(-87.919041) translate(-92.018810, -67.346313) " cx="92.01881" cy="67.3463128" rx="5.6653953" ry="5.59977296"></ellipse>
                                            <ellipse id="Oval" transform="translate(203.088847, 154.673577) rotate(-87.919041) translate(-203.088847, -154.673577) " cx="203.088847" cy="154.673577" rx="5.6653953" ry="5.59977296"></ellipse>
                                            <ellipse id="Oval" transform="translate(48.038950, 35.783694) rotate(-87.919041) translate(-48.038950, -35.783694) " cx="48.0389501" cy="35.7836937" rx="5.6653953" ry="5.59977296"></ellipse>
                                            <ellipse id="Oval" transform="translate(236.430295, 182.089175) rotate(-87.919041) translate(-236.430295, -182.089175) " cx="236.430295" cy="182.089175" rx="5.6653953" ry="5.59977296"></ellipse>
                                            <ellipse id="Oval" transform="translate(191.157315, 138.637625) rotate(-87.919041) translate(-191.157315, -138.637625) " cx="191.157315" cy="138.637625" rx="5.6653953" ry="5.59977296"></ellipse>
                                            <ellipse id="Oval" transform="translate(56.228917, 36.066757) rotate(-87.919041) translate(-56.228917, -36.066757) " cx="56.2289166" cy="36.0667568" rx="5.6653953" ry="5.59977296"></ellipse>
                                            <ellipse id="Oval" transform="translate(66.365500, 42.961697) rotate(-87.919041) translate(-66.365500, -42.961697) " cx="66.3655001" cy="42.9616966" rx="8.80159627" ry="8.69964728"></ellipse>
                                            <ellipse id="Oval" transform="translate(149.891854, 108.581130) rotate(-87.919041) translate(-149.891854, -108.581130) " cx="149.891854" cy="108.58113" rx="8.80159627" ry="8.69964728"></ellipse>
                                            <ellipse id="Oval" transform="translate(20.835743, 13.960072) rotate(-87.919041) translate(-20.835743, -13.960072) " cx="20.8357425" cy="13.9600719" rx="8.80159627" ry="8.69964728"></ellipse>
                                            <ellipse id="Oval" transform="translate(122.242018, 85.659948) rotate(-87.919041) translate(-122.242018, -85.659948) " cx="122.242018" cy="85.6599482" rx="6.47473748" ry="6.39974052"></ellipse>
                                            <ellipse id="Oval" transform="translate(41.862982, 26.979395) rotate(-87.919041) translate(-41.862982, -26.979395) " cx="41.862982" cy="26.9793946" rx="6.47473748" ry="6.39974052"></ellipse>
                                            <ellipse id="Oval" transform="translate(128.440962, 94.164154) rotate(-87.919041) translate(-128.440962, -94.164154) " cx="128.440962" cy="94.1641543" rx="6.47473748" ry="6.39974052"></ellipse>
                                            <ellipse id="Oval" transform="translate(227.703172, 176.206325) rotate(-87.919041) translate(-227.703172, -176.206325) " cx="227.703172" cy="176.206325" rx="6.47473748" ry="6.39974052"></ellipse>
                                        </g>
                                        <g id="Group" transform="translate(768.906250, 181.000000)" fill="#77BC1F" fill-rule="nonzero">
                                            <ellipse id="Oval" transform="translate(199.565082, 146.144343) rotate(-87.919041) translate(-199.565082, -146.144343) " cx="199.565082" cy="146.144343" rx="7.38524744" ry="7.29970404"></ellipse>
                                            <ellipse id="Oval" transform="translate(170.473041, 120.737090) rotate(-20.977863) translate(-170.473041, -120.737090) " cx="170.473041" cy="120.73709" rx="5.66551081" ry="5.59988713"></ellipse>
                                            <ellipse id="Oval" transform="translate(223.472919, 166.447680) rotate(-20.977863) translate(-223.472919, -166.447680) " cx="223.472919" cy="166.44768" rx="5.66551081" ry="5.59988713"></ellipse>
                                            <ellipse id="Oval" transform="translate(172.462485, 128.042900) rotate(-20.977863) translate(-172.462485, -128.042900) " cx="172.462485" cy="128.0429" rx="5.66551081" ry="5.59988713"></ellipse>
                                            <ellipse id="Oval" transform="translate(159.760759, 119.616145) rotate(-87.919041) translate(-159.760759, -119.616145) " cx="159.760759" cy="119.616145" rx="8.80159627" ry="8.69964728"></ellipse>
                                            <ellipse id="Oval" transform="translate(214.341081, 160.499429) rotate(-87.919041) translate(-214.341081, -160.499429) " cx="214.341081" cy="160.499429" rx="8.80159627" ry="8.69964728"></ellipse>
                                            <ellipse id="Oval" transform="translate(102.327282, 69.817110) rotate(-87.919041) translate(-102.327282, -69.817110) " cx="102.327282" cy="69.8171105" rx="7.38524744" ry="7.29970404"></ellipse>
                                            <ellipse id="Oval" transform="translate(87.229938, 57.335104) rotate(-87.919041) translate(-87.229938, -57.335104) " cx="87.2299384" cy="57.3351038" rx="7.38524744" ry="7.29970404"></ellipse>
                                            <ellipse id="Oval" transform="translate(181.565755, 133.738838) rotate(-87.919041) translate(-181.565755, -133.738838) " cx="181.565755" cy="133.738838" rx="7.38524744" ry="7.29970404"></ellipse>
                                            <ellipse id="Oval" transform="translate(7.815849, 8.009964) rotate(-87.919041) translate(-7.815849, -8.009964) " cx="7.81584888" cy="8.00996444" rx="7.38524744" ry="7.29970404"></ellipse>
                                            <ellipse id="Oval" transform="translate(137.746871, 100.846955) rotate(-87.919041) translate(-137.746871, -100.846955) " cx="137.746871" cy="100.846955" rx="7.38524744" ry="7.29970404"></ellipse>
                                            <ellipse id="Oval" transform="translate(110.711541, 79.761191) rotate(-87.919041) translate(-110.711541, -79.761191) " cx="110.711541" cy="79.7611908" rx="7.38524744" ry="7.29970404"></ellipse>
                                            <ellipse id="Oval" transform="translate(76.437095, 49.769187) rotate(-87.919041) translate(-76.437095, -49.769187) " cx="76.4370954" cy="49.7691869" rx="7.38524744" ry="7.29970404"></ellipse>
                                            <ellipse id="Oval" transform="translate(32.157765, 22.395130) rotate(-87.919041) translate(-32.157765, -22.395130) " cx="32.1577647" cy="22.3951303" rx="7.38524744" ry="7.29970404"></ellipse>
                                            <ellipse id="Oval" transform="translate(91.994149, 67.285825) rotate(-87.919041) translate(-91.994149, -67.285825) " cx="91.9941489" cy="67.2858251" rx="5.6653953" ry="5.59977296"></ellipse>
                                            <ellipse id="Oval" transform="translate(202.962983, 154.609558) rotate(-87.919041) translate(-202.962983, -154.609558) " cx="202.962983" cy="154.609558" rx="5.6653953" ry="5.59977296"></ellipse>
                                            <ellipse id="Oval" transform="translate(47.913188, 35.719575) rotate(-87.919041) translate(-47.913188, -35.719575) " cx="47.913188" cy="35.719575" rx="5.6653953" ry="5.59977296"></ellipse>
                                            <ellipse id="Oval" transform="translate(236.405634, 182.028687) rotate(-87.919041) translate(-236.405634, -182.028687) " cx="236.405634" cy="182.028687" rx="5.6653953" ry="5.59977296"></ellipse>
                                            <ellipse id="Oval" transform="translate(191.132553, 138.577137) rotate(-87.919041) translate(-191.132553, -138.577137) " cx="191.132553" cy="138.577137" rx="5.6653953" ry="5.59977296"></ellipse>
                                            <ellipse id="Oval" transform="translate(56.103155, 36.002638) rotate(-87.919041) translate(-56.103155, -36.002638) " cx="56.1031545" cy="36.0026381" rx="5.6653953" ry="5.59977296"></ellipse>
                                            <ellipse id="Oval" transform="translate(66.239738, 42.897578) rotate(-87.919041) translate(-66.239738, -42.897578) " cx="66.239738" cy="42.897578" rx="8.80159627" ry="8.69964728"></ellipse>
                                            <ellipse id="Oval" transform="translate(149.867192, 108.520643) rotate(-87.919041) translate(-149.867192, -108.520643) " cx="149.867192" cy="108.520643" rx="8.80159627" ry="8.69964728"></ellipse>
                                            <ellipse id="Oval" transform="translate(20.709980, 13.895953) rotate(-87.919041) translate(-20.709980, -13.895953) " cx="20.7099804" cy="13.8959532" rx="8.80159627" ry="8.69964728"></ellipse>
                                            <ellipse id="Oval" transform="translate(122.116255, 85.595930) rotate(-87.919041) translate(-122.116255, -85.595930) " cx="122.116255" cy="85.5959295" rx="6.47473748" ry="6.39974052"></ellipse>
                                            <ellipse id="Oval" transform="translate(41.737220, 26.915276) rotate(-87.919041) translate(-41.737220, -26.915276) " cx="41.7372199" cy="26.9152759" rx="6.47473748" ry="6.39974052"></ellipse>
                                            <ellipse id="Oval" transform="translate(128.318873, 94.000106) rotate(-87.919041) translate(-128.318873, -94.000106) " cx="128.318873" cy="94.0001056" rx="6.47473748" ry="6.39974052"></ellipse>
                                            <ellipse id="Oval" transform="translate(227.678410, 176.145937) rotate(-87.919041) translate(-227.678410, -176.145937) " cx="227.67841" cy="176.145937" rx="6.47473748" ry="6.39974052"></ellipse>
                                        </g>
                                    </g>
                                </g>
                            </g>
                        </g>
                    </g>
                    <g id="Clouds" opacity="0.442312047" transform="translate(429.000000, 106.000000)" fill="#FFFFFF">
                        <g id="Shape">
                            <path d="M183.575385,50.15 C181.452308,33.7166667 167.44,20.9666667 150.313846,20.9666667 C146.209231,20.9666667 142.246154,21.675 138.566154,23.0916667 C128.8,9.20833333 112.24,0.141666667 93.5569231,0.141666667 C72.7507692,0.141666667 54.7753846,11.3333333 45.5753846,27.7666667 C41.0461538,25.075 35.8092308,23.5166667 30.1476923,23.5166667 C14.72,23.5166667 2.12307692,35.275 0.424615385,50.15 L183.575385,50.15 L183.575385,50.15 Z" fill-rule="nonzero"></path>
                        </g>
                    </g>
                    <g id="Clouds" opacity="0.499150815" transform="translate(1079.000000, 103.000000)" fill="#FFFFFF">
                        <g id="Shape">
                            <path d="M74.8269231,20.65 C73.9615385,13.8833333 68.25,8.63333333 61.2692308,8.63333333 C59.5961538,8.63333333 57.9807692,8.925 56.4807692,9.50833333 C52.5,3.79166667 45.75,0.0583333333 38.1346154,0.0583333333 C29.6538462,0.0583333333 22.3269231,4.66666667 18.5769231,11.4333333 C16.7307692,10.325 14.5961538,9.68333333 12.2884615,9.68333333 C6,9.68333333 0.865384615,14.525 0.173076923,20.65 L74.8269231,20.65 L74.8269231,20.65 Z" fill-rule="nonzero"></path>
                        </g>
                    </g>
                    <g id="Wine_Character" transform="translate(625.000000, 67.000000)">
                        <g>
                            <ellipse id="Oval" fill="#561D42" fill-rule="nonzero" transform="translate(17.154682, 135.638786) rotate(-70.840286) translate(-17.154682, -135.638786) " cx="17.154682" cy="135.638786" rx="6.77249619" ry="14.1318485"></ellipse>
                            <rect id="Rectangle-path" fill="#561D42" fill-rule="nonzero" transform="translate(20.162740, 127.036970) rotate(-70.840286) translate(-20.162740, -127.036970) " x="11.235359" y="125.500899" width="17.8547627" height="3.07214099"></rect>
                            <path d="M175.162745,171.734021 C177.933333,168.661856 179.472549,164.360825 178.241176,160.059794 C176.394118,153.608247 169.929412,149.921649 163.464706,151.457732 C160.694118,152.072165 95.4313725,168.047423 35.4019608,104.760825 C30.7843137,99.8453608 23.0882353,99.8453608 18.4705882,104.453608 C13.545098,109.061856 13.545098,116.742268 18.1627451,121.350515 C88.3509804,196.004124 166.543137,176.035052 169.621569,175.113402 C171.776471,174.498969 173.623529,173.270103 175.162745,171.734021 Z" id="Shape" fill="#B87149" fill-rule="nonzero"></path>
                            <path d="M57.5666667,83.5628866 C53.5647059,94.9298969 41.2509804,100.76701 30.1686275,96.7731959 C18.7784314,92.7793814 12.9294118,80.4907216 16.9313725,69.4309278 L26.7823529,52.5340206 L60.3372549,64.2082474 L57.5666667,83.5628866 Z" id="Shape" fill="#561D42" fill-rule="nonzero"></path>
                            <path d="M26.7823529,109.061856 L26.1666667,109.061856 C25.2431373,108.754639 24.9352941,107.83299 25.2431373,107.218557 L31.0921569,90.3216495 C31.4,89.4 32.3235294,89.0927835 32.9392157,89.4 C33.8627451,89.7072165 34.1705882,90.628866 33.8627451,91.243299 L28.0137255,108.140206 C28.0137255,108.754639 27.3980392,109.061856 26.7823529,109.061856 Z" id="Shape" fill="#561D42" fill-rule="nonzero"></path>
                            <path d="M164.080392,297.385567 L272.133333,297.385567 C267.515686,261.748454 226.572549,241.164948 226.572549,241.164948 C241.041176,223.039175 255.509804,179.721649 253.047059,154.529897 C250.276471,129.338144 227.803922,115.513402 227.803922,115.513402 L153.613725,144.698969 C153.613725,144.698969 129.601961,164.668041 131.141176,185.865979 C132.372549,205.835052 155.768627,216.587629 155.768627,216.587629 L164.080392,297.385567 Z" id="Shape" fill="#525AA7" fill-rule="nonzero"></path>
                            <path d="M161.001961,44.8536082 C161.001961,44.8536082 185.013725,72.5030928 229.035294,79.8762887 L226.572549,115.820619 C182.55098,133.639175 154.845098,179.414433 154.845098,179.414433 C148.996078,112.441237 161.001961,44.8536082 161.001961,44.8536082 Z" id="Shape" fill="#B87149" fill-rule="nonzero"></path>
                            <ellipse id="Oval" fill="#B87149" fill-rule="nonzero" transform="translate(228.116913, 154.836878) rotate(-3.254570) translate(-228.116913, -154.836878) " cx="228.116913" cy="154.836878" rx="16.6237434" ry="29.1859428"></ellipse>
                            <path d="M262.590196,259.597938 C274.288235,254.682474 284.754902,247.616495 292.45098,239.014433 C305.996078,223.960825 310.305882,204.913402 304.14902,186.173196 C287.833333,135.175258 229.958824,135.789691 227.496078,135.789691 C221.031373,135.789691 215.490196,141.012371 215.182353,147.463918 C215.182353,153.915464 220.415686,158.830928 226.880392,158.830928 C228.727451,158.830928 269.978431,158.830928 281.368627,193.853608 C285.062745,205.220619 282.907843,215.665979 274.596078,224.575258 C261.05098,239.628866 233.960784,247.923711 210.256863,244.54433 C203.792157,243.62268 196.403922,243.62268 195.172549,249.76701 C193.941176,255.91134 196.403922,264.820619 205.639216,267.278351 C224.417647,272.501031 245.35098,266.971134 262.590196,259.597938 Z" id="Shape" fill="#A16040" fill-rule="nonzero"></path>
                            <path d="M262.282353,256.83299 C274.288235,252.224742 284.754902,245.465979 292.45098,236.863918 C306.303922,221.503093 310.613725,202.148454 304.764706,182.179381 C288.756863,128.109278 230.57451,125.651546 228.111765,125.651546 C221.339216,125.34433 215.798039,130.56701 215.798039,137.325773 C215.490196,144.084536 220.723529,149.614433 227.496078,149.614433 C229.343137,149.614433 270.901961,151.764948 281.984314,188.938144 C285.678431,200.919588 283.215686,211.672165 274.903922,220.88866 C261.05098,235.942268 233.960784,243.62268 209.94902,238.707216 C203.484314,237.478351 197.019608,241.779381 195.788235,248.230928 C194.556863,254.682474 198.866667,261.134021 205.331373,262.362887 C224.109804,265.742268 244.735294,263.591753 262.282353,256.83299 Z" id="Shape" fill="#B87149" fill-rule="nonzero"></path>
                            <path d="M172.392157,106.604124 L209.94902,110.290722 C210.256863,110.290722 190.862745,125.958763 172.392157,106.604124 Z" id="Shape" fill="#FFFFFF" fill-rule="nonzero"></path>
                            <path d="M184.398039,93.7010309 L201.637255,95.2371134 C201.637255,95.5443299 192.709804,102.610309 184.398039,93.7010309 Z" id="Shape" fill="#78482E" fill-rule="nonzero"></path>
                            <path d="M241.656863,59.9072165 C262.898039,58.985567 286.601961,57.756701 311.537255,30.414433 C311.537255,30.414433 276.443137,49.7690722 240.42549,21.1979381 C221.339216,5.8371134 175.162745,-14.7463918 149.611765,25.8061856 C126.831373,62.057732 155.460784,88.171134 155.460784,88.171134 C155.460784,88.171134 167.466667,80.4907216 181.627451,62.6721649 C204.1,75.8824742 241.041176,90.014433 285.986275,79.2618557 C285.986275,79.2618557 263.205882,78.9546392 241.656863,59.9072165 Z" id="Shape" fill="#161718" fill-rule="nonzero"></path>
                            <path d="M183.782353,85.4061856 L171.160784,84.4845361 C171.160784,84.4845361 172.084314,78.3402062 177.933333,78.6474227 C183.47451,79.2618557 183.782353,85.4061856 183.782353,85.4061856 Z" id="Shape" fill="#78482E" fill-rule="nonzero"></path>
                            <path d="M214.258824,87.556701 L201.637255,86.6350515 C201.637255,86.6350515 202.560784,80.4907216 208.409804,80.7979381 C213.95098,81.1051546 214.258824,87.556701 214.258824,87.556701 Z" id="Shape" fill="#78482E" fill-rule="nonzero"></path>
                        </g>
                    </g>
                    <g id="Wine_Character_2" transform="translate(1070.138094, 281.737647) scale(-1, 1) translate(-1070.138094, -281.737647) translate(907.471501, 95.475294)">
                        <g>
                            <ellipse id="Oval" fill="#561D42" fill-rule="nonzero" transform="translate(15.053683, 179.703782) rotate(-70.840286) translate(-15.053683, -179.703782) " cx="15.0536829" cy="179.703782" rx="5.74690639" ry="12.0385304"></ellipse>
                            <rect id="Rectangle-path" fill="#561D42" fill-rule="nonzero" transform="translate(17.755245, 171.937626) rotate(-70.847578) translate(-17.755245, -171.937626) " x="10.0261707" y="169.963975" width="15.4581494" height="3.94730249"></rect>
                            <path d="M110.579268,234.062434 L110.579268,234.062434 C106.615854,231.102116 105.823171,225.57619 108.795732,221.629101 L177.560976,128.872487 C180.533537,124.925397 186.082317,124.135979 190.045732,127.096296 L190.045732,127.096296 C194.009146,130.056614 194.801829,135.58254 191.829268,139.52963 L123.064024,232.286243 C120.091463,236.035979 114.542683,236.825397 110.579268,234.062434 Z" id="Shape" fill="#F7A56A" fill-rule="nonzero"></path>
                            <path d="M15.4573171,152.949735 L15.4573171,152.949735 C18.429878,149.002646 23.9786585,148.213228 27.9420732,151.173545 L121.082317,219.655556 C125.045732,222.615873 125.838415,228.141799 122.865854,232.088889 L122.865854,232.088889 C119.893293,236.035979 114.344512,236.825397 110.381098,233.865079 L17.2408537,165.383069 C13.277439,162.422751 12.4847561,156.896825 15.4573171,152.949735 Z" id="Shape" fill="#F7A56A" fill-rule="nonzero"></path>
                            <path d="M209.664634,1.38148148 C185.289634,1.38148148 165.472561,21.1169312 165.472561,45.3915344 L157.545732,270.375661 L251.280488,274.322751 L253.856707,45.3915344 C253.856707,21.1169312 234.039634,1.38148148 209.664634,1.38148148 Z" id="Shape" fill="#202A4B" fill-rule="nonzero"></path>
                            <path d="M323.612805,177.421693 L323.612805,177.421693 C322.027439,181.960847 317.073171,184.526455 312.317073,182.947619 L202.530488,146.239683 C197.972561,144.660847 195.396341,139.726984 196.981707,134.990476 L196.981707,134.990476 C198.567073,130.451323 203.521341,127.885714 208.277439,129.46455 L318.064024,166.172487 C322.621951,167.751323 325.198171,172.685185 323.612805,177.421693 Z" id="Shape" fill="#F7A56A" fill-rule="nonzero"></path>
                            <path d="M245.335366,271.757143 L237.804878,193.210053 C242.957317,189.460317 246.52439,182.947619 246.52439,175.448148 C246.52439,166.172487 241.371951,158.475661 234.237805,155.712698 L230.868902,120.583598 L168.841463,127.885714 L172.804878,161.830688 C164.481707,163.804233 158.338415,172.290476 158.338415,182.355556 C158.338415,193.999471 166.661585,203.275132 176.768293,203.275132 L177.759146,203.275132 L197.972561,372.013228 L249.10061,372.013228 C248.902439,371.815873 267.926829,317.346032 245.335366,271.757143 Z" id="Shape" fill="#CF3060" fill-rule="nonzero"></path>
                            <path d="M177.362805,38.2867725 L168.841463,127.68836 C168.841463,127.68836 180.731707,151.962963 197.179878,150.778836 C213.628049,149.397354 230.868902,120.583598 230.868902,120.583598 L230.868902,100.848148 C230.868902,100.848148 191.234756,63.9428571 177.362805,38.2867725 Z" id="Shape" fill="#F7A56A" fill-rule="nonzero"></path>
                            <path d="M245.335366,271.757143 L244.542683,263.073545 L185.884146,270.967725 L186.875,278.861905 L245.335366,271.757143 C245.335366,271.954497 245.335366,271.954497 245.335366,271.757143 Z" id="Shape" fill="#B6224F" fill-rule="nonzero"></path>
                            <path d="M183.307927,95.9142857 L217.393293,99.2693122 C217.393293,99.2693122 199.954268,113.67619 183.307927,95.9142857 Z" id="Shape" fill="#FFFFFF" fill-rule="nonzero"></path>
                            <path d="M194.009146,84.4677249 L209.664634,86.0465608 C209.664634,85.8492063 201.737805,92.3619048 194.009146,84.4677249 Z" id="Shape" fill="#AD744A" fill-rule="nonzero"></path>
                            <path d="M193.612805,76.968254 L182.118902,76.178836 C182.118902,76.178836 183.109756,70.4555556 188.262195,70.8502646 C193.414634,71.2449735 193.612805,76.968254 193.612805,76.968254 Z" id="Shape" fill="#AD744A" fill-rule="nonzero"></path>
                            <path d="M321.829268,168.540741 L321.829268,168.540741 C325.198171,172.093122 325,177.816402 321.432927,180.974074 L236.615854,259.521164 C233.04878,262.87619 227.301829,262.678836 224.131098,259.126455 L224.131098,259.126455 C220.762195,255.574074 220.960366,249.850794 224.527439,246.693122 L309.344512,168.146032 C312.713415,164.791005 318.460366,164.98836 321.829268,168.540741 Z" id="Shape" fill="#F7A56A" fill-rule="nonzero"></path>
                            <path d="M50.1371951,134.793122 C46.7682927,144.463492 36.0670732,149.594709 26.554878,146.239683 C16.8445122,142.884656 11.6920732,132.227513 15.0609756,122.754497 L23.5823171,108.150265 L52.5152439,118.215344 L50.1371951,134.793122 Z" id="Shape" fill="#561D42" fill-rule="nonzero"></path>
                            <path d="M23.5823171,157.291534 C23.3841463,157.291534 23.1859756,157.291534 22.9878049,157.09418 C21.9969512,156.699471 21.402439,155.515344 21.7987805,154.528571 L26.9512195,139.924339 C27.347561,138.937566 28.5365854,138.345503 29.527439,138.740212 C30.5182927,139.134921 31.1128049,140.319048 30.7164634,141.30582 L25.5640244,155.910053 C25.1676829,156.896825 24.375,157.291534 23.5823171,157.291534 Z" id="Shape" fill="#561D42" fill-rule="nonzero"></path>
                        </g>
                    </g>
                </g>
            </g>
        </g>
    </g>
</svg>