<?xml version="1.0" encoding="UTF-8"?>
<svg width="296px" height="290px" viewBox="0 0 296 290" version="1.1" xmlns="http://www.w3.org/2000/svg" xmlns:xlink="http://www.w3.org/1999/xlink">
    <!-- Generator: Sketch 48.2 (47327) - http://www.bohemiancoding.com/sketch -->
    <title>GolfFan/Man</title>
    <desc>Created with Sketch.</desc>
    <defs></defs>
    <g id="Subscribe/Home" stroke="none" stroke-width="1" fill="none" fill-rule="evenodd" transform="translate(-863.000000, -3.000000)">
        <g id="Subscribe" transform="translate(0.000000, 1.000000)">
            <g id="GolfFan/Man" transform="translate(863.000000, 0.000000)">
                <g id="GolfFan_Man">
                    <g id="Group" fill-rule="nonzero">
                        <path d="M55.2753188,286.861803 C54.5249751,286.485837 37.8923565,277.086695 23.3857118,260.920172 C2.50114565,237.6103 -4.12689032,211.66867 4.37700488,185.852361 C20.1342225,137.854077 67.4058752,127.703004 90.2913578,128.956223 L89.4159569,145.248069 L88.5405559,161.539914 C86.9148112,161.414592 47.0215382,160.161373 35.2661536,196.128755 C30.5139769,210.415451 34.3907526,224.451502 47.1465954,238.863519 C57.9015217,251.145064 71.0325364,258.539056 71.1575936,258.664378 L55.2753188,286.861803 Z" id="Shape" fill="#FDBC6A"></path>
                        <path d="M266.372011,13.2841202 C243.361471,103.51588 160.448493,140.485837 159.69815,140.861803 L172.704107,170.437768 C176.455825,168.808584 259.618918,124.820601 294.634957,22.5579399 L266.372011,13.2841202 Z" id="Shape" fill="#FDBC6A"></path>
                        <path d="M223.727478,132.465236 L204.468657,110.283262 C196.089819,117.677253 188.086153,123.692704 181.082945,128.329614 C179.957429,128.956223 169.952847,134.345064 157.322061,131.963948 L157.322061,131.963948 C123.931767,122.188841 103.797544,122.314163 93.6679045,123.818026 L93.6679045,123.818026 C76.5350568,122.815451 42.0192469,133.593133 20.8845661,156.777682 L44.0201634,179.711588 C49.5226838,173.19485 56.275777,168.933906 62.903813,166.302146 C51.2734858,213.172532 44.5203925,291.624034 44.5203925,291.624034 L158.447577,291.498712 L172.954221,176.453219 C172.954221,176.453219 173.579508,173.821459 174.079737,169.811159 C180.457658,166.55279 203.968427,154.271245 223.727478,132.465236 Z" id="Shape" fill="#37715B"></path>
                        <ellipse id="Oval" fill="#FDBC6A" transform="translate(146.433356, 102.003931) rotate(-3.423729) translate(-146.433356, -102.003931) " cx="146.433356" cy="102.003931" rx="6.87804593" ry="6.89259904"></ellipse>
                        <path d="M99.4205395,31.0798283 C99.4205395,31.0798283 88.0403268,38.4738197 97.5446802,49.0008584 C97.5446802,49.0008584 93.7929617,74.5665236 93.7929617,79.9553648 L90.6665297,132.71588 C90.6665297,132.71588 100.79617,151.263519 119.804876,152.64206 C138.813583,154.020601 150.94414,144.872103 150.94414,144.872103 L165.825956,95.6206009 C165.825956,95.6206009 174.204794,62.911588 173.454451,54.0137339 C173.454451,54.0137339 166.701357,54.2643777 163.82504,58.0240343 C163.82504,58.0240343 164.200212,38.8497854 144.316104,35.5914163 C124.431996,32.0824034 117.053616,37.2206009 99.4205395,31.0798283 Z" id="Shape" fill="#FDBC6A"></path>
                        <path d="M168.827331,82.8377682 C171.20342,72.6866953 173.829622,59.1519313 173.454451,53.888412 C173.454451,53.888412 166.701357,54.1390558 163.82504,57.8987124 C163.82504,57.8987124 164.200212,38.7244635 144.316104,35.4660944 C124.431996,32.2077253 125.807626,46.4944206 108.174549,40.2283262 C108.174549,40.2283262 86.1644675,38.8497854 95.668821,49.376824 L93.7929617,71.4334764 L98.2950239,76.32103 C102.922143,71.1828326 106.173633,54.6403433 106.173633,54.6403433 C106.173633,54.6403433 130.809917,74.8171674 159.948264,69.0523605 C159.948264,69.0523605 158.697691,77.1982833 161.448951,86.7227468 L168.827331,82.8377682 Z" id="Shape" fill="#CD892A"></path>
                        <path d="M146.066906,121.43691 C144.191047,133.593133 132.935891,141.864378 120.805335,139.984549 C108.674778,138.104721 100.420998,126.825751 102.296857,114.669528 L104.798003,98.1270386 L148.568051,104.894421 L146.066906,121.43691 Z" id="Shape" fill="#7F2F20"></path>
                        <rect id="Rectangle-path" fill="#FFFFFF" transform="translate(128.693404, 105.975673) rotate(8.818037) translate(-128.693404, -105.975673) " x="109.184077" y="101.777305" width="39.018655" height="8.396735"></rect>
                        <path d="M122.431079,81.4592275 L111.551096,80.0806867 C111.551096,80.0806867 112.801669,74.6918455 117.678903,75.3184549 C122.556137,75.9450644 122.431079,81.4592275 122.431079,81.4592275 Z" id="Shape" fill="#256797"></path>
                        <path d="M148.693109,84.9682403 L137.813125,83.5896996 C137.813125,83.5896996 139.063698,78.2008584 143.940932,78.8274678 C148.818166,79.4540773 148.693109,84.9682403 148.693109,84.9682403 Z" id="Shape" fill="#256797"></path>
                        <path d="M124.306939,89.2291845 L137.688068,91.3596567 C137.688068,91.3596567 130.434745,96.623176 124.306939,89.2291845 Z" id="Shape" fill="#C27F47"></path>
                        <path d="M147.69265,60.2798283 C145.441619,68.0497854 129.559344,70.1802575 112.176382,64.9167382 C94.79342,59.7785408 82.5378063,49.2515021 84.6637801,41.4815451 C86.9148112,33.711588 102.797086,31.5811159 120.180048,36.8446352 C137.563011,41.9828326 149.943682,52.5098712 147.69265,60.2798283 Z" id="Shape" fill="#37715B"></path>
                        <path d="M119.804876,38.8497854 C108.549721,37.095279 98.2950239,37.9725322 91.9171025,40.9802575 C91.9171025,41.1055794 91.7920452,41.3562232 91.7920452,41.4815451 C90.2913578,51.3819742 100.546055,61.6583691 116.303273,67.9244635 C133.811292,70.5562232 148.943223,66.4206009 150.068739,58.5253219 C151.319312,50.504721 137.813125,41.606867 119.804876,38.8497854 Z" id="Shape" fill="#0D2C3F" opacity="0.32"></path>
                        <path d="M181.082945,57.6480687 C177.331226,70.5562232 154.320686,74.9424893 129.684402,67.6738197 C105.048117,60.4051502 84.0384937,41.9828326 91.6669879,31.0798283 C95.1685919,26.0669528 116.303273,16.5424893 143.065531,21.0540773 C168.577217,25.3150215 184.834663,44.7399142 181.082945,57.6480687 Z" id="Shape" fill="#37715B"></path>
                        <path d="M150.318853,25.0643777 C149.318395,28.6987124 144.441161,30.5785408 139.688984,29.0746781 C134.936808,27.5708155 131.810376,23.4351931 132.935891,19.8008584 C133.936349,16.1665236 138.813583,14.2866953 143.56576,15.7905579 C148.317937,17.2944206 151.444369,21.304721 150.318853,25.0643777 Z" id="Shape" fill="#EFD22B"></path>
                        <ellipse id="Oval" fill="#FDBC6A" transform="translate(280.791816, 17.160752) rotate(-9.194825) translate(-280.791816, -17.160752) " cx="280.791816" cy="17.1607523" rx="14.8825598" ry="14.9140495"></ellipse>
                        <path d="M157.447118,131.963948 C151.444369,181.84206 113.802127,188.108155 113.802127,188.108155 C83.28815,168.307296 87.7902122,130.961373 89.040785,123.818026 C85.914353,123.943348 82.4127491,124.444635 78.6610306,125.196567 C76.0348277,173.069528 62.7787557,175.074678 61.1530111,175.074678 C51.398543,219.68927 45.5208508,284.104721 44.7705071,291.498712 L158.697691,291.373391 L171.703649,188.233476 L171.828706,186.854936 C155.446202,172.693562 169.077446,132.339914 169.077446,132.339914 L169.077446,132.339914 C165.450785,132.590558 161.574009,132.71588 157.447118,131.963948 L157.447118,131.963948 L157.447118,131.963948 Z" id="Shape" fill="#EFD22B"></path>
                        <path d="M59.9024382,239.239485 L67.0307033,247.886695 L75.6596558,240.743348 L68.5313907,232.096137 L59.9024382,239.239485 Z M64.5295577,173.696137 C62.7787557,174.824034 61.5281829,175.074678 61.0279538,175.074678 C60.6527819,176.954506 60.2776101,178.834335 59.9024382,180.714163 L66.1553024,175.575966 L64.5295577,173.696137 Z M129.684402,181.967382 L129.30923,181.466094 C125.432454,183.972532 121.805793,185.476395 119.054533,186.47897 L121.055449,188.985408 L129.684402,181.967382 Z M72.4081665,272.825751 L79.5364316,281.472961 L88.165384,274.329614 L81.0371189,265.682403 L72.4081665,272.825751 Z M108.924893,184.47382 C105.923518,181.967382 103.297315,179.335622 101.046284,176.453219 L98.2950239,178.709013 L105.423289,187.356223 L108.924893,184.47382 Z M93.0426181,226.707296 L85.914353,218.060086 L77.2854005,225.203433 L84.4136656,233.850644 L93.0426181,226.707296 Z M70.1571354,216.430901 L61.5281829,223.574249 L68.656448,232.221459 L77.2854005,225.078112 L70.1571354,216.430901 Z M116.178215,236.983691 L107.549263,244.127039 L114.677528,252.774249 L123.30648,245.630901 L116.178215,236.983691 Z M84.2886083,233.725322 L75.6596558,240.86867 L82.7879209,249.51588 L91.4168734,242.372532 L84.2886083,233.725322 Z M162.44941,257.536481 L162.824582,257.160515 L164.700441,242.497854 L164.075154,241.620601 L155.446202,248.763948 L162.44941,257.536481 Z M126.432912,213.924464 L119.304647,205.277253 L110.675695,212.420601 L117.80396,221.067811 L126.432912,213.924464 Z M110.675695,212.295279 L103.54743,203.648069 L94.9184773,210.791416 L102.046742,219.438627 L110.675695,212.295279 Z M55.1502615,287.112446 L58.6518654,291.498712 L67.5309325,291.498712 L70.9074791,288.741631 L63.779214,280.094421 L55.1502615,287.112446 Z M88.4154986,128.329614 L87.0398685,129.457511 L88.2904413,130.961373 C88.165384,129.958798 88.2904413,129.081545 88.4154986,128.329614 Z M124.807168,229.840343 L117.678903,221.193133 L109.04995,228.336481 L116.178215,236.983691 L124.807168,229.840343 Z M102.046742,219.563948 L93.4177899,226.707296 L100.546055,235.354506 L109.175007,228.211159 L102.046742,219.563948 Z M91.7920452,242.497854 L98.9203103,251.145064 L107.549263,244.001717 L100.420998,235.354506 L91.7920452,242.497854 Z M167.201586,180.839485 L161.824123,185.225751 L168.952388,193.872961 L171.20342,192.118455 L171.703649,188.108155 L171.828706,186.729614 C169.827789,185.100429 168.327102,183.095279 167.201586,180.839485 Z M86.9148112,129.457511 L82.7879209,124.444635 C81.4122908,124.695279 79.9116034,124.820601 78.5359733,125.196567 C78.2858587,129.081545 78.0357442,132.590558 77.6605723,135.848927 L78.2858587,136.600858 L86.9148112,129.457511 Z M56.7760062,271.196567 L63.9042713,279.843777 L72.5332237,272.700429 L65.4049587,264.053219 L56.7760062,271.196567 Z M59.6523237,239.239485 L52.5240586,230.592275 L51.398543,231.469528 C50.7732566,235.981116 50.1479702,240.492704 49.6477411,244.87897 L50.8983139,246.382833 L59.6523237,239.239485 Z M163.950097,170.187124 C163.950097,169.811159 163.82504,169.435193 163.82504,169.059227 L163.324811,169.435193 L163.950097,170.187124 Z M146.31702,255.907296 L154.945973,248.763948 L147.817708,240.116738 L139.188755,247.260086 L146.31702,255.907296 Z M70.9074791,288.741631 L73.1585102,291.498712 L85.2890665,291.498712 L86.6646967,290.370815 L79.5364316,281.723605 L70.9074791,288.741631 Z M123.556595,245.630901 L130.68486,254.278112 L139.313813,247.134764 L132.185547,238.487554 L123.556595,245.630901 Z M45.7709653,279.969099 C45.1456789,285.859227 44.7705071,289.869528 44.6454498,291.498712 L49.3976265,291.498712 L54.7750897,287.112446 L47.6468246,278.465236 L45.7709653,279.969099 Z M54.1498032,214.801717 L53.7746314,215.052361 C53.0242877,219.939914 52.3990013,224.827468 51.6486576,229.5897 L52.5240586,230.592275 L61.1530111,223.448927 L54.1498032,214.801717 Z M164.075154,153.895279 C164.075154,153.644635 164.200212,153.26867 164.200212,153.018026 L157.572176,144.872103 L154.070572,147.754506 C153.320228,150.386266 152.31977,152.767382 151.319312,155.148498 L155.821374,160.787983 L164.075154,153.895279 Z M153.445285,264.80515 L146.31702,256.15794 L137.688068,263.301288 L144.816333,271.948498 L153.445285,264.80515 Z M158.822749,288.992275 L160.698608,273.703004 L152.069655,280.72103 L158.822749,288.992275 Z M58.4017508,255.155365 L65.5300159,263.802575 L74.1589684,256.659227 L67.0307033,248.012017 L58.4017508,255.155365 Z M82.7879209,249.641202 L74.1589684,256.784549 L81.2872335,265.43176 L89.916186,258.288412 L82.7879209,249.641202 Z M133.811292,222.822318 L125.18234,229.965665 L132.310605,238.612876 L140.939557,231.469528 L133.811292,222.822318 Z M156.946889,233.098712 L164.075154,241.745923 L164.950555,240.993991 L166.701357,227.208584 L165.700899,225.955365 L156.946889,233.098712 Z M137.688068,263.175966 L130.559803,254.528755 L121.93085,261.672103 L129.059115,270.319313 L137.688068,263.175966 Z M149.56851,224.451502 L140.939557,231.59485 L148.067822,240.24206 L156.696775,233.098712 L149.56851,224.451502 Z M70.2821927,216.180258 L78.9111451,209.03691 L71.7828801,200.3897 L63.1539276,207.533047 L70.2821927,216.180258 Z M163.074696,169.435193 L155.946431,160.787983 L147.317479,167.93133 L154.445744,176.578541 L163.074696,169.435193 Z M167.451701,136.72618 L166.5763,137.478112 L167.076529,138.104721 C167.326644,137.728755 167.326644,137.227468 167.451701,136.72618 Z M62.7787557,207.533047 L56.275777,199.512446 C55.4003761,204.4 54.6500324,209.412876 53.8996887,214.300429 L54.1498032,214.551073 L62.7787557,207.533047 Z M147.317479,167.806009 L145.566677,165.675536 C143.315646,169.059227 140.8145,171.941631 138.313354,174.448069 L138.688526,174.949356 L147.317479,167.806009 Z M161.448951,185.225751 L154.320686,176.578541 L145.691734,183.721888 L152.819999,192.369099 L161.448951,185.225751 Z M152.819999,192.494421 L144.191047,199.637768 L151.319312,208.284979 L159.948264,201.141631 L152.819999,192.494421 Z M128.433829,198.008584 L135.562094,206.655794 L144.191047,199.512446 L137.062781,190.865236 L128.433829,198.008584 Z M58.026579,255.155365 L50.8983139,246.508155 L49.2725692,247.761373 C48.7723401,252.147639 48.272111,256.408584 47.7718818,260.418884 L49.2725692,262.173391 L58.026579,255.155365 Z M145.691734,183.596567 L138.563469,174.949356 L129.934516,182.092704 L137.062781,190.739914 L145.691734,183.596567 Z M139.188755,291.248069 L145.816791,291.248069 L143.190588,287.9897 L139.188755,291.248069 Z M56.4008343,271.196567 L49.2725692,262.549356 L47.39671,264.053219 C46.8964809,268.564807 46.3962517,272.700429 46.0210799,276.334764 L47.6468246,278.214592 L56.4008343,271.196567 Z M158.572634,217.182833 L165.700899,225.830043 L166.951472,224.702146 L168.577217,211.66867 L167.201586,210.039485 L158.572634,217.182833 Z M153.820457,264.80515 L160.823665,273.452361 L162.699524,258.16309 L162.324352,257.787124 L153.820457,264.80515 Z M160.198379,201.141631 L167.326644,209.788841 L169.077446,208.284979 L170.578133,196.128755 L168.827331,193.998283 L160.198379,201.141631 Z M158.572634,291.248069 L158.697691,289.99485 L157.197004,291.248069 L158.572634,291.248069 Z M86.9148112,290.370815 L87.7902122,291.373391 L102.1718,291.373391 L95.5437637,283.227468 L86.9148112,290.370815 Z M151.194254,208.535622 L142.565302,215.67897 L149.693567,224.32618 L158.322519,217.182833 L151.194254,208.535622 Z M103.297315,291.373391 L116.553387,291.373391 L111.300981,284.856652 L103.297315,291.373391 Z M121.430621,291.373391 L131.310146,291.373391 L127.308313,286.485837 L121.430621,291.373391 Z M94.6683627,210.666094 L87.5400976,202.018884 L78.9111451,209.162232 L86.0394102,217.809442 L94.6683627,210.666094 Z M80.5368898,193.12103 L87.6651549,201.76824 L96.2941074,194.624893 L89.1658423,185.977682 L80.5368898,193.12103 Z M126.808084,213.924464 L133.936349,222.571674 L142.565302,215.428326 L135.437037,206.781116 L126.808084,213.924464 Z M82.1626345,177.20515 L75.0343694,168.55794 L66.4054169,175.701288 L73.533682,184.348498 L82.1626345,177.20515 Z M96.544222,194.750215 L103.672487,203.397425 L112.30144,196.254077 L105.173174,187.606867 L96.544222,194.750215 Z M83.6633219,161.414592 L76.5350568,152.767382 L74.5341403,154.396567 C73.533682,158.281545 72.4081665,161.539914 71.2826509,164.046352 L74.9093121,168.432618 L83.6633219,161.414592 Z M94.79342,166.803433 C92.9175608,163.169099 91.5419307,159.409442 90.5414724,155.775107 L83.6633219,161.414592 L90.791587,170.061803 L94.79342,166.803433 Z M85.2890665,145.498712 L78.1608015,136.851502 L77.4104578,137.478112 C76.7851713,142.741631 76.0348277,147.253219 75.284484,151.138197 L76.5350568,152.64206 L85.2890665,145.498712 Z M128.058657,197.883262 L120.930392,189.236052 L112.30144,196.379399 L119.429705,205.026609 L128.058657,197.883262 Z M97.7947948,178.834335 L90.6665297,170.187124 L82.0375772,177.330472 L89.1658423,185.977682 L97.7947948,178.834335 Z M64.7796722,191.491845 L71.9079373,200.139056 L80.5368898,192.995708 L73.4086247,184.348498 L64.7796722,191.491845 Z M136.062323,279.217167 L143.190588,287.864378 L151.819541,280.72103 L144.691276,272.07382 L136.062323,279.217167 Z M121.555678,261.546781 L114.427413,252.899571 L105.798461,260.042918 L112.926726,268.690129 L121.555678,261.546781 Z M105.923518,259.917597 L98.795253,251.270386 L90.1663006,258.413734 L97.2945657,267.060944 L105.923518,259.917597 Z M120.305106,277.587983 L127.433371,286.235193 L136.062323,279.091845 L128.934058,270.444635 L120.305106,277.587983 Z M59.0270373,184.849785 C58.1516363,189.11073 57.4012926,193.496996 56.6509489,197.883262 L64.5295577,191.491845 L59.0270373,184.849785 Z M166.201128,137.478112 L162.074238,132.465236 C160.573551,132.339914 158.947806,132.214592 157.322061,131.963948 L157.322061,131.963948 L157.322061,131.963948 C156.946889,135.598283 156.321603,138.981974 155.571259,142.115021 L157.572176,144.496137 L166.201128,137.478112 Z M88.2904413,142.992275 L85.2890665,145.498712 L89.2908996,150.386266 C88.7906705,147.879828 88.5405559,145.373391 88.2904413,142.992275 Z M88.5405559,274.454936 L95.668821,283.102146 L104.297773,275.958798 L97.1695084,267.311588 L88.5405559,274.454936 Z M104.297773,275.958798 L111.426039,284.606009 L120.054991,277.462661 L112.926726,268.815451 L104.297773,275.958798 Z" id="Shape" fill="#EDB72B"></path>
                        <ellipse id="Oval" fill="#FDBC6A" transform="translate(95.763364, 76.541847) rotate(-76.408440) translate(-95.763364, -76.541847) " cx="95.7633643" cy="76.5418472" rx="5.12737165" ry="6.39144507"></ellipse>
                        <ellipse id="Oval" fill="#FDBC6A" transform="translate(166.006114, 86.741595) rotate(-83.626906) translate(-166.006114, -86.741595) " cx="166.006114" cy="86.7415952" rx="5.12724459" ry="6.39128669"></ellipse>
                    </g>
                </g>
            </g>
        </g>
    </g>
</svg>