<?xml version="1.0" encoding="UTF-8"?>
<svg width="365px" height="299px" viewBox="0 0 365 299" version="1.1" xmlns="http://www.w3.org/2000/svg" xmlns:xlink="http://www.w3.org/1999/xlink">
    <!-- Generator: Sketch 48.2 (47327) - http://www.bohemiancoding.com/sketch -->
    <title>GolfFan/Woman</title>
    <desc>Created with Sketch.</desc>
    <defs></defs>
    <g id="RevelBus-FAQ" stroke="none" stroke-width="1" fill="none" fill-rule="evenodd" transform="translate(-119.000000, -1329.000000)">
        <g id="GolfFan/Woman" transform="translate(119.000000, 1329.000000)">
            <g id="GolfFan">
                <g id="Group" fill-rule="nonzero">
                    <path d="M221.443986,43.0197063 C221.443986,43.0197063 219.713142,23.6644625 242.214112,16.1216102 C264.715081,8.57875785 289.235368,16.8332 309.861257,0.1819977 L364.382837,26.5108219 C364.382837,26.5108219 340.872209,44.7275219 305.245674,43.3043422 C269.619139,41.8811625 235.290736,27.5070477 221.443986,59.8132266 L221.443986,43.0197063 Z" id="Shape" fill="#794199"></path>
                    <ellipse id="Oval" fill="#C05427" cx="114.708617" cy="109.482198" rx="23.2221545" ry="25.6172344"></ellipse>
                    <path d="M167.499354,186.618537 C163.749192,186.618537 159.99903,184.626085 157.979713,181.210454 C154.950736,176.087007 156.68158,169.398062 161.874111,166.267067 C164.181903,164.843887 216.395691,133.10698 213.799426,54.1205078 C213.655189,48.1431531 218.415009,43.0197063 224.472962,42.8773883 C230.530916,42.7350703 235.723447,47.4315633 235.867684,53.408918 C239.040898,145.915598 175.865099,183.487541 173.124596,185.053039 C171.249515,186.191583 169.374434,186.618537 167.499354,186.618537 Z" id="Shape" fill="#E2A369"></path>
                    <path d="M102.16,57.2515031 C96.1020464,53.2666 88.8901971,50.9895125 80.957163,50.9895125 C59.7543263,50.9895125 42.5901252,67.7830328 42.4458882,88.5614563 C31.9165883,92.2617234 24.4162651,102.081663 24.4162651,113.609419 C24.4162651,125.564128 32.3492993,135.526386 43.3113101,138.942017 L39.5611485,141.076787 C39.5611485,141.076787 34.801328,142.92692 31.4838774,157.870307 C28.1664267,172.813694 0.61716271,173.240648 0.61716271,173.240648 C0.61716271,173.240648 19.9449186,204.550601 68.2643084,184.910721 L78.3608973,155.023948 L68.2643084,134.245524 C71.0048111,132.110755 76.7742905,132.253073 78.5051343,129.122077 C80.5244521,129.406713 79.0820822,126.84499 81.1014,126.84499 C95.3808614,126.84499 107.785242,119.302137 114.420143,107.9167 C128.411131,107.347428 108.217953,60.9517703 102.16,57.2515031 Z" id="Shape" fill="#BD4627"></path>
                    <path d="M196.34675,298.907414 C196.34675,298.907414 195.625566,289.229792 188.70219,264.466466 C181.778815,239.703139 176.730521,228.460019 176.730521,228.460019 C176.730521,228.460019 186.250162,209.53173 187.115583,193.165163 C188.125242,176.798597 150.623626,155.308584 150.623626,155.308584 L78.2166603,155.308584 C78.2166603,155.308584 62.783303,174.521509 68.9854933,196.438477 C75.1876836,218.355444 107.929479,252.084802 124.516732,255.358116 C124.516732,255.358116 107.496768,271.15541 107.496768,298.195824 L196.34675,298.907414 Z" id="Shape" fill="#794199"></path>
                    <path d="M111.102693,72.9064797 L110.525745,73.6180695 C110.669982,84.1495992 74.0337878,89.7 58.8889044,118.163594 L78.3608973,155.166266 C121.920467,155.593219 160.864452,185.053039 160.864452,185.053039 C143.26754,126.702672 111.102693,72.9064797 111.102693,72.9064797 Z" id="Shape" fill="#E2A369"></path>
                    <ellipse id="Oval" fill="#E2A369" transform="translate(91.352395, 188.168493) rotate(-18.161363) translate(-91.352395, -188.168493) " cx="91.3523946" cy="188.168493" rx="15.2894027" ry="26.471631"></ellipse>
                    <path d="M85.7169835,163.98998 L85.7169835,163.98998 C92.6403587,163.98998 100.573393,172.529058 104.467791,183.914495 C106.631346,190.461122 107.208294,197.007748 106.054398,202.415831 C105.044739,207.539278 102.592711,210.954909 99.27526,212.093453 C98.5540751,212.378089 97.6886532,212.520407 96.9674683,212.520407 C90.044093,212.520407 82.1110589,203.981329 78.2166603,192.595891 C73.8895508,179.644956 76.3415795,166.836339 83.4091917,164.559252 C84.1303767,164.132298 84.8515616,163.98998 85.7169835,163.98998 L85.7169835,163.98998 Z M85.7169835,162.5668 C84.7073246,162.5668 83.8419027,162.709118 82.9764808,162.993754 C75.0434466,165.555477 72.3029439,178.933366 76.9185274,192.880527 C80.957163,205.262191 89.4671451,213.801269 96.9674683,213.801269 C97.9771272,213.801269 98.8425491,213.658951 99.707971,213.374315 C107.641005,210.812591 110.381508,197.434702 105.765924,183.487541 C101.727289,171.248196 93.2173067,162.5668 85.7169835,162.5668 L85.7169835,162.5668 Z" id="Shape" fill="#84D4F6"></path>
                    <path d="M96.8232313,291.079926 C85.1400356,290.79529 73.8895508,288.233566 64.5141468,283.679391 C47.7826566,275.424949 37.9745417,260.908516 36.8206458,242.976452 C33.7916691,194.730661 83.2649548,175.944689 85.2842725,175.233099 C90.9095149,173.09833 93.5057806,167.263293 95.8135724,172.529058 C98.1213641,177.794823 101.294578,185.195357 94.3712026,190.318804 C92.9288327,191.31503 56.7253496,208.677822 58.8889044,241.837909 C59.6100893,252.654074 64.9468577,260.62388 74.8992097,265.462691 C91.4864629,273.717134 117.304883,271.867 136.344165,261.193152 C141.536696,258.204475 148.315835,259.912291 151.489048,264.751101 C154.662262,269.589912 152.931418,275.994221 147.738887,278.84058 C132.449766,287.521976 114.131669,291.649198 96.8232313,291.079926 Z" id="Shape" fill="#C27F47"></path>
                    <path d="M96.2462833,288.66052 C84.5630876,288.66052 73.3126028,286.383433 63.7929619,281.829258 C46.9172347,273.574816 36.5321718,258.631429 34.945565,239.703139 C30.4742185,188.895624 79.3705562,167.690247 81.5341109,166.836339 C87.1593533,164.416934 93.6500176,166.978657 95.9578094,172.529058 C98.4098381,178.079459 95.8135724,184.483767 90.18833,186.760855 C88.6017232,187.472444 53.8406099,202.842785 56.8695866,237.710687 C57.8792455,249.096125 63.5044879,257.350567 73.4568398,262.189378 C90.18833,270.301502 116.00675,267.739779 134.757558,255.927387 C139.95009,252.654074 146.729228,254.219572 150.046679,259.200701 C153.364129,264.324148 151.777522,271.013092 146.729228,274.286405 C131.584345,283.821709 113.410484,288.66052 96.2462833,288.66052 Z" id="Shape" fill="#E2A369"></path>
                    <path d="M97.4001792,134.672478 C101.583052,143.63851 112.400826,147.481095 121.487756,143.353874 C130.574686,139.226653 134.469084,128.552805 130.286212,119.586773 L124.516732,107.347428 L91.6306998,122.433133 L97.4001792,134.672478 Z" id="Shape" fill="#C27F47"></path>
                    <polygon id="Shape" fill="#FFFFFF" points="93.6500176 127.129626 122.641651 113.894055 120.622334 109.197562 91.6306998 122.433133"></polygon>
                    <path d="M96.1020464,105.354977 L86.5824054,109.197562 C86.5824054,109.197562 85.1400356,104.358751 89.3229081,102.650935 C93.6500176,100.800802 96.1020464,105.354977 96.1020464,105.354977 Z" id="Shape" fill="#419162"></path>
                    <ellipse id="Oval" fill="#E2A369" transform="translate(66.399194, 121.337612) rotate(-39.925145) translate(-66.399194, -121.337612) " cx="66.3991944" cy="121.337612" rx="10.3852854" ry="7.969977"></ellipse>
                    <path d="M78.3608973,100.800802 C79.9475041,100.800802 99.27526,102.935571 120.910808,91.1231797 C114.852854,79.7377422 110.814219,72.9064797 110.814219,72.9064797 L110.237271,73.6180695 C110.381508,84.0072813 74.4664987,89.7 59.0331414,117.452004 C60.1870373,116.455778 66.9661755,109.909152 78.3608973,100.800802 Z" id="Shape" fill="#C27F47"></path>
                    <path d="M119.468438,95.6773547 L109.948797,99.5199398 C109.948797,99.5199398 108.506427,94.6811289 112.6893,92.9733133 C117.016409,91.1231797 119.468438,95.6773547 119.468438,95.6773547 Z" id="Shape" fill="#419162"></path>
                    <path d="M102.592711,108.770608 L112.400826,104.216433 C112.400826,104.216433 110.958456,112.043921 102.592711,108.770608 Z" id="Shape" fill="#C27F47"></path>
                    <path d="M76.1973425,158.297261 C87.7363013,157.870307 131.728582,164.416934 164.758851,192.738209 C164.758851,192.738209 162.162585,177.083233 154.518025,157.585671 C151.633285,155.735537 150.623626,155.166266 150.623626,155.166266 L150.479389,155.166266 C154.229551,164.843887 157.691239,174.948463 160.720215,185.053039 C160.720215,185.053039 121.77623,155.593219 78.2166603,155.166266 C78.3608973,155.166266 77.4954754,156.304809 76.1973425,158.297261 Z" id="Shape" fill="#84D4F6"></path>
                    <path d="M142.113644,75.3258852 L113.987432,77.1760188 C113.987432,77.1760188 111.823878,66.5021711 105.47745,60.9517703 C105.47745,60.9517703 77.0627644,66.0752172 53.552136,105.497295 L59.1773784,117.452004 C59.1773784,117.452004 64.8026208,109.33988 77.4954754,99.3776219 C79.3705562,99.5199398 114.852854,100.373848 142.113644,75.3258852 Z" id="Shape" fill="#794199"></path>
                </g>
            </g>
        </g>
    </g>
</svg>