<?xml version="1.0" encoding="UTF-8"?>
<svg width="517px" height="606px" viewBox="0 0 517 606" version="1.1" xmlns="http://www.w3.org/2000/svg" xmlns:xlink="http://www.w3.org/1999/xlink">
    <!-- Generator: Sketch 48.2 (47327) - http://www.bohemiancoding.com/sketch -->
    <title>Group 2</title>
    <desc>Created with Sketch.</desc>
    <defs></defs>
    <g id="Event/Golf" stroke="none" stroke-width="1" fill="none" fill-rule="evenodd" transform="translate(-98.000000, 77.000000)">
        <g id="Group-2" transform="translate(98.000000, -77.000000)" fill-rule="nonzero">
            <path d="M85.7392571,598.357227 C84.6417525,597.807317 58.3016425,582.776434 35.4369637,556.930648 C2.51182617,519.720048 -7.73154994,478.476772 5.80433992,437.600103 C31.0469453,361.712475 106.226009,345.765075 142.443661,347.964716 L140.797404,373.627199 L139.334064,399.472985 C136.590303,399.289682 73.4837892,396.906737 54.4603764,453.91411 C46.9607618,476.643737 52.997037,498.823454 72.9350369,521.736386 C89.946358,541.349855 110.616028,553.264579 110.798945,553.264579 L85.7392571,598.357227 Z" id="Shape" fill="#FDBC6A"></path>
            <path d="M411.574881,173.886598 C374.259725,316.679984 243.839597,375.703695 242.376258,376.253605 L262.680092,423.179288 C268.716368,420.61304 409.745707,340.509433 461.877174,194.416584 L411.574881,173.886598 Z" id="Shape" fill="#FDBC6A"></path>
            <path d="M313.714055,327.989691 C276.215982,360.801008 243.107927,375.831891 242.376258,376.015194 L262.680092,422.940877 C265.789689,421.657753 304.019432,404.610532 347.187945,367.216629 L313.714055,327.989691 Z" id="Shape" fill="#D54455"></path>
            <path d="M32.2474849,391.58989 L68.830971,428.067276 C94.6223287,397.822207 137.059173,399.471938 139.254182,399.471938 L140.717521,373.626152 L142.363778,347.963669 C115.109081,346.313938 65.7213747,354.9292 32.2474849,391.58989 Z" id="Shape" fill="#C2384C"></path>
            <path d="M164.447406,333.195876 C164.447406,333.195876 115.79137,344.743994 100.609223,402.851187 C81.4028926,476.722476 69.6961771,605.584801 69.6961771,605.584801 L250.967351,605.768104 L265.23491,423.197869 L251.333186,364.357463 L164.447406,333.195876 Z" id="Shape" fill="#D54455"></path>
            <path d="M173.666305,193.670103 C173.666305,193.670103 171.288378,207.967772 183.360929,227.031331 L169.642121,263.325413 C169.642121,263.325413 155.008727,271.574069 170.922543,280.922545 L141.472837,367.808379 C141.472837,367.808379 159.76458,391.454524 189.214286,398.786662 C218.663993,406.1188 245.552855,394.387379 245.552855,394.387379 L277.014653,318.499751 C277.014653,318.499751 299.147662,269.741034 300.245167,255.626669 C300.245167,255.626669 289.635956,254.160241 284.148433,259.292738 C284.148433,259.292738 290.001791,229.414276 259.820415,218.782676 C229.821956,208.151076 199.274745,208.151076 173.666305,193.670103 Z" id="Shape" fill="#FDBC6A"></path>
            <path d="M285.657529,299.619496 C295.717988,286.055041 300.108006,263.875324 300.839676,255.626669 C300.839676,255.626669 290.230465,254.160241 284.742942,259.292738 C284.742942,259.292738 290.5963,229.414276 260.414924,218.782676 C230.233547,208.151076 199.686337,208.151076 174.077896,193.670103 C174.077896,193.670103 171.69997,207.967772 183.77252,227.031331 L171.69997,259.476041 C171.69997,259.476041 170.785383,266.074965 176.089988,261.858986 C184.687107,255.076758 191.820887,236.379807 191.820887,236.379807 C191.820887,236.379807 228.953125,276.706565 275.962905,275.606745 C275.962905,275.606745 271.755804,288.071379 273.402061,303.652172 L285.657529,299.619496 Z" id="Shape" fill="#CD892A"></path>
            <path d="M238.86039,355.865082 C232.641197,374.195427 212.703197,384.093813 194.411454,377.861496 C176.119711,371.629179 166.24217,351.649103 172.461363,333.318758 L181.058482,308.206186 L247.457509,330.935813 L238.86039,355.865082 Z" id="Shape" fill="#7F2F20"></path>
            <polyline id="Rectangle-path" fill="#FFFFFF" points="190.505156 310.28866 249.0421 330.203339 244.740163 342.872614 186.203219 322.957934"></polyline>
            <path d="M215.331603,284.059362 L198.686117,278.926865 C198.686117,278.926865 202.161548,270.861513 209.661163,273.244458 C217.160777,275.444099 215.331603,284.059362 215.331603,284.059362 Z" id="Shape" fill="#3C6FB6"></path>
            <path d="M256.575426,300.380832 L240.295775,293.965211 C240.295775,293.965211 244.319958,286.266466 251.636655,289.016018 C258.953353,291.948873 256.575426,300.380832 256.575426,300.380832 Z" id="Shape" fill="#3C6FB6"></path>
            <polygon id="Shape" fill="#FFFFFF" points="127.69839 485.088099 139.953857 486.73783 145.258463 447.327588 133.002995 445.677857 134.832169 432.113402 165.37938 436.329381 158.245601 489.487381 170.683986 491.137112 168.854811 504.701568 125.869215 498.835857"></polygon>
            <polygon id="Shape" fill="#FFFFFF" points="177.629979 492.376758 189.885447 494.026489 195.190052 454.616248 182.934585 452.966517 184.763759 439.402062 215.31097 443.618041 208.17719 496.776041 220.615575 498.425772 218.786401 511.990227 175.800805 506.124517"></polygon>
            <path d="M357.512937,192.143317 L432.143248,12.3226341 C436.350349,2.24094441 447.874147,-2.7082487 458.117523,1.50773061 C468.177982,5.72370993 473.116753,17.2718272 468.909652,27.5368203 L431.594496,119.188545 L492.688918,144.117813 C512.078165,151.999862 521.406954,174.362882 513.358587,193.793048 L491.591413,247.317655 C483.725964,266.747821 461.410037,276.096296 442.020789,268.030945 L378.365524,242.001855 C358.976276,233.7532 349.647487,211.573483 357.512937,192.143317 Z" id="Shape" fill="#D54455"></path>
            <path d="M215.32998,297.793814 L235.633815,304.759345 C235.633815,304.759345 222.829595,310.991663 215.32998,297.793814 Z" id="Shape" fill="#C27F47"></path>
            <ellipse id="Oval" fill="#FDBC6A" cx="172.029553" cy="271.124182" rx="10.7921284" ry="10.8149035"></ellipse>
            <ellipse id="Oval" fill="#FDBC6A" cx="283.335388" cy="306.526244" rx="10.7921284" ry="10.8149035"></ellipse>
        </g>
    </g>
</svg>