<?xml version="1.0" encoding="UTF-8"?>
<svg width="1124px" height="642px" viewBox="0 0 1124 642" version="1.1" xmlns="http://www.w3.org/2000/svg" xmlns:xlink="http://www.w3.org/1999/xlink">
    <!-- Generator: Sketch 48.2 (47327) - http://www.bohemiancoding.com/sketch -->
    <title>Swimsuit_Character</title>
    <desc>Created with Sketch.</desc>
    <defs></defs>
    <g id="Event/Lake" stroke="none" stroke-width="1" fill="none" fill-rule="evenodd" transform="translate(-547.000000, 99.000000)">
        <g id="Swimsuit_Character" transform="translate(547.000000, -99.000000)">
            <g id="Group">
                <g fill-rule="nonzero">
                    <path d="M378.862331,202.149311 C378.862331,202.149311 439.431299,37.7536539 590.615261,84.5873005 C705.076304,119.951483 874.860185,0.955788707 874.860185,0.955788707 L1123.81295,94.1451876 C1123.81295,94.1451876 851.491056,281.00188 696.968647,236.557705 C542.446238,192.11353 543.40008,112.783067 398.416092,220.309297" id="Shape" fill="#F5C41B"></path>
                    <path d="M282.524286,449.220692 C276.324312,449.220692 269.647418,445.875432 266.308971,440.140699 C261.06284,431.060707 263.924366,419.591242 272.985865,414.812299 C276.801233,412.422827 365.508542,357.942871 360.739332,222.220874 C360.262411,211.707199 368.370068,203.1051 378.862331,203.1051 C388.877672,202.627206 397.939171,210.75141 397.939171,221.265086 C403.185302,380.403905 296.354995,444.919643 291.585785,447.309115 C289.20118,448.264903 285.862733,449.220692 282.524286,449.220692 Z" id="Shape" fill="#E29353"></path>
                    <path d="M235.786026,268.576627 C235.786026,243.248226 215.278423,222.698769 190.001609,222.698769 C183.801636,222.698769 177.601663,224.132452 172.355531,226.521923 C161.863269,219.831403 149.940244,216.008248 136.586455,216.008248 C100.817379,216.008248 71.7251974,244.681909 71.2482764,280.523985 C53.6021988,286.736612 40.7253314,303.462914 40.7253314,323.534477 C40.7253314,344.083934 54.0791198,361.288131 72.6790394,367.022863 L66.4790662,370.846018 C66.4790662,370.846018 58.371409,374.191279 52.6483568,399.997574 C46.9253046,425.325974 0.18704523,426.281763 0.18704523,426.281763 C0.18704523,426.281763 32.6176742,480.283825 114.648089,446.353326 L131.817245,394.740736 L114.648089,358.898659 C119.417299,355.075505 128.955719,355.553399 131.817245,350.296561 C135.155692,350.774455 132.771087,346.473406 136.109534,346.473406 C159.955585,346.473406 181.417031,333.570259 192.386214,313.97659 C216.709186,313.020801 235.786026,292.949239 235.786026,268.576627 Z" id="Shape" fill="#7F2F20"></path>
                    <path d="M331.64715,641.812117 C331.64715,641.812117 330.216387,625.085814 318.770283,582.553217 C306.847257,540.020619 298.7396,520.426951 298.7396,520.426951 C298.7396,520.426951 314.954915,487.930135 316.385678,459.734368 C317.816441,431.538601 254.385946,394.740736 254.385946,394.740736 L131.817245,394.740736 C131.817245,394.740736 105.586589,427.715446 116.078852,465.4691 C126.571114,503.222754 181.893952,561.047971 210.032291,566.782703 C210.032291,566.782703 181.417031,594.022681 181.417031,640.378434 L331.64715,641.812117 Z" id="Shape" fill="#F5C41B"></path>
                    <path d="M187.140083,253.284007 L186.186241,254.71769 C186.186241,272.877676 179.509347,316.843956 113.694247,356.987082 L131.817245,394.740736 C205.740002,395.696525 271.555102,446.353326 271.555102,446.353326 C241.985999,345.995512 187.140083,253.284007 187.140083,253.284007 Z" id="Shape" fill="#E29353"></path>
                    <path d="M181.417031,640.378434 L331.64715,641.812117 C331.64715,641.812117 330.216387,625.085814 318.770283,582.553217 C306.847257,540.020619 298.7396,520.426951 298.7396,520.426951 C298.7396,520.426951 314.954915,487.930135 316.385678,459.734368 C317.816441,431.538601 254.385946,394.740736 254.385946,394.740736 L254.385946,394.740736 C260.585919,411.467038 266.785892,428.671235 272.032023,446.353326 C272.032023,446.353326 206.216923,395.696525 132.294166,394.740736 C132.294166,394.740736 106.06351,427.715446 116.555773,465.4691 C127.048035,503.222754 182.370873,561.047971 210.509213,566.782703 C210.032291,566.782703 181.417031,594.022681 181.417031,640.378434 Z" id="Shape" fill="#F5C41B"></path>
                    <path d="M164.247874,359.376554 C171.401689,374.669173 189.524688,381.359694 204.78616,374.191279 C220.047633,367.022863 226.724527,348.862878 219.570712,333.570259 L210.032291,312.542907 L154.232533,338.827097 L164.247874,359.376554 Z" id="Shape" fill="#7F2F20"></path>
                    <polygon id="Shape" fill="#FFFFFF" points="158.047901 346.951301 206.693844 324.012372 203.355397 315.888168 154.232533 338.827097"></polygon>
                    <path d="M200.493871,292.471344 L184.278557,299.161865 C184.278557,299.161865 181.893952,291.037661 189.047767,287.692401 C196.201582,284.34714 200.493871,292.471344 200.493871,292.471344 Z" id="Shape" fill="#7F2F20"></path>
                    <path d="M257.247472,596.412153 C253.909025,596.412153 251.52442,599.279519 251.52442,602.146885 C251.52442,605.492146 254.385946,607.881617 257.247472,607.881617 C260.585919,607.881617 262.970524,605.014251 262.970524,602.146885 C262.970524,598.801625 260.585919,596.412153 257.247472,596.412153 Z M275.847391,569.172175 C272.508944,569.172175 270.124339,572.039541 270.124339,574.906907 C270.124339,578.252168 272.985865,580.641639 275.847391,580.641639 C278.708918,580.641639 281.570444,577.774273 281.570444,574.906907 C281.570444,572.039541 278.708918,569.172175 275.847391,569.172175 Z M293.97039,434.883862 C290.631943,434.883862 288.247338,437.751228 288.247338,440.618594 C288.247338,443.48596 291.108864,446.353326 293.97039,446.353326 C296.831916,446.353326 299.693442,443.48596 299.693442,440.618594 C299.693442,437.751228 297.308837,434.883862 293.97039,434.883862 Z M277.755076,515.648007 C274.416628,515.648007 272.032023,518.515373 272.032023,521.38274 C272.032023,524.250106 274.893549,527.117472 277.755076,527.117472 C280.616602,527.117472 283.478128,524.250106 283.478128,521.38274 C283.478128,518.515373 280.616602,515.648007 277.755076,515.648007 Z M275.847391,473.593304 C279.185839,473.593304 281.570444,470.725938 281.570444,467.858572 C281.570444,464.991206 278.708918,462.12384 275.847391,462.12384 C272.985865,462.12384 270.124339,464.991206 270.124339,467.858572 C270.124339,470.725938 272.508944,473.593304 275.847391,473.593304 Z M254.862867,435.361756 C252.955183,436.317545 251.047499,438.229122 251.047499,440.618594 C251.047499,443.963854 253.909025,446.353326 256.770551,446.353326 C260.108998,446.353326 262.493603,443.48596 262.493603,440.618594 C262.493603,440.618594 262.493603,440.618594 262.493603,440.140699 C260.585919,439.184911 258.201314,437.273333 254.862867,435.361756 Z M257.247472,542.410091 C253.909025,542.410091 251.52442,545.277457 251.52442,548.144823 C251.52442,551.012189 254.385946,553.879556 257.247472,553.879556 C260.585919,553.879556 262.970524,551.012189 262.970524,548.144823 C262.970524,545.277457 260.585919,542.410091 257.247472,542.410091 Z M312.57031,623.174237 C309.231862,623.174237 306.847257,626.041603 306.847257,628.908969 C306.847257,631.776335 309.708783,634.643701 312.57031,634.643701 C315.431836,634.643701 318.293362,631.776335 318.293362,628.908969 C318.293362,626.041603 315.908757,623.174237 312.57031,623.174237 Z M275.847391,623.174237 C272.508944,623.174237 270.124339,626.041603 270.124339,628.908969 C270.124339,631.776335 272.985865,634.643701 275.847391,634.643701 C278.708918,634.643701 281.570444,631.776335 281.570444,628.908969 C281.570444,626.041603 278.708918,623.174237 275.847391,623.174237 Z M293.97039,542.410091 C290.631943,542.410091 288.247338,545.277457 288.247338,548.144823 C288.247338,551.012189 291.108864,553.879556 293.97039,553.879556 C296.831916,553.879556 299.693442,551.012189 299.693442,548.144823 C299.693442,545.277457 297.308837,542.410091 293.97039,542.410091 Z M275.847391,419.591242 C279.185839,419.591242 281.570444,416.723876 281.570444,413.85651 C281.570444,413.85651 281.570444,413.85651 281.570444,413.378616 C279.185839,411.467038 276.801233,409.555461 274.416628,408.121778 C272.032023,408.599672 269.647418,410.989144 269.647418,413.85651 C269.647418,417.20177 272.508944,419.591242 275.847391,419.591242 Z M167.1094,515.648007 C163.770953,515.648007 161.386348,518.515373 161.386348,521.38274 C161.386348,524.250106 164.247874,527.117472 167.1094,527.117472 C169.970926,527.117472 172.832452,524.250106 172.832452,521.38274 C172.832452,518.515373 170.447847,515.648007 167.1094,515.648007 Z M312.57031,581.119534 C314.477994,581.119534 316.385678,580.163745 317.33952,578.252168 C316.385678,575.384801 315.908757,572.517435 314.954915,569.650069 C314.477994,569.172175 313.524152,569.172175 312.57031,569.172175 C309.231862,569.172175 306.847257,572.039541 306.847257,574.906907 C306.847257,578.252168 309.231862,581.119534 312.57031,581.119534 Z M293.97039,488.885923 C290.631943,488.885923 288.247338,491.75329 288.247338,494.620656 C288.247338,497.488022 291.108864,500.355388 293.97039,500.355388 C296.831916,500.355388 299.693442,497.488022 299.693442,494.620656 C299.693442,491.75329 297.308837,488.885923 293.97039,488.885923 Z M293.97039,596.412153 C290.631943,596.412153 288.247338,599.279519 288.247338,602.146885 C288.247338,605.492146 291.108864,607.881617 293.97039,607.881617 C296.831916,607.881617 299.693442,605.014251 299.693442,602.146885 C300.170363,598.801625 297.308837,596.412153 293.97039,596.412153 Z M312.57031,473.593304 C313.047231,473.593304 313.524152,473.593304 314.477994,473.11541 C314.954915,469.770149 315.431836,466.424889 315.908757,462.601734 C314.954915,462.12384 314.001073,461.645945 312.57031,461.645945 C309.231862,461.645945 306.847257,464.513311 306.847257,467.380678 C306.847257,470.248044 309.231862,473.593304 312.57031,473.593304 Z M203.832318,515.648007 C200.493871,515.648007 198.109266,518.515373 198.109266,521.38274 C198.109266,524.250106 200.970792,527.117472 203.832318,527.117472 C206.693844,527.117472 209.55537,524.250106 209.55537,521.38274 C209.55537,518.515373 207.170765,515.648007 203.832318,515.648007 Z M183.324715,434.883862 C179.986268,434.883862 177.601663,437.751228 177.601663,440.618594 C177.601663,443.48596 180.463189,446.353326 183.324715,446.353326 C186.186241,446.353326 189.047767,443.48596 189.047767,440.618594 C189.047767,437.751228 186.663162,434.883862 183.324715,434.883862 Z M220.524554,434.883862 C217.186107,434.883862 214.801502,437.751228 214.801502,440.618594 C214.801502,443.48596 217.663028,446.353326 220.524554,446.353326 C223.38608,446.353326 226.247606,443.48596 226.247606,440.618594 C226.247606,437.751228 223.38608,434.883862 220.524554,434.883862 Z M201.924634,419.591242 C205.263081,419.591242 207.647686,416.723876 207.647686,413.85651 C207.647686,412.900721 207.170765,411.944933 206.693844,410.989144 C204.309239,410.033355 201.924634,409.077566 200.01695,408.599672 C197.632345,409.555461 196.201582,411.467038 196.201582,414.334404 C196.201582,417.20177 198.586187,419.591242 201.924634,419.591242 Z M183.324715,488.885923 C179.986268,488.885923 177.601663,491.75329 177.601663,494.620656 C177.601663,497.488022 180.463189,500.355388 183.324715,500.355388 C186.186241,500.355388 189.047767,497.488022 189.047767,494.620656 C189.047767,491.75329 186.663162,488.885923 183.324715,488.885923 Z M141.832586,490.797501 C138.494139,490.797501 136.109534,493.664867 136.109534,496.532233 C136.109534,499.399599 138.97106,502.266965 141.832586,502.266965 C144.694113,502.266965 147.555639,499.399599 147.555639,496.532233 C147.555639,493.664867 145.171034,490.797501 141.832586,490.797501 Z M201.924634,473.593304 C205.263081,473.593304 207.647686,470.725938 207.647686,467.858572 C207.647686,464.991206 204.78616,462.12384 201.924634,462.12384 C199.063108,462.12384 196.201582,464.991206 196.201582,467.858572 C196.201582,470.725938 198.586187,473.593304 201.924634,473.593304 Z M201.924634,623.174237 C198.586187,623.174237 196.201582,626.041603 196.201582,628.908969 C196.201582,631.776335 199.063108,634.643701 201.924634,634.643701 C204.78616,634.643701 207.647686,631.776335 207.647686,628.908969 C207.647686,626.041603 205.263081,623.174237 201.924634,623.174237 Z M257.247472,488.885923 C253.909025,488.885923 251.52442,491.75329 251.52442,494.620656 C251.52442,497.488022 254.385946,500.355388 257.247472,500.355388 C260.585919,500.355388 262.970524,497.488022 262.970524,494.620656 C262.970524,491.75329 260.585919,488.885923 257.247472,488.885923 Z M199.540029,580.163745 C200.493871,580.641639 200.970792,580.641639 201.924634,580.641639 C205.263081,580.641639 207.647686,577.774273 207.647686,574.906907 C207.647686,573.473224 207.170765,572.039541 206.216923,571.083752 C204.309239,573.473224 201.924634,576.34059 199.540029,580.163745 Z M183.324715,542.410091 C179.986268,542.410091 177.601663,545.277457 177.601663,548.144823 L177.601663,548.144823 C179.986268,550.056401 182.370873,551.967978 184.755478,553.401661 C187.617004,552.923767 189.524688,550.534295 189.524688,547.666929 C189.524688,545.277457 186.663162,542.410091 183.324715,542.410091 Z M220.524554,488.885923 C217.186107,488.885923 214.801502,491.75329 214.801502,494.620656 C214.801502,497.488022 217.663028,500.355388 220.524554,500.355388 C223.38608,500.355388 226.247606,497.488022 226.247606,494.620656 C226.247606,491.75329 223.38608,488.885923 220.524554,488.885923 Z M238.647552,623.174237 C235.309105,623.174237 232.9245,626.041603 232.9245,628.908969 C232.9245,631.776335 235.786026,634.643701 238.647552,634.643701 C241.509078,634.643701 244.370605,631.776335 244.370605,628.908969 C244.370605,626.041603 241.985999,623.174237 238.647552,623.174237 Z M238.647552,569.172175 C235.309105,569.172175 232.9245,572.039541 232.9245,574.906907 C232.9245,578.252168 235.786026,580.641639 238.647552,580.641639 C241.509078,580.641639 244.370605,577.774273 244.370605,574.906907 C244.847526,572.039541 241.985999,569.172175 238.647552,569.172175 Z M238.647552,473.593304 C241.985999,473.593304 244.370605,470.725938 244.370605,467.858572 C244.370605,464.991206 241.509078,462.12384 238.647552,462.12384 C235.786026,462.12384 232.9245,464.991206 232.9245,467.858572 C232.9245,470.725938 235.786026,473.593304 238.647552,473.593304 Z M167.1094,413.85651 C170.447847,413.85651 172.832452,410.989144 172.832452,408.121778 C172.832452,405.254412 169.970926,402.387046 167.1094,402.387046 C164.247874,402.387046 161.386348,405.254412 161.386348,408.121778 C161.386348,410.989144 163.770953,413.85651 167.1094,413.85651 Z M240.555236,515.648007 C237.216789,515.648007 234.832184,518.515373 234.832184,521.38274 C234.832184,524.250106 237.69371,527.117472 240.555236,527.117472 C243.416762,527.117472 246.278289,524.250106 246.278289,521.38274 C246.278289,518.515373 243.893684,515.648007 240.555236,515.648007 Z M220.524554,596.412153 C217.186107,596.412153 214.801502,599.279519 214.801502,602.146885 C214.801502,605.492146 217.663028,607.881617 220.524554,607.881617 C223.38608,607.881617 226.247606,605.014251 226.247606,602.146885 C226.247606,598.801625 223.38608,596.412153 220.524554,596.412153 Z M220.524554,542.410091 C217.186107,542.410091 214.801502,545.277457 214.801502,548.144823 C214.801502,551.012189 217.663028,553.879556 220.524554,553.879556 C223.38608,553.879556 226.247606,551.012189 226.247606,548.144823 C226.247606,545.277457 223.38608,542.410091 220.524554,542.410091 Z" id="Shape" fill="#FFFFFF"></path>
                    <ellipse id="Oval" fill="#E29353" transform="translate(153.746693, 451.624357) rotate(-18.161363) translate(-153.746693, -451.624357) " cx="153.746693" cy="451.624357" rx="25.7542103" ry="45.4008019"></ellipse>
                    <path d="M161.386348,623.174237 C141.832586,622.696342 122.755746,618.395293 106.540431,610.271089 C78.4020916,595.934259 61.7098561,571.083752 59.802172,540.498514 C54.5560409,457.344896 138.494139,425.325974 141.832586,423.892291 C151.371007,420.547031 162.34019,424.84808 166.155558,433.928073 C169.970926,443.008066 165.201716,453.521741 155.663296,456.867002 C152.80177,457.822791 93.663564,481.239614 97.0020111,538.586936 C97.9558531,557.224816 107.017352,570.605858 124.186509,579.207956 C152.324849,593.066893 195.724661,590.199526 228.15529,572.039541 C237.216789,567.260597 248.662894,569.650069 253.909025,578.252168 C259.155156,586.854266 256.29363,597.367942 247.709052,602.62478 C221.478396,616.96161 190.47853,624.130026 161.386348,623.174237 Z" id="Shape" fill="#C27F47"></path>
                    <path d="M160.432506,619.351082 C140.878744,619.351082 121.801904,615.527927 105.586589,607.403723 C76.9713285,593.066893 59.802172,567.738492 56.9406459,534.763781 C48.8329887,447.309115 131.817245,410.989144 135.155692,409.555461 C144.694113,405.732306 155.663296,410.033355 159.478664,419.591242 C163.294032,429.149129 159.001743,440.140699 149.463323,443.963854 C146.601797,444.919643 87.9405118,471.681727 93.186643,531.418521 C95.0943271,551.012189 104.155826,564.871126 121.324983,573.473224 C149.940244,587.33216 193.340056,583.031111 225.293764,562.481654 C233.878342,556.746922 245.324447,559.614288 251.047499,568.216386 C256.770551,576.818485 253.909025,588.287949 245.324447,594.022681 C220.047633,610.748984 189.524688,619.351082 160.432506,619.351082 Z" id="Shape" fill="#E29353"></path>
                </g>
            </g>
        </g>
    </g>
</svg>