<?xml version="1.0" encoding="UTF-8"?>
<svg width="313px" height="277px" viewBox="0 0 313 277" version="1.1" xmlns="http://www.w3.org/2000/svg" xmlns:xlink="http://www.w3.org/1999/xlink">
    <!-- Generator: Sketch 48.2 (47327) - http://www.bohemiancoding.com/sketch -->
    <title>GolfFan/Man</title>
    <desc>Created with Sketch.</desc>
    <defs></defs>
    <g id="RevelBus-Contact" stroke="none" stroke-width="1" fill="none" fill-rule="evenodd" transform="translate(-91.000000, -1089.000000)">
        <g id="Subscribe" transform="translate(0.000000, 1069.000000)">
            <g id="GolfFan/Man">
                <g id="Swimsuit_Guy" transform="translate(89.000000, 20.000000)">
                    <g>
                        <polygon id="Shape" fill="#75AFB5" fill-rule="nonzero" points="179.907792 109.631776 131.328571 105.92243 131.328571 301.693458 179.907792 301.693458"></polygon>
                        <path d="M131.328571,277.788785 L179.907792,277.788785 L179.907792,259.654206 L131.328571,259.654206 L131.328571,277.788785 Z M131.328571,185.879439 L131.328571,204.014019 L179.907792,204.014019 L179.907792,185.879439 L131.328571,185.879439 Z M131.328571,241.107477 L179.907792,241.107477 L179.907792,222.972897 L131.328571,222.972897 L131.328571,241.107477 Z" id="Shape" fill="#60979C" fill-rule="nonzero"></path>
                        <path d="M137.503896,226.270093 C131.328571,225.445794 125.976623,229.56729 124.741558,235.749533 L95.9233766,439.351402 L118.566234,439.351402 L128.446753,439.351402 L119.38961,432.757009 L146.972727,239.046729 C147.796104,232.864486 143.679221,227.094393 137.503896,226.270093 Z" id="Shape" fill="#EFC19D" fill-rule="nonzero"></path>
                        <path d="M162.205195,206.486916 L151.912987,131.063551 C150.677922,121.171963 146.149351,112.516822 139.562338,105.92243 L139.562338,43.2757009 L139.562338,43.2757009 L139.562338,42.4514019 C139.562338,24.3168224 125.153247,9.89158879 107.038961,9.89158879 C88.9246753,9.89158879 74.5155844,24.3168224 74.5155844,42.4514019 L74.5155844,43.2757009 L74.5155844,43.2757009 L74.5155844,107.983178 C66.6935065,117.050467 62.5766234,129.414953 64.2233766,142.603738 L74.1038961,218.027103 C77.3974026,241.931776 99.6285714,258.829907 123.506494,255.94486 L124.32987,255.94486 C148.207792,252.647664 165.087013,230.391589 162.205195,206.486916 Z" id="Shape" fill="#EFC19D" fill-rule="nonzero"></path>
                        <path d="M138.327273,226.270093 C132.151948,225.445794 126.8,229.56729 125.564935,235.749533 L122.271429,259.654206 C123.094805,259.654206 123.506494,259.654206 124.32987,259.242056 L125.153247,259.242056 C132.975325,258.005607 139.974026,255.120561 146.149351,250.586916 L147.796104,238.634579 C148.619481,232.864486 144.090909,227.094393 138.327273,226.270093 Z" id="Shape" fill="#D2AB8C" fill-rule="nonzero"></path>
                        <path d="M74.1038961,218.027103 C77.3974026,241.931776 99.6285714,258.829907 123.506494,255.94486 L124.32987,255.94486 C148.207792,252.647664 165.087013,230.391589 162.205195,206.486916 L161.381818,199.892523 L73.2805195,208.959813 L74.1038961,218.027103 Z" id="Shape" fill="#E83741" fill-rule="nonzero"></path>
                        <path d="M50.225974,246.465421 L51.461039,246.053271 C56.4012987,243.580374 58.8714286,237.81028 56.812987,232.452336 L23.0545455,156.616822 C20.5844156,151.671028 14.8207792,149.198131 9.46883117,151.258879 L8.23376623,151.671028 C3.29350649,154.143925 0.823376623,159.914019 2.88181818,165.271963 L36.2285714,240.695327 C39.1103896,246.465421 45.2857143,248.526168 50.225974,246.465421 Z" id="Shape" fill="#EFC19D" fill-rule="nonzero"></path>
                        <path d="M135.033766,65.1196262 C135.033766,79.5448598 123.506494,91.0850467 109.097403,91.0850467 C94.6883117,91.0850467 83.161039,79.5448598 83.161039,65.1196262 L135.033766,65.1196262 Z" id="Shape" fill="#A03830" fill-rule="nonzero"></path>
                        <path d="M91.3948052,112.516822 L90.5714286,111.692523 C87.6896104,107.158879 81.1025974,105.51028 76.574026,108.395327 L6.9987013,152.907477 C2.47012987,155.792523 0.823376623,162.386916 3.70519481,166.920561 L4.52857143,168.157009 C7.41038961,172.690654 13.9974026,174.339252 18.525974,171.454206 L88.1012987,126.942056 C93.0415584,123.64486 94.2766234,117.462617 91.3948052,112.516822 Z" id="Shape" fill="#EFC19D" fill-rule="nonzero"></path>
                        <path d="M292.71039,71.7140187 L291.887013,70.4775701 C288.593506,65.9439252 282.006494,65.1196262 277.477922,68.828972 L212.431169,119.523364 C207.902597,122.820561 207.079221,129.414953 210.784416,133.948598 L211.607792,135.185047 C214.901299,139.718692 221.488312,140.542991 226.016883,136.833645 L291.063636,86.1392523 C295.592208,82.8420561 296.415584,76.2476636 292.71039,71.7140187 Z" id="Shape" fill="#EFC19D" fill-rule="nonzero"></path>
                        <path d="M127.623377,113.753271 L127.623377,115.401869 C126.8,120.759813 130.505195,126.117757 136.268831,126.942056 L217.783117,139.306542 C223.135065,140.130841 228.487013,136.421495 229.31039,130.651402 L229.722078,129.414953 C230.545455,124.057009 226.84026,118.699065 221.076623,117.874766 L139.562338,105.51028 C133.798701,104.273832 128.446753,108.395327 127.623377,113.753271 Z" id="Shape" fill="#EFC19D" fill-rule="nonzero"></path>
                        <path d="M151.912987,107.571028 C151.912987,107.571028 169.203896,111.692523 169.203896,128.178505 L169.203896,131.88785 L217.371429,139.306542 L217.783117,139.306542 L217.783117,131.063551 C217.783117,131.063551 218.606494,121.996262 213.254545,116.638318 L157.264935,108.395327 L151.912987,107.571028 Z" id="Shape" fill="#D2AB8C" fill-rule="nonzero"></path>
                        <path d="M207.079221,112.104673 L154.794805,107.571028 C154.794805,107.571028 172.085714,111.692523 172.085714,128.178505 L172.085714,254.708411 L220.664935,254.708411 L220.664935,131.063551 C220.664935,131.063551 221.9,114.57757 207.079221,112.104673 Z" id="Shape" fill="#8ED4DA" fill-rule="nonzero"></path>
                        <path d="M172.085714,232.452336 L220.664935,232.452336 L220.664935,214.317757 L172.085714,214.317757 L172.085714,232.452336 Z M172.085714,140.542991 L172.085714,158.67757 L220.664935,158.67757 L220.664935,140.542991 L172.085714,140.542991 Z M172.085714,195.771028 L220.664935,195.771028 L220.664935,177.224299 L172.085714,177.224299 L172.085714,195.771028 Z" id="Shape" fill="#75AFB5" fill-rule="nonzero"></path>
                        <rect id="Rectangle-path" fill="#FFFFFF" fill-rule="nonzero" x="88.9246753" y="65.1196262" width="39.5220779" height="7.00654206"></rect>
                        <path d="M113.625974,56.0523364 L124.741558,56.0523364 C125.153247,56.0523364 119.801299,60.9981308 113.625974,56.0523364 Z" id="Shape" fill="#C17F46" fill-rule="nonzero"></path>
                        <ellipse id="Oval" fill="#EFC19D" fill-rule="nonzero" cx="75.7506494" cy="50.282243" rx="5.35194805" ry="5.35794393"></ellipse>
                        <path d="M98.8051948,88.6121495 C102.098701,90.2607477 105.803896,91.0850467 109.509091,91.0850467 C114.037662,91.0850467 118.154545,89.8485981 121.85974,87.7878505 C120.212987,83.6663551 115.684416,81.1934579 110.332468,81.1934579 C104.568831,81.1934579 100.04026,84.4906542 98.8051948,88.6121495 Z" id="Shape" fill="#F7323F" fill-rule="nonzero"></path>
                        <path d="M74.5155844,38.3299065 C74.5155844,38.3299065 78.2207792,-2.4728972 131.328571,0.824299065 L131.328571,9.89158879 C131.328571,9.89158879 137.503896,16.4859813 137.092208,30.4990654 C137.092208,30.4990654 117.742857,44.9242991 89.7480519,28.0261682 L79.0441558,50.282243 L74.1038961,44.5121495 L74.5155844,38.3299065 Z" id="Shape" fill="#DDB136" fill-rule="nonzero"></path>
                        <path d="M105.803896,157.441121 C90.1597403,157.441121 81.1025974,147.961682 80.6909091,147.549533 C80.2792208,147.137383 80.2792208,146.725234 80.6909091,146.313084 C81.1025974,145.900935 81.5142857,145.900935 81.925974,146.313084 C81.925974,146.313084 92.6298701,157.441121 110.332468,155.380374 C110.744156,155.380374 111.155844,155.792523 111.567532,156.204673 C111.567532,156.616822 111.155844,157.028972 110.744156,157.441121 C108.685714,157.441121 107.038961,157.441121 105.803896,157.441121 Z" id="Shape" fill="#D2AB8C" fill-rule="nonzero"></path>
                        <path d="M135.033766,154.556075 C134.622078,154.556075 134.21039,154.143925 134.21039,153.731776 C134.21039,153.319626 134.622078,152.907477 135.033766,152.495327 C135.033766,152.495327 142.855844,151.671028 147.384416,144.664486 C147.796104,144.252336 148.207792,144.252336 148.619481,144.252336 C149.031169,144.664486 149.031169,145.076636 149.031169,145.488785 C143.679221,153.731776 135.445455,154.556075 135.033766,154.556075 L135.033766,154.556075 Z" id="Shape" fill="#D2AB8C" fill-rule="nonzero"></path>
                        <path d="M106.215584,233.688785 C100.04026,232.864486 94.6883117,236.985981 93.4532468,243.168224 L66.6935065,429.871963 L53.5194805,439.351402 L65.8701299,439.351402 L86.4545455,439.351402 L88.512987,439.351402 L116.096104,246.465421 C116.507792,239.871028 112.390909,234.513084 106.215584,233.688785 Z" id="Shape" fill="#EFC19D" fill-rule="nonzero"></path>
                        <path d="M142.855844,42.8635514 L142.855844,40.3906542 L92.6298701,40.3906542 L92.6298701,42.8635514 C92.6298701,49.4579439 97.9818182,54.8158879 104.568831,54.8158879 C111.155844,54.8158879 116.507792,49.4579439 116.507792,42.8635514 L119.801299,42.8635514 C119.801299,49.0457944 124.741558,54.4037383 131.328571,54.4037383 C137.915584,53.9915888 142.855844,49.0457944 142.855844,42.8635514 L142.855844,42.8635514 Z" id="Shape" fill="#231F20" fill-rule="nonzero"></path>
                        <g id="Group" transform="translate(275.831169, 28.850467)" fill-rule="nonzero">
                            <path d="M31.2883117,65.9439252 L20.5844156,68.4168224 C15.2324675,69.653271 10.2922078,66.3560748 9.05714286,60.9981308 L1.23506494,26.7897196 C1.69864123e-14,21.4317757 3.29350649,16.4859813 8.64545455,15.2495327 L19.3493506,12.7766355 C24.7012987,11.5401869 29.6415584,14.8373832 30.8766234,20.1953271 L38.6987013,54.4037383 C39.9337662,59.7616822 36.2285714,64.7074766 31.2883117,65.9439252 Z" id="Shape" fill="#85401D"></path>
                            <rect id="Rectangle-path" fill="#F7C853" transform="translate(12.794861, 9.066671) rotate(-12.691004) translate(-12.794861, -9.066671) " x="7.4427432" y="3.70855759" width="10.7042357" height="10.7162278"></rect>
                        </g>
                        <path d="M289.416883,74.1869159 L281.594805,74.1869159 C279.536364,74.1869159 277.88961,72.5383178 277.88961,70.4775701 L277.88961,70.4775701 C277.88961,68.4168224 279.536364,66.7682243 281.594805,66.7682243 L289.416883,66.7682243 C291.475325,66.7682243 293.122078,68.4168224 293.122078,70.4775701 L293.122078,70.4775701 C293.122078,72.5383178 291.475325,74.1869159 289.416883,74.1869159 Z" id="Shape" fill="#EFC19D" fill-rule="nonzero"></path>
                    </g>
                </g>
            </g>
        </g>
    </g>
</svg>