<?xml version="1.0" encoding="UTF-8"?>
<svg width="602px" height="279px" viewBox="0 0 602 279" version="1.1" xmlns="http://www.w3.org/2000/svg" xmlns:xlink="http://www.w3.org/1999/xlink">
    <!-- Generator: Sketch 48.2 (47327) - http://www.bohemiancoding.com/sketch -->
    <title>Group</title>
    <desc>Created with Sketch.</desc>
    <defs></defs>
    <g id="RevelBus-Typography" stroke="none" stroke-width="1" fill="none" fill-rule="evenodd" transform="translate(-628.000000, -104.000000)">
        <g id="Landing">
            <g id="Group" transform="translate(625.000000, 86.000000)">
                <g id="Wine_Character">
                    <g>
                        <ellipse id="Oval" fill="#561D42" fill-rule="nonzero" transform="translate(17.154682, 135.638786) rotate(-70.840286) translate(-17.154682, -135.638786) " cx="17.154682" cy="135.638786" rx="6.77249619" ry="14.1318485"></ellipse>
                        <rect id="Rectangle-path" fill="#561D42" fill-rule="nonzero" transform="translate(20.162740, 127.036970) rotate(-70.840286) translate(-20.162740, -127.036970) " x="11.235359" y="125.500899" width="17.8547627" height="3.07214099"></rect>
                        <path d="M175.162745,171.734021 C177.933333,168.661856 179.472549,164.360825 178.241176,160.059794 C176.394118,153.608247 169.929412,149.921649 163.464706,151.457732 C160.694118,152.072165 95.4313725,168.047423 35.4019608,104.760825 C30.7843137,99.8453608 23.0882353,99.8453608 18.4705882,104.453608 C13.545098,109.061856 13.545098,116.742268 18.1627451,121.350515 C88.3509804,196.004124 166.543137,176.035052 169.621569,175.113402 C171.776471,174.498969 173.623529,173.270103 175.162745,171.734021 Z" id="Shape" fill="#B87149" fill-rule="nonzero"></path>
                        <path d="M57.5666667,83.5628866 C53.5647059,94.9298969 41.2509804,100.76701 30.1686275,96.7731959 C18.7784314,92.7793814 12.9294118,80.4907216 16.9313725,69.4309278 L26.7823529,52.5340206 L60.3372549,64.2082474 L57.5666667,83.5628866 Z" id="Shape" fill="#561D42" fill-rule="nonzero"></path>
                        <path d="M26.7823529,109.061856 L26.1666667,109.061856 C25.2431373,108.754639 24.9352941,107.83299 25.2431373,107.218557 L31.0921569,90.3216495 C31.4,89.4 32.3235294,89.0927835 32.9392157,89.4 C33.8627451,89.7072165 34.1705882,90.628866 33.8627451,91.243299 L28.0137255,108.140206 C28.0137255,108.754639 27.3980392,109.061856 26.7823529,109.061856 Z" id="Shape" fill="#561D42" fill-rule="nonzero"></path>
                        <path d="M164.080392,297.385567 L272.133333,297.385567 C267.515686,261.748454 226.572549,241.164948 226.572549,241.164948 C241.041176,223.039175 255.509804,179.721649 253.047059,154.529897 C250.276471,129.338144 227.803922,115.513402 227.803922,115.513402 L153.613725,144.698969 C153.613725,144.698969 129.601961,164.668041 131.141176,185.865979 C132.372549,205.835052 155.768627,216.587629 155.768627,216.587629 L164.080392,297.385567 Z" id="Shape" fill="#525AA7" fill-rule="nonzero"></path>
                        <path d="M161.001961,44.8536082 C161.001961,44.8536082 185.013725,72.5030928 229.035294,79.8762887 L226.572549,115.820619 C182.55098,133.639175 154.845098,179.414433 154.845098,179.414433 C148.996078,112.441237 161.001961,44.8536082 161.001961,44.8536082 Z" id="Shape" fill="#B87149" fill-rule="nonzero"></path>
                        <ellipse id="Oval" fill="#B87149" fill-rule="nonzero" transform="translate(228.116913, 154.836878) rotate(-3.254570) translate(-228.116913, -154.836878) " cx="228.116913" cy="154.836878" rx="16.6237434" ry="29.1859428"></ellipse>
                        <path d="M262.590196,259.597938 C274.288235,254.682474 284.754902,247.616495 292.45098,239.014433 C305.996078,223.960825 310.305882,204.913402 304.14902,186.173196 C287.833333,135.175258 229.958824,135.789691 227.496078,135.789691 C221.031373,135.789691 215.490196,141.012371 215.182353,147.463918 C215.182353,153.915464 220.415686,158.830928 226.880392,158.830928 C228.727451,158.830928 269.978431,158.830928 281.368627,193.853608 C285.062745,205.220619 282.907843,215.665979 274.596078,224.575258 C261.05098,239.628866 233.960784,247.923711 210.256863,244.54433 C203.792157,243.62268 196.403922,243.62268 195.172549,249.76701 C193.941176,255.91134 196.403922,264.820619 205.639216,267.278351 C224.417647,272.501031 245.35098,266.971134 262.590196,259.597938 Z" id="Shape" fill="#A16040" fill-rule="nonzero"></path>
                        <path d="M262.282353,256.83299 C274.288235,252.224742 284.754902,245.465979 292.45098,236.863918 C306.303922,221.503093 310.613725,202.148454 304.764706,182.179381 C288.756863,128.109278 230.57451,125.651546 228.111765,125.651546 C221.339216,125.34433 215.798039,130.56701 215.798039,137.325773 C215.490196,144.084536 220.723529,149.614433 227.496078,149.614433 C229.343137,149.614433 270.901961,151.764948 281.984314,188.938144 C285.678431,200.919588 283.215686,211.672165 274.903922,220.88866 C261.05098,235.942268 233.960784,243.62268 209.94902,238.707216 C203.484314,237.478351 197.019608,241.779381 195.788235,248.230928 C194.556863,254.682474 198.866667,261.134021 205.331373,262.362887 C224.109804,265.742268 244.735294,263.591753 262.282353,256.83299 Z" id="Shape" fill="#B87149" fill-rule="nonzero"></path>
                        <path d="M172.392157,106.604124 L209.94902,110.290722 C210.256863,110.290722 190.862745,125.958763 172.392157,106.604124 Z" id="Shape" fill="#FFFFFF" fill-rule="nonzero"></path>
                        <path d="M184.398039,93.7010309 L201.637255,95.2371134 C201.637255,95.5443299 192.709804,102.610309 184.398039,93.7010309 Z" id="Shape" fill="#78482E" fill-rule="nonzero"></path>
                        <path d="M241.656863,59.9072165 C262.898039,58.985567 286.601961,57.756701 311.537255,30.414433 C311.537255,30.414433 276.443137,49.7690722 240.42549,21.1979381 C221.339216,5.8371134 175.162745,-14.7463918 149.611765,25.8061856 C126.831373,62.057732 155.460784,88.171134 155.460784,88.171134 C155.460784,88.171134 167.466667,80.4907216 181.627451,62.6721649 C204.1,75.8824742 241.041176,90.014433 285.986275,79.2618557 C285.986275,79.2618557 263.205882,78.9546392 241.656863,59.9072165 Z" id="Shape" fill="#161718" fill-rule="nonzero"></path>
                        <path d="M183.782353,85.4061856 L171.160784,84.4845361 C171.160784,84.4845361 172.084314,78.3402062 177.933333,78.6474227 C183.47451,79.2618557 183.782353,85.4061856 183.782353,85.4061856 Z" id="Shape" fill="#78482E" fill-rule="nonzero"></path>
                        <path d="M214.258824,87.556701 L201.637255,86.6350515 C201.637255,86.6350515 202.560784,80.4907216 208.409804,80.7979381 C213.95098,81.1051546 214.258824,87.556701 214.258824,87.556701 Z" id="Shape" fill="#78482E" fill-rule="nonzero"></path>
                    </g>
                </g>
                <g id="Wine_Character_2" transform="translate(445.138094, 214.737647) scale(-1, 1) translate(-445.138094, -214.737647) translate(282.471501, 28.475294)">
                    <g>
                        <ellipse id="Oval" fill="#561D42" fill-rule="nonzero" transform="translate(15.053683, 179.703782) rotate(-70.840286) translate(-15.053683, -179.703782) " cx="15.0536829" cy="179.703782" rx="5.74690639" ry="12.0385304"></ellipse>
                        <rect id="Rectangle-path" fill="#561D42" fill-rule="nonzero" transform="translate(17.755245, 171.937626) rotate(-70.847578) translate(-17.755245, -171.937626) " x="10.0261707" y="169.963975" width="15.4581494" height="3.94730249"></rect>
                        <path d="M110.579268,234.062434 L110.579268,234.062434 C106.615854,231.102116 105.823171,225.57619 108.795732,221.629101 L177.560976,128.872487 C180.533537,124.925397 186.082317,124.135979 190.045732,127.096296 L190.045732,127.096296 C194.009146,130.056614 194.801829,135.58254 191.829268,139.52963 L123.064024,232.286243 C120.091463,236.035979 114.542683,236.825397 110.579268,234.062434 Z" id="Shape" fill="#F7A56A" fill-rule="nonzero"></path>
                        <path d="M15.4573171,152.949735 L15.4573171,152.949735 C18.429878,149.002646 23.9786585,148.213228 27.9420732,151.173545 L121.082317,219.655556 C125.045732,222.615873 125.838415,228.141799 122.865854,232.088889 L122.865854,232.088889 C119.893293,236.035979 114.344512,236.825397 110.381098,233.865079 L17.2408537,165.383069 C13.277439,162.422751 12.4847561,156.896825 15.4573171,152.949735 Z" id="Shape" fill="#F7A56A" fill-rule="nonzero"></path>
                        <path d="M209.664634,1.38148148 C185.289634,1.38148148 165.472561,21.1169312 165.472561,45.3915344 L157.545732,270.375661 L251.280488,274.322751 L253.856707,45.3915344 C253.856707,21.1169312 234.039634,1.38148148 209.664634,1.38148148 Z" id="Shape" fill="#202A4B" fill-rule="nonzero"></path>
                        <path d="M323.612805,177.421693 L323.612805,177.421693 C322.027439,181.960847 317.073171,184.526455 312.317073,182.947619 L202.530488,146.239683 C197.972561,144.660847 195.396341,139.726984 196.981707,134.990476 L196.981707,134.990476 C198.567073,130.451323 203.521341,127.885714 208.277439,129.46455 L318.064024,166.172487 C322.621951,167.751323 325.198171,172.685185 323.612805,177.421693 Z" id="Shape" fill="#F7A56A" fill-rule="nonzero"></path>
                        <path d="M245.335366,271.757143 L237.804878,193.210053 C242.957317,189.460317 246.52439,182.947619 246.52439,175.448148 C246.52439,166.172487 241.371951,158.475661 234.237805,155.712698 L230.868902,120.583598 L168.841463,127.885714 L172.804878,161.830688 C164.481707,163.804233 158.338415,172.290476 158.338415,182.355556 C158.338415,193.999471 166.661585,203.275132 176.768293,203.275132 L177.759146,203.275132 L197.972561,372.013228 L249.10061,372.013228 C248.902439,371.815873 267.926829,317.346032 245.335366,271.757143 Z" id="Shape" fill="#CF3060" fill-rule="nonzero"></path>
                        <path d="M177.362805,38.2867725 L168.841463,127.68836 C168.841463,127.68836 180.731707,151.962963 197.179878,150.778836 C213.628049,149.397354 230.868902,120.583598 230.868902,120.583598 L230.868902,100.848148 C230.868902,100.848148 191.234756,63.9428571 177.362805,38.2867725 Z" id="Shape" fill="#F7A56A" fill-rule="nonzero"></path>
                        <path d="M245.335366,271.757143 L244.542683,263.073545 L185.884146,270.967725 L186.875,278.861905 L245.335366,271.757143 C245.335366,271.954497 245.335366,271.954497 245.335366,271.757143 Z" id="Shape" fill="#B6224F" fill-rule="nonzero"></path>
                        <path d="M183.307927,95.9142857 L217.393293,99.2693122 C217.393293,99.2693122 199.954268,113.67619 183.307927,95.9142857 Z" id="Shape" fill="#FFFFFF" fill-rule="nonzero"></path>
                        <path d="M194.009146,84.4677249 L209.664634,86.0465608 C209.664634,85.8492063 201.737805,92.3619048 194.009146,84.4677249 Z" id="Shape" fill="#AD744A" fill-rule="nonzero"></path>
                        <path d="M193.612805,76.968254 L182.118902,76.178836 C182.118902,76.178836 183.109756,70.4555556 188.262195,70.8502646 C193.414634,71.2449735 193.612805,76.968254 193.612805,76.968254 Z" id="Shape" fill="#AD744A" fill-rule="nonzero"></path>
                        <path d="M321.829268,168.540741 L321.829268,168.540741 C325.198171,172.093122 325,177.816402 321.432927,180.974074 L236.615854,259.521164 C233.04878,262.87619 227.301829,262.678836 224.131098,259.126455 L224.131098,259.126455 C220.762195,255.574074 220.960366,249.850794 224.527439,246.693122 L309.344512,168.146032 C312.713415,164.791005 318.460366,164.98836 321.829268,168.540741 Z" id="Shape" fill="#F7A56A" fill-rule="nonzero"></path>
                        <path d="M50.1371951,134.793122 C46.7682927,144.463492 36.0670732,149.594709 26.554878,146.239683 C16.8445122,142.884656 11.6920732,132.227513 15.0609756,122.754497 L23.5823171,108.150265 L52.5152439,118.215344 L50.1371951,134.793122 Z" id="Shape" fill="#561D42" fill-rule="nonzero"></path>
                        <path d="M23.5823171,157.291534 C23.3841463,157.291534 23.1859756,157.291534 22.9878049,157.09418 C21.9969512,156.699471 21.402439,155.515344 21.7987805,154.528571 L26.9512195,139.924339 C27.347561,138.937566 28.5365854,138.345503 29.527439,138.740212 C30.5182927,139.134921 31.1128049,140.319048 30.7164634,141.30582 L25.5640244,155.910053 C25.1676829,156.896825 24.375,157.291534 23.5823171,157.291534 Z" id="Shape" fill="#561D42" fill-rule="nonzero"></path>
                    </g>
                </g>
            </g>
        </g>
    </g>
</svg>