<?xml version="1.0" encoding="UTF-8"?>
<svg width="284px" height="272px" viewBox="0 0 284 272" version="1.1" xmlns="http://www.w3.org/2000/svg" xmlns:xlink="http://www.w3.org/1999/xlink">
    <!-- Generator: Sketch 48.2 (47327) - http://www.bohemiancoding.com/sketch -->
    <title>Wine_Character</title>
    <desc>Created with Sketch.</desc>
    <defs></defs>
    <g id="Subscribe/Home" stroke="none" stroke-width="1" fill="none" fill-rule="evenodd" transform="translate(-118.000000, -19.000000)">
        <g id="Wine_Character" transform="translate(116.000000, 19.000000)" fill-rule="nonzero">
            <ellipse id="Oval" fill="#561D42" transform="translate(14.911159, 122.875404) rotate(-70.840286) translate(-14.911159, -122.875404) " cx="14.9111588" cy="122.875404" rx="6.22382034" ry="12.9797391"></ellipse>
            <rect id="Rectangle-path" fill="#561D42" transform="translate(17.675518, 114.974858) rotate(-70.840286) translate(-17.675518, -114.974858) " x="9.47139166" y="113.564016" width="16.4082536" height="2.82168241"></rect>
            <path d="M160.11815,156.027948 C162.664279,153.206244 164.078794,149.255858 162.947182,145.305471 C161.249763,139.379892 155.308797,135.993847 149.367831,137.404699 C146.821703,137.96904 86.8462394,152.641903 31.6801288,94.5147917 C27.4365818,90.0000646 20.3640035,90.0000646 16.1204565,94.2326213 C11.5940064,98.4651779 11.5940064,105.519439 15.8375534,109.751996 C80.3394674,178.319413 152.196863,159.978334 155.025894,159.131823 C157.006216,158.567482 158.703635,157.4388 160.11815,156.027948 Z" id="Shape" fill="#B87149"></path>
            <path d="M52.0491542,75.0450312 C48.3714135,85.4853376 37.0552883,90.846576 26.8707755,87.1783602 C16.4033597,83.5101445 11.0282002,72.2233268 14.7059409,62.0651908 L23.7588411,46.5458165 L54.5952824,57.2682933 L52.0491542,75.0450312 Z" id="Shape" fill="#561D42"></path>
            <path d="M23.7588411,98.4651779 L23.1930348,98.4651779 C22.3443254,98.1830075 22.0614223,97.3364961 22.3443254,96.7721553 L27.7194849,81.2527809 C28.0023881,80.4062696 28.8510975,80.1240992 29.4169037,80.4062696 C30.2656131,80.68844 30.5485162,81.5349514 30.2656131,82.0992922 L24.8904536,97.6186666 C24.8904536,98.1830075 24.3246474,98.4651779 23.7588411,98.4651779 Z" id="Shape" fill="#561D42"></path>
            <path d="M149.933638,271.435659 L249.232637,271.435659 C244.98909,238.703888 207.362973,219.798468 207.362973,219.798468 C220.659421,203.150412 233.955868,163.36438 231.692643,140.226403 C229.146514,117.088427 208.494586,104.390757 208.494586,104.390757 L140.314931,131.196949 C140.314931,131.196949 118.248487,149.538028 119.663003,169.007789 C120.794615,187.348867 142.295253,197.224833 142.295253,197.224833 L149.933638,271.435659 Z" id="Shape" fill="#525AA7"></path>
            <path d="M147.104606,39.4915554 C147.104606,39.4915554 169.171051,64.8868953 209.626198,71.6589859 L207.362973,104.672928 C166.907826,121.038813 141.446544,163.082209 141.446544,163.082209 C136.071384,101.569053 147.104606,39.4915554 147.104606,39.4915554 Z" id="Shape" fill="#B87149"></path>
            <ellipse id="Oval" fill="#B87149" transform="translate(208.782221, 140.508357) rotate(-3.254570) translate(-208.782221, -140.508357) " cx="208.782221" cy="140.508357" rx="15.2769658" ry="26.8065372"></ellipse>
            <path d="M240.46264,236.728695 C251.212959,232.213968 260.831665,225.724047 267.904243,217.823275 C280.351981,203.996923 284.312625,186.502356 278.654562,169.289959 C263.660697,122.449666 210.474908,123.014006 208.211683,123.014006 C202.270717,123.014006 197.178461,127.810904 196.895558,133.736483 C196.895558,139.662063 201.704911,144.17679 207.645876,144.17679 C209.343295,144.17679 247.252315,144.17679 257.719731,176.34422 C261.114568,186.784526 259.134246,196.378321 251.495862,204.561264 C239.048124,218.387616 214.152649,226.006218 192.369107,222.902343 C186.428142,222.055832 179.638466,222.055832 178.506854,227.699241 C177.375241,233.342649 179.638466,241.525592 188.12556,243.782956 C205.382651,248.579853 224.620064,243.500785 240.46264,236.728695 Z" id="Shape" fill="#A16040"></path>
            <path d="M240.179737,234.189161 C251.212959,229.956604 260.831665,223.748854 267.904243,215.848082 C280.634884,201.73956 284.595528,183.962822 279.220369,165.621743 C264.509406,115.959745 211.040714,113.702382 208.777489,113.702382 C202.55362,113.420211 197.461364,118.217109 197.461364,124.424859 C197.178461,130.632608 201.987814,135.711676 208.211683,135.711676 C209.909102,135.711676 248.101024,137.686869 258.285537,171.829493 C261.680375,182.83414 259.41715,192.710106 251.778765,201.175219 C239.048124,215.001571 214.152649,222.055832 192.086204,217.541105 C186.145239,216.412423 180.204273,220.362809 179.07266,226.288388 C177.941048,232.213968 181.901692,238.139547 187.842657,239.268229 C205.099748,242.372104 224.054258,240.39691 240.179737,234.189161 Z" id="Shape" fill="#B87149"></path>
            <path d="M157.572022,96.2078144 L192.086204,99.5938597 C192.369107,99.5938597 174.54621,113.984552 157.572022,96.2078144 Z" id="Shape" fill="#FFFFFF"></path>
            <path d="M168.605244,84.3566558 L184.44782,85.767508 C184.44782,86.0496784 176.243629,92.5395986 168.605244,84.3566558 Z" id="Shape" fill="#78482E"></path>
            <path d="M221.225227,53.3179071 C240.745543,52.4713958 262.529084,51.342714 285.444238,26.2295446 C285.444238,26.2295446 253.193281,44.0062825 220.093614,17.7644314 C202.55362,3.65590925 160.11815,-15.2495104 136.637191,21.996988 C115.702359,55.2931002 142.01235,79.2775878 142.01235,79.2775878 C142.01235,79.2775878 153.045572,72.2233268 166.059116,55.8574411 C186.711045,67.9907701 220.659421,80.9706105 261.963278,71.094645 C261.963278,71.094645 241.028446,70.8124745 221.225227,53.3179071 Z" id="Shape" fill="#161718"></path>
            <path d="M168.039438,76.7380538 L156.44041,75.8915425 C156.44041,75.8915425 157.289119,70.2481337 162.664279,70.5303041 C167.756535,71.094645 168.039438,76.7380538 168.039438,76.7380538 Z" id="Shape" fill="#78482E"></path>
            <path d="M196.046848,78.7132469 L184.44782,77.8667356 C184.44782,77.8667356 185.296529,72.2233268 190.671689,72.5054972 C195.763945,72.7876676 196.046848,78.7132469 196.046848,78.7132469 Z" id="Shape" fill="#78482E"></path>
        </g>
    </g>
</svg>