<?xml version="1.0" encoding="UTF-8"?>
<svg width="490px" height="569px" viewBox="0 0 490 569" version="1.1" xmlns="http://www.w3.org/2000/svg" xmlns:xlink="http://www.w3.org/1999/xlink">
    <!-- Generator: Sketch 48.2 (47327) - http://www.bohemiancoding.com/sketch -->
    <title>Wine_Character_2</title>
    <desc>Created with Sketch.</desc>
    <defs></defs>
    <g id="Event/Winery" stroke="none" stroke-width="1" fill="none" fill-rule="evenodd" transform="translate(-667.000000, 40.000000)">
        <g id="Wine_Character_2" transform="translate(664.000000, -40.000000)" fill-rule="nonzero">
            <ellipse id="Oval" fill="#561D42" transform="translate(20.974236, 273.577918) rotate(-70.840286) translate(-20.974236, -273.577918) " cx="20.9742361" cy="273.577918" rx="8.7706633" ry="18.4612317"></ellipse>
            <rect id="Rectangle-path" fill="#561D42" transform="translate(25.097236, 261.668424) rotate(-70.847578) translate(-25.097236, -261.668424) " x="13.301479" y="258.641806" width="23.5915142" height="6.05323599"></rect>
            <path d="M166.760976,356.937566 L166.760976,356.937566 C160.712195,352.397884 159.502439,343.92381 164.039024,337.870899 L268.985366,195.627513 C273.521951,189.574603 281.990244,188.364021 288.039024,192.903704 L288.039024,192.903704 C294.087805,197.443386 295.297561,205.91746 290.760976,211.97037 L185.814634,354.213757 C181.278049,359.964021 172.809756,361.174603 166.760976,356.937566 Z" id="Shape" fill="#F7A56A"></path>
            <path d="M21.5902439,232.550265 L21.5902439,232.550265 C26.1268293,226.497354 34.595122,225.286772 40.6439024,229.826455 L182.790244,334.844444 C188.839024,339.384127 190.04878,347.858201 185.512195,353.911111 L185.512195,353.911111 C180.97561,359.964021 172.507317,361.174603 166.458537,356.634921 L24.3121951,251.616931 C18.2634146,247.077249 17.0536585,238.603175 21.5902439,232.550265 Z" id="Shape" fill="#F7A56A"></path>
            <path d="M317.980488,0.118518519 C280.780488,0.118518519 250.536585,30.3830688 250.536585,67.6084656 L238.439024,412.624339 L381.492683,418.677249 L385.42439,67.6084656 C385.42439,30.3830688 355.180488,0.118518519 317.980488,0.118518519 Z" id="Shape" fill="#202A4B"></path>
            <path d="M491.882927,270.078307 L491.882927,270.078307 C489.463415,277.039153 481.902439,280.973545 474.643902,278.552381 L307.092683,222.260317 C300.136585,219.839153 296.204878,212.273016 298.62439,205.009524 L298.62439,205.009524 C301.043902,198.048677 308.604878,194.114286 315.863415,196.53545 L483.414634,252.827513 C490.370732,255.248677 494.302439,262.814815 491.882927,270.078307 Z" id="Shape" fill="#F7A56A"></path>
            <path d="M372.419512,414.742857 L360.926829,294.289947 C368.790244,288.539683 374.234146,278.552381 374.234146,267.051852 C374.234146,252.827513 366.370732,241.024339 355.482927,236.787302 L350.341463,182.916402 L255.678049,194.114286 L261.726829,246.169312 C249.02439,249.195767 239.64878,262.209524 239.64878,277.644444 C239.64878,295.500529 252.35122,309.724868 267.77561,309.724868 L269.287805,309.724868 L300.136585,568.486772 L378.165854,568.486772 C377.863415,568.184127 406.897561,484.653968 372.419512,414.742857 Z" id="Shape" fill="#CF3060"></path>
            <path d="M268.682927,56.7132275 L255.678049,193.81164 C255.678049,193.81164 273.82439,231.037037 298.926829,229.221164 C324.029268,227.102646 350.341463,182.916402 350.341463,182.916402 L350.341463,152.651852 C350.341463,152.651852 289.853659,96.0571429 268.682927,56.7132275 Z" id="Shape" fill="#F7A56A"></path>
            <path d="M372.419512,414.742857 L371.209756,401.426455 L281.687805,413.532275 L283.2,425.638095 L372.419512,414.742857 C372.419512,415.045503 372.419512,415.045503 372.419512,414.742857 Z" id="Shape" fill="#B6224F"></path>
            <path d="M277.756098,145.085714 L329.77561,150.230688 C329.77561,150.230688 303.160976,172.32381 277.756098,145.085714 Z" id="Shape" fill="#FFFFFF"></path>
            <path d="M294.087805,127.532275 L317.980488,129.953439 C317.980488,129.650794 305.882927,139.638095 294.087805,127.532275 Z" id="Shape" fill="#AD744A"></path>
            <path d="M293.482927,116.031746 L275.941463,114.821164 C275.941463,114.821164 277.453659,106.044444 285.317073,106.649735 C293.180488,107.255026 293.482927,116.031746 293.482927,116.031746 Z" id="Shape" fill="#AD744A"></path>
            <path d="M489.160976,256.459259 L489.160976,256.459259 C494.302439,261.906878 494,270.683598 488.556098,275.525926 L359.112195,395.978836 C353.668293,401.12381 344.897561,400.821164 340.058537,395.373545 L340.058537,395.373545 C334.917073,389.925926 335.219512,381.149206 340.663415,376.306878 L470.107317,255.853968 C475.24878,250.708995 484.019512,251.01164 489.160976,256.459259 Z" id="Shape" fill="#F7A56A"></path>
            <path d="M74.5170732,204.706878 C69.3756098,219.536508 53.0439024,227.405291 38.5268293,222.260317 C23.7073171,217.115344 15.8439024,200.772487 20.9853659,186.245503 L33.9902439,163.849735 L78.1463415,179.284656 L74.5170732,204.706878 Z" id="Shape" fill="#561D42"></path>
            <path d="M33.9902439,239.208466 C33.6878049,239.208466 33.3853659,239.208466 33.0829268,238.90582 C31.5707317,238.300529 30.6634146,236.484656 31.2682927,234.971429 L39.1317073,212.575661 C39.7365854,211.062434 41.5512195,210.154497 43.0634146,210.759788 C44.5756098,211.365079 45.4829268,213.180952 44.8780488,214.69418 L37.0146341,237.089947 C36.4097561,238.603175 35.2,239.208466 33.9902439,239.208466 Z" id="Shape" fill="#561D42"></path>
        </g>
    </g>
</svg>